<svg width="120" height="120" viewBox="0 0 120 120" fill="none" xmlns="http://www.w3.org/2000/svg">
<path d="M60 18.75C59.7537 18.7501 59.5099 18.7017 59.2823 18.6076C59.0548 18.5134 58.848 18.3753 58.6739 18.2011C58.4997 18.027 58.3616 17.8202 58.2674 17.5927C58.1733 17.3651 58.1249 17.1213 58.125 16.875V9.375C58.125 8.87772 58.3225 8.40081 58.6742 8.04918C59.0258 7.69754 59.5027 7.5 60 7.5C60.4973 7.5 60.9742 7.69754 61.3258 8.04918C61.6775 8.40081 61.875 8.87772 61.875 9.375V16.875C61.8751 17.1213 61.8267 17.3651 61.7326 17.5927C61.6384 17.8202 61.5003 18.027 61.3261 18.2011C61.152 18.3753 60.9452 18.5134 60.7177 18.6076C60.4901 18.7017 60.2463 18.7501 60 18.75Z" fill="#54E346"/>
<path d="M38.4392 24.5269C38.1096 24.5275 37.7858 24.4411 37.5003 24.2765C37.2148 24.1119 36.9778 23.8749 36.8132 23.5894L33.0632 17.0947C32.8148 16.664 32.7477 16.1522 32.8766 15.672C33.0054 15.1918 33.3197 14.7824 33.7503 14.5339C34.1809 14.2853 34.6926 14.2179 35.1729 14.3465C35.6531 14.4751 36.0627 14.7892 36.3115 15.2197L40.0615 21.7144C40.226 21.9993 40.3127 22.3226 40.3128 22.6516C40.3129 22.9806 40.2264 23.3039 40.062 23.5889C39.8976 23.8739 39.6611 24.1106 39.3762 24.2753C39.0914 24.4399 38.7682 24.5267 38.4392 24.5269Z" fill="#54E346"/>
<path d="M22.6505 40.3126C22.322 40.3128 21.9992 40.2263 21.7149 40.0617L15.2202 36.3117C14.7897 36.0629 14.4756 35.6534 14.347 35.1731C14.2184 34.6928 14.2858 34.1812 14.5344 33.7505C14.7829 33.3199 15.1923 33.0057 15.6725 32.8768C16.1527 32.748 16.6644 32.8151 17.0952 33.0634L23.5899 36.8134C23.9477 37.0198 24.2273 37.3385 24.3853 37.7201C24.5434 38.1017 24.571 38.5248 24.4639 38.9237C24.3568 39.3226 24.121 39.675 23.7931 39.9261C23.4652 40.1773 23.0636 40.3131 22.6505 40.3126Z" fill="#54E346"/>
<path d="M16.875 61.875H9.375C8.87772 61.875 8.40081 61.6775 8.04918 61.3258C7.69754 60.9742 7.5 60.4973 7.5 60C7.5 59.5027 7.69754 59.0258 8.04918 58.6742C8.40081 58.3225 8.87772 58.125 9.375 58.125H16.875C17.3723 58.125 17.8492 58.3225 18.2008 58.6742C18.5525 59.0258 18.75 59.5027 18.75 60C18.75 60.4973 18.5525 60.9742 18.2008 61.3258C17.8492 61.6775 17.3723 61.875 16.875 61.875Z" fill="#54E346"/>
<path d="M16.1587 87.1875C15.7457 87.1881 15.3441 87.0522 15.0162 86.8011C14.6883 86.55 14.4525 86.1976 14.3454 85.7987C14.2383 85.3998 14.2659 84.9767 14.4239 84.5951C14.582 84.2135 14.8616 83.8948 15.2194 83.6884L21.7141 79.9384C21.9274 79.8151 22.1629 79.7351 22.4071 79.7029C22.6513 79.6707 22.8995 79.6869 23.1375 79.7506C23.3755 79.8143 23.5985 79.9243 23.794 80.0742C23.9894 80.2242 24.1534 80.4112 24.2766 80.6246C24.3997 80.8379 24.4796 81.0735 24.5117 81.3177C24.5438 81.5619 24.5275 81.8101 24.4637 82.0481C24.3998 82.286 24.2897 82.509 24.1397 82.7044C23.9896 82.8998 23.8025 83.0636 23.5891 83.1867L17.0944 86.9367C16.81 87.1013 16.4873 87.1878 16.1587 87.1875Z" fill="#54E346"/>
<path d="M34.6861 105.718C34.3571 105.718 34.0339 105.631 33.7491 105.466C33.4642 105.301 33.2277 105.065 33.0633 104.78C32.8989 104.495 32.8124 104.171 32.8125 103.842C32.8126 103.513 32.8993 103.19 33.0638 102.905L36.8138 96.4106C36.9369 96.1971 37.1008 96.01 37.2961 95.86C37.4915 95.7099 37.7145 95.5998 37.9525 95.536C38.1904 95.4722 38.4386 95.4558 38.6828 95.4879C38.9271 95.52 39.1626 95.5999 39.376 95.7231C39.5893 95.8462 39.7763 96.0102 39.9263 96.2057C40.0762 96.4011 40.1862 96.6242 40.2499 96.8622C40.3137 97.1001 40.3299 97.3483 40.2976 97.5925C40.2654 97.8368 40.1854 98.0723 40.0621 98.2856L36.3121 104.78C36.1475 105.066 35.9105 105.303 35.625 105.467C35.3395 105.632 35.0157 105.718 34.6861 105.718Z" fill="#54E346"/>
<path d="M60 112.5C59.7537 112.5 59.5099 112.452 59.2823 112.358C59.0548 112.263 58.848 112.125 58.6739 111.951C58.4997 111.777 58.3616 111.57 58.2674 111.343C58.1733 111.115 58.1249 110.871 58.125 110.625V103.125C58.125 102.628 58.3225 102.151 58.6742 101.799C59.0258 101.448 59.5027 101.25 60 101.25C60.4973 101.25 60.9742 101.448 61.3258 101.799C61.6775 102.151 61.875 102.628 61.875 103.125V110.625C61.8751 110.871 61.8267 111.115 61.7326 111.343C61.6384 111.57 61.5003 111.777 61.3261 111.951C61.152 112.125 60.9452 112.263 60.7177 112.358C60.4901 112.452 60.2463 112.5 60 112.5Z" fill="#54E346"/>
<path d="M85.3151 105.718C84.9856 105.718 84.6617 105.632 84.3762 105.467C84.0908 105.303 83.8537 105.066 83.6891 104.78L79.9391 98.2856C79.8159 98.0723 79.7358 97.8368 79.7036 97.5925C79.6714 97.3483 79.6876 97.1001 79.7513 96.8622C79.815 96.6242 79.925 96.4011 80.075 96.2057C80.2249 96.0102 80.4119 95.8462 80.6253 95.7231C80.8387 95.5999 81.0742 95.52 81.3184 95.4879C81.5627 95.4558 81.8109 95.4722 82.0488 95.536C82.2867 95.5998 82.5098 95.7099 82.7051 95.86C82.9005 96.01 83.0644 96.1971 83.1874 96.4106L86.9374 102.905C87.102 103.19 87.1887 103.513 87.1888 103.842C87.1888 104.171 87.1023 104.495 86.9379 104.78C86.7735 105.065 86.537 105.301 86.2522 105.466C85.9673 105.631 85.6441 105.718 85.3151 105.718Z" fill="#54E346"/>
<path d="M103.842 87.1875C103.513 87.1878 103.19 87.1013 102.906 86.9367L96.4113 83.1867C96.1979 83.0636 96.0108 82.8998 95.8607 82.7044C95.7107 82.509 95.6006 82.286 95.5367 82.0481C95.4729 81.8101 95.4565 81.5619 95.4886 81.3177C95.5207 81.0735 95.6007 80.8379 95.7238 80.6246C95.847 80.4112 96.011 80.2242 96.2064 80.0742C96.4018 79.9243 96.6249 79.8143 96.8629 79.7506C97.1009 79.6869 97.349 79.6707 97.5933 79.7029C97.8375 79.7351 98.073 79.8151 98.2863 79.9384L104.781 83.6884C105.139 83.8948 105.418 84.2135 105.576 84.5951C105.734 84.9767 105.762 85.3998 105.655 85.7987C105.548 86.1976 105.312 86.55 104.984 86.8011C104.656 87.0522 104.255 87.1881 103.842 87.1875Z" fill="#54E346"/>
<path d="M110.625 61.875H103.125C102.628 61.875 102.151 61.6775 101.799 61.3258C101.448 60.9742 101.25 60.4973 101.25 60C101.25 59.5027 101.448 59.0258 101.799 58.6742C102.151 58.3225 102.628 58.125 103.125 58.125H110.625C111.122 58.125 111.599 58.3225 111.951 58.6742C112.302 59.0258 112.5 59.5027 112.5 60C112.5 60.4973 112.302 60.9742 111.951 61.3258C111.599 61.6775 111.122 61.875 110.625 61.875Z" fill="#54E346"/>
<path d="M97.3501 40.3126C96.9371 40.3131 96.5355 40.1773 96.2076 39.9261C95.8797 39.675 95.6439 39.3226 95.5368 38.9237C95.4297 38.5248 95.4573 38.1017 95.6153 37.7201C95.7734 37.3385 96.053 37.0198 96.4108 36.8134L102.905 33.0634C103.336 32.8151 103.848 32.748 104.328 32.8768C104.808 33.0057 105.218 33.3199 105.466 33.7505C105.715 34.1812 105.782 34.6928 105.654 35.1731C105.525 35.6534 105.211 36.0629 104.78 36.3117L98.2858 40.0617C98.0014 40.2263 97.6787 40.3128 97.3501 40.3126Z" fill="#54E346"/>
<path d="M81.5611 24.5269C81.2321 24.5267 80.9089 24.4399 80.6241 24.2752C80.3392 24.1106 80.1027 23.8738 79.9383 23.5888C79.7739 23.3038 79.6874 22.9806 79.6875 22.6515C79.6876 22.3225 79.7743 21.9993 79.9388 21.7144L83.6888 15.2196C83.8119 15.0062 83.9758 14.8191 84.1711 14.6691C84.3665 14.519 84.5895 14.4089 84.8275 14.3451C85.0654 14.2812 85.3136 14.2649 85.5578 14.297C85.8021 14.3291 86.0376 14.409 86.251 14.5322C86.4643 14.6553 86.6513 14.8193 86.8013 15.0147C86.9512 15.2102 87.0612 15.4333 87.1249 15.6712C87.1887 15.9092 87.2049 16.1574 87.1727 16.4016C87.1404 16.6459 87.0604 16.8813 86.9371 17.0946L83.1871 23.5894C83.0225 23.8749 82.7855 24.1118 82.5 24.2765C82.2145 24.4411 81.8907 24.5274 81.5611 24.5269Z" fill="#54E346"/>
<path d="M85.182 47.25C85.1792 49.0092 84.4778 50.6953 83.232 51.9375L57.6008 77.5687C57.0596 78.1138 56.4161 78.5467 55.7074 78.8427C54.9986 79.1387 54.2384 79.292 53.4703 79.2937C52.7022 79.2955 51.9413 79.1456 51.2312 78.8529C50.5211 78.5601 49.8757 78.1301 49.332 77.5875L47.457 75.7125L36.6945 64.9687C35.4681 63.7241 34.7851 62.0441 34.795 60.2969C34.805 58.5496 35.5071 56.8775 36.7476 55.6469C37.9881 54.4164 39.6658 53.7277 41.4131 53.7318C43.1604 53.7359 44.8348 54.4324 46.0695 55.6687L51.6383 61.2187L53.5133 63.0937L73.9508 42.6562C75.0182 41.5755 76.4267 40.8972 77.9372 40.7366C79.4478 40.576 80.9674 40.9429 82.2383 41.775C82.6107 42.0192 82.9564 42.302 83.2695 42.6187C83.8783 43.2262 84.3607 43.9482 84.6889 44.7431C85.0172 45.538 85.1848 46.39 85.182 47.25Z" fill="#54B646"/>
<path d="M83.307 45.375C83.3042 47.1342 82.6028 48.8203 81.357 50.0625L55.7258 75.6937C55.1846 76.2388 54.5411 76.6717 53.8324 76.9677C53.1236 77.2637 52.3634 77.417 51.5953 77.4187C50.8272 77.4205 50.0663 77.2706 49.3562 76.9779C48.6461 76.6851 48.0007 76.2551 47.457 75.7125L36.6945 64.9687C35.4681 63.7241 34.7851 62.0441 34.795 60.2969C34.805 58.5496 35.5071 56.8775 36.7476 55.6469C37.9881 54.4164 39.6658 53.7277 41.4131 53.7318C43.1604 53.7359 44.8348 54.4324 46.0695 55.6687L51.6383 61.2187L53.5133 63.0937L73.9508 42.6562C75.0182 41.5755 76.4267 40.8972 77.9372 40.7366C79.4478 40.576 80.9674 40.9429 82.2383 41.775C82.9398 42.8442 83.3114 44.0961 83.307 45.375Z" fill="#54E346"/>
</svg>
