<svg width="39" height="38" viewBox="0 0 39 38" fill="none" xmlns="http://www.w3.org/2000/svg">
<g clip-path="url(#clip0_455_5122)">
<path d="M19.9043 38C30.3977 38 38.9043 29.4934 38.9043 19C38.9043 8.50659 30.3977 0 19.9043 0C9.41089 0 0.904297 8.50659 0.904297 19C0.904297 29.4934 9.41089 38 19.9043 38Z" fill="#6F3FAA"/>
<path d="M30.8792 12.8358V12.8077C30.6244 11.7757 29.9594 10.7091 29.0872 9.8109C28.0681 8.75726 26.7705 7.93033 25.5311 7.6626H25.5052C21.8094 6.95443 18.0127 6.95443 14.3168 7.6626H14.2909C11.9893 8.16135 9.49125 10.5666 8.93421 12.8077V12.8358C8.2498 15.9429 8.2498 19.1617 8.93421 22.2689V22.2948C9.33148 23.8925 10.7133 25.5723 12.3067 26.587C12.8271 26.9261 13.3935 27.1886 13.9886 27.3665V29.8667C13.9895 30.0665 14.0498 30.2615 14.1619 30.4269C14.274 30.5923 14.4328 30.7206 14.6181 30.7954C14.8034 30.8702 15.0067 30.8882 15.2022 30.847C15.3978 30.8058 15.5766 30.7073 15.7159 30.5641L18.2507 27.93C18.7991 27.9602 19.3518 27.9775 19.9002 27.9775C21.7775 27.9769 23.6506 27.7991 25.4944 27.4464H25.5203C27.8155 26.9454 30.3157 24.5402 30.8684 22.2991V22.2732C31.557 19.1655 31.5607 15.9451 30.8792 12.8358ZM28.8734 21.8068C28.502 23.2685 26.6064 25.0886 25.0972 25.4233C23.1369 25.7988 21.1419 25.9617 19.1467 25.9091C19.1273 25.9079 19.1078 25.9112 19.0899 25.9186C19.0719 25.9261 19.0559 25.9376 19.0431 25.9523L17.1927 27.8523L15.2236 29.871C15.1921 29.9043 15.1514 29.9274 15.1066 29.9372C15.0619 29.9471 15.0152 29.9433 14.9726 29.9263C14.93 29.9093 14.8935 29.8799 14.8678 29.842C14.8422 29.804 14.8285 29.7592 14.8285 29.7134V25.5679C14.8286 25.5346 14.8169 25.5023 14.7956 25.4767C14.7743 25.451 14.7447 25.4337 14.7119 25.4276C14.3971 25.3529 14.0937 25.2367 13.8094 25.0821C12.5269 24.3977 11.2336 22.9943 10.9357 21.8068C10.3185 18.9982 10.3185 16.0891 10.9357 13.2806C11.3049 11.8253 13.2114 10.0095 14.7098 9.67271C18.1411 9.01617 21.6658 9.01617 25.0972 9.67271C25.9284 9.8584 26.8784 10.491 27.6211 11.2683C28.2322 11.9009 28.7007 12.6307 28.8734 13.287C29.4896 16.0935 29.4896 19.0003 28.8734 21.8068Z" fill="white"/>
<path d="M25.1509 22.0227C24.8704 22.6628 24.3881 23.1936 23.7777 23.5341C23.5862 23.6153 23.3874 23.6782 23.184 23.7219C22.9529 23.6528 22.7327 23.6053 22.5362 23.5211C20.8995 22.8842 19.3759 21.9883 18.0237 20.8676C17.6221 20.525 17.2447 20.1549 16.8945 19.76C16.0297 18.764 15.3034 17.6557 14.7354 16.4652C14.4591 15.9017 14.2259 15.3187 13.9884 14.7379C13.7725 14.2089 14.092 13.6584 14.4202 13.2633C14.7414 12.8968 15.1366 12.6025 15.5796 12.3996C15.7356 12.3213 15.914 12.3 16.0839 12.3394C16.2539 12.3788 16.4047 12.4765 16.5102 12.6155C17.0619 13.2353 17.5481 13.9104 17.9611 14.63C18.0912 14.8392 18.1358 15.0905 18.0855 15.3317C18.0353 15.5729 17.8941 15.7856 17.6912 15.9254C17.5833 16.001 17.4753 16.0874 17.3825 16.1716C17.291 16.2393 17.212 16.3226 17.1493 16.4177C17.0952 16.5067 17.0623 16.6069 17.0533 16.7107C17.0444 16.8144 17.0595 16.9188 17.0975 17.0158C17.5142 18.1622 18.1468 19.1187 19.0925 19.7902C19.4125 20.0165 19.7573 20.2056 20.1202 20.3537C20.3572 20.4826 20.6234 20.548 20.8932 20.5437C21.3638 20.4876 21.5193 19.9672 21.8475 19.6995C21.9981 19.5762 22.1845 19.5047 22.379 19.4958C22.5735 19.4868 22.7657 19.5409 22.927 19.6499C23.2768 19.8658 23.6136 20.1097 23.9504 20.3472C24.2836 20.5746 24.6043 20.8197 24.9112 21.0813C25.0548 21.1856 25.1573 21.3368 25.2011 21.5087C25.2449 21.6807 25.2271 21.8625 25.1509 22.0227Z" fill="white"/>
<path d="M20.5244 11.6764H20.248C20.3366 11.672 20.4294 11.6764 20.5244 11.6764Z" fill="white"/>
<path d="M25.302 18.1472C25.0861 18.1472 24.9803 17.9636 24.9652 17.7628C24.9371 17.3677 24.9155 16.9705 24.8616 16.5775C24.7683 15.9145 24.5373 15.2784 24.1836 14.7099C23.8201 14.1177 23.3363 13.6084 22.7635 13.2149C22.1908 12.8214 21.5418 12.5525 20.8586 12.4256C20.5477 12.3694 20.2303 12.3565 19.9172 12.3241C19.7186 12.3025 19.4574 12.2896 19.4142 12.0434C19.4077 11.9956 19.4116 11.947 19.4254 11.9008C19.4392 11.8546 19.4628 11.8118 19.4945 11.7755C19.5261 11.7391 19.5652 11.7099 19.6091 11.6898C19.653 11.6698 19.7006 11.6593 19.7488 11.6591C19.8006 11.6561 19.8525 11.6561 19.9043 11.6591C20.848 11.6671 21.7753 11.9077 22.6038 12.3596C23.4323 12.8116 24.1366 13.4609 24.6543 14.25C25.063 14.8861 25.3404 15.5974 25.4704 16.3422C25.5525 16.8085 25.5827 17.2878 25.6194 17.7628C25.6268 17.8094 25.6242 17.857 25.6117 17.9025C25.5993 17.9479 25.5774 17.9902 25.5474 18.0266C25.5174 18.0629 25.48 18.0925 25.4377 18.1133C25.3954 18.134 25.3491 18.1456 25.302 18.1472Z" fill="white"/>
<path d="M24.1345 17.1389C24.1333 17.203 24.1246 17.2667 24.1086 17.3289C24.0898 17.3913 24.0521 17.4464 24.0008 17.4867C23.9496 17.5269 23.8871 17.5504 23.822 17.554C23.7569 17.5575 23.6923 17.5409 23.6369 17.5064C23.5816 17.4719 23.5382 17.4213 23.5127 17.3612C23.4889 17.2741 23.478 17.1839 23.4803 17.0935C23.4854 16.6106 23.3898 16.1319 23.1996 15.6879C23.1565 15.5929 23.109 15.4958 23.055 15.4029C22.7459 14.8702 22.2872 14.44 21.7358 14.1658C21.4031 14.0087 21.0498 13.8997 20.6865 13.8419C20.5267 13.816 20.3669 13.8009 20.2071 13.7793C20.1656 13.7772 20.1248 13.7666 20.0875 13.7482C20.0502 13.7297 20.017 13.7038 19.9901 13.672C19.9632 13.6403 19.9431 13.6033 19.931 13.5635C19.919 13.5236 19.9152 13.4817 19.92 13.4403C19.92 13.398 19.929 13.3562 19.9463 13.3176C19.9636 13.279 19.9889 13.2445 20.0205 13.2163C20.0521 13.1882 20.0893 13.1671 20.1297 13.1543C20.17 13.1416 20.2126 13.1375 20.2546 13.1424C20.8886 13.1668 21.5097 13.3289 22.0748 13.6174C22.7648 13.9646 23.3277 14.5207 23.6833 15.2065C23.8835 15.6069 24.0177 16.0371 24.0805 16.4803C24.0922 16.5381 24.1008 16.5965 24.1065 16.6552C24.1173 16.7848 24.1216 16.9143 24.1324 17.0741C24.1324 17.0892 24.1345 17.1086 24.1345 17.1389Z" fill="white"/>
<path d="M22.6555 16.8409C22.6433 16.8957 22.615 16.9455 22.5742 16.984C22.5334 17.0225 22.482 17.0478 22.4267 17.0568H22.3792C22.3084 17.0614 22.2381 17.0428 22.1789 17.0039C22.1197 16.9649 22.0748 16.9077 22.051 16.8409C22.0376 16.8055 22.0289 16.7685 22.0251 16.7308C22.0137 16.5855 21.9921 16.4412 21.9603 16.299C21.8961 16.0111 21.7325 15.755 21.4983 15.5757C21.385 15.4944 21.2587 15.433 21.1247 15.3943C20.9542 15.3447 20.775 15.3576 20.6066 15.3166C20.5233 15.3019 20.4493 15.2547 20.4008 15.1855C20.3522 15.1163 20.333 15.0307 20.3475 14.9474C20.3635 14.8676 20.4081 14.7964 20.4729 14.7471C20.5377 14.6979 20.6182 14.6739 20.6994 14.6797C21.6883 14.7509 22.4267 15.2259 22.6167 16.286C22.6362 16.3845 22.6499 16.484 22.6577 16.584C22.6698 16.6693 22.6691 16.7559 22.6555 16.8409Z" fill="white"/>
</g>
<defs>
<clipPath id="clip0_455_5122">
<rect width="38" height="38" fill="white" transform="translate(0.904297)"/>
</clipPath>
</defs>
</svg>
