<svg width="43" height="35" viewBox="0 0 43 35" fill="none" xmlns="http://www.w3.org/2000/svg">
<g clip-path="url(#clip0_331_2089)">
<path d="M42.8708 4.26102C41.2655 4.9723 39.5627 5.43912 37.8191 5.64595C39.6352 4.55744 41.0297 2.83373 41.6863 0.779948C39.9598 1.80442 38.0709 2.52626 36.1012 2.91428C34.4968 1.20497 32.2111 0.136719 29.6812 0.136719C24.8237 0.136719 20.8855 4.0748 20.8855 8.93193C20.8855 9.62138 20.9633 10.2926 21.1132 10.9365C13.8034 10.5696 7.32254 7.06806 2.98438 1.74672C2.22744 3.04574 1.79371 4.55677 1.79371 6.16844C1.79371 9.21997 3.3466 11.912 5.70651 13.4893C4.30976 13.4456 2.94374 13.0684 1.72254 12.3891C1.72209 12.4259 1.72192 12.4628 1.72203 12.4998C1.72203 16.7612 4.7538 20.3161 8.7773 21.1242C7.4821 21.4764 6.12354 21.5279 4.80538 21.2749C5.92455 24.7692 9.17285 27.312 13.0215 27.3831C10.0113 29.742 6.21878 31.1482 2.09816 31.1482C1.38811 31.1482 0.68811 31.1065 0 31.0253C3.89237 33.5209 8.51555 34.977 13.4825 34.977C29.6607 34.977 38.5074 21.5746 38.5074 9.95196C38.5074 9.57047 38.4989 9.19117 38.4819 8.81404C40.2037 7.56911 41.6899 6.02734 42.8708 4.26102Z" fill="#55ACEE"/>
</g>
<defs>
<clipPath id="clip0_331_2089">
<rect width="42.8708" height="35" fill="white"/>
</clipPath>
</defs>
</svg>
