<svg width="36" height="35" viewBox="0 0 36 35" fill="none" xmlns="http://www.w3.org/2000/svg">
<g clip-path="url(#clip0_331_2094)">
<path d="M27.668 0H9.07422C4.54376 0 0.871094 3.67266 0.871094 8.20312V26.7969C0.871094 31.3273 4.54376 35 9.07422 35H27.668C32.1984 35 35.8711 31.3273 35.8711 26.7969V8.20312C35.8711 3.67266 32.1984 0 27.668 0Z" fill="url(#paint0_radial_331_2094)"/>
<path d="M27.668 0H9.07422C4.54376 0 0.871094 3.67266 0.871094 8.20312V26.7969C0.871094 31.3273 4.54376 35 9.07422 35H27.668C32.1984 35 35.8711 31.3273 35.8711 26.7969V8.20312C35.8711 3.67266 32.1984 0 27.668 0Z" fill="url(#paint1_radial_331_2094)"/>
<path d="M18.3723 3.82812C14.6593 3.82812 14.1932 3.84439 12.735 3.9107C11.2795 3.97742 10.286 4.20779 9.4167 4.5459C8.51736 4.89508 7.75461 5.36225 6.99473 6.1224C6.23416 6.88242 5.76699 7.64518 5.41672 8.5441C5.07766 9.41363 4.84701 10.4076 4.78152 11.8624C4.71631 13.3208 4.69922 13.787 4.69922 17.5001C4.69922 21.2133 4.71563 21.6779 4.7818 23.1361C4.84879 24.5916 5.07916 25.5851 5.41699 26.4544C5.76645 27.3537 6.23361 28.1165 6.99377 28.8764C7.75352 29.6369 8.51627 30.1052 9.41492 30.4544C10.2849 30.7925 11.2785 31.0229 12.7338 31.0896C14.1921 31.1559 14.6578 31.1721 18.3707 31.1721C22.0841 31.1721 22.5487 31.1559 24.0069 31.0896C25.4624 31.0229 26.4571 30.7925 27.327 30.4544C28.2259 30.1052 28.9876 29.6369 29.7472 28.8764C30.5078 28.1165 30.9748 27.3537 31.3252 26.4548C31.6612 25.5851 31.892 24.5913 31.9604 23.1364C32.0259 21.6781 32.043 21.2133 32.043 17.5001C32.043 13.787 32.0259 13.3211 31.9604 11.8627C31.892 10.4072 31.6612 9.41377 31.3252 8.54451C30.9748 7.64518 30.5078 6.88242 29.7472 6.1224C28.9868 5.36197 28.2262 4.8948 27.3262 4.54604C26.4546 4.20779 25.4605 3.97729 24.005 3.9107C22.5466 3.84439 22.0823 3.82812 18.3681 3.82812H18.3723ZM17.1458 6.29193C17.5099 6.29139 17.9161 6.29193 18.3723 6.29193C22.0229 6.29193 22.4554 6.30506 23.897 6.37055C25.23 6.43152 25.9535 6.65424 26.4354 6.84141C27.0735 7.08914 27.5284 7.38541 28.0066 7.86406C28.4851 8.34258 28.7813 8.79826 29.0297 9.43633C29.2169 9.91758 29.4398 10.6411 29.5005 11.9741C29.566 13.4154 29.5803 13.8482 29.5803 17.497C29.5803 21.1457 29.566 21.5787 29.5005 23.0199C29.4396 24.3529 29.2169 25.0764 29.0297 25.5578C28.782 26.1959 28.4851 26.6502 28.0066 27.1284C27.5281 27.6069 27.0738 27.9031 26.4354 28.1509C25.9541 28.3389 25.23 28.5611 23.897 28.6221C22.4557 28.6876 22.0229 28.7018 18.3723 28.7018C14.7217 28.7018 14.2889 28.6876 12.8478 28.6221C11.5148 28.5605 10.7913 28.3378 10.3089 28.1507C9.671 27.9028 9.21518 27.6067 8.73666 27.1281C8.25814 26.6496 7.96201 26.195 7.71359 25.5567C7.52643 25.0753 7.30344 24.3518 7.24273 23.0188C7.17725 21.5775 7.16412 21.1446 7.16412 17.4936C7.16412 13.8425 7.17725 13.412 7.24273 11.9707C7.30371 10.6377 7.52643 9.91416 7.71359 9.43223C7.96146 8.79416 8.25814 8.33848 8.7368 7.85996C9.21545 7.38145 9.671 7.08518 10.3091 6.83689C10.791 6.64891 11.5148 6.42674 12.8478 6.36549C14.109 6.30848 14.5978 6.29139 17.1458 6.28852V6.29193ZM25.6704 8.56201C24.7646 8.56201 24.0297 9.29619 24.0297 10.2021C24.0297 11.1079 24.7646 11.8427 25.6704 11.8427C26.5761 11.8427 27.311 11.1079 27.311 10.2021C27.311 9.29633 26.5761 8.56146 25.6704 8.56146V8.56201ZM18.3723 10.4789C14.495 10.4789 11.3513 13.6227 11.3513 17.5001C11.3513 21.3776 14.495 24.5198 18.3723 24.5198C22.2498 24.5198 25.3924 21.3776 25.3924 17.5001C25.3924 13.6228 22.2495 10.4789 18.3721 10.4789H18.3723ZM18.3723 12.9428C20.8892 12.9428 22.9297 14.983 22.9297 17.5001C22.9297 20.017 20.8892 22.0575 18.3723 22.0575C15.8555 22.0575 13.8151 20.017 13.8151 17.5001C13.8151 14.983 15.8553 12.9428 18.3723 12.9428Z" fill="white"/>
</g>
<defs>
<radialGradient id="paint0_radial_331_2094" cx="0" cy="0" r="1" gradientUnits="userSpaceOnUse" gradientTransform="translate(10.168 37.6957) rotate(-90) scale(34.6876 32.2622)">
<stop stop-color="#FFDD55"/>
<stop offset="0.1" stop-color="#FFDD55"/>
<stop offset="0.5" stop-color="#FF543E"/>
<stop offset="1" stop-color="#C837AB"/>
</radialGradient>
<radialGradient id="paint1_radial_331_2094" cx="0" cy="0" r="1" gradientUnits="userSpaceOnUse" gradientTransform="translate(-4.99154 2.52123) rotate(78.681) scale(15.5055 63.9144)">
<stop stop-color="#3771C8"/>
<stop offset="0.128" stop-color="#3771C8"/>
<stop offset="1" stop-color="#6600FF" stop-opacity="0"/>
</radialGradient>
<clipPath id="clip0_331_2094">
<rect width="35" height="35" fill="white" transform="translate(0.871094)"/>
</clipPath>
</defs>
</svg>
