<svg width="39" height="38" viewBox="0 0 39 38" fill="none" xmlns="http://www.w3.org/2000/svg">
<g clip-path="url(#clip0_455_5118)">
<path d="M1.06412 18.837C1.06324 21.9971 1.89916 25.0828 3.48865 27.8026L0.912109 37.0953L10.5394 34.6017C13.2022 36.0336 16.1856 36.7839 19.2174 36.7842H19.2254C29.2339 36.7842 37.381 28.7393 37.3853 18.8511C37.3872 14.0596 35.4999 9.55394 32.0709 6.16414C28.6425 2.77463 24.0829 0.906972 19.2246 0.904785C9.21497 0.904785 1.0684 8.94922 1.06427 18.837" fill="url(#paint0_linear_455_5118)"/>
<path d="M0.160069 18.829C0.159022 22.1475 1.03671 25.3872 2.70532 28.2428L0 38L10.1084 35.3819C12.8936 36.8819 16.0295 37.6728 19.2204 37.674H19.2286C29.7375 37.674 38.2924 29.226 38.2969 18.844C38.2987 13.8126 36.3168 9.08124 32.7169 5.52207C29.1165 1.96334 24.3294 0.00206886 19.2286 0C8.71792 0 0.164258 8.44684 0.160069 18.829ZM6.18001 27.751L5.80257 27.1592C4.21595 24.6671 3.3785 21.7873 3.3797 18.8301C3.38299 10.2008 10.4924 3.18013 19.2346 3.18013C23.4682 3.1819 27.4469 4.81216 30.4394 7.77003C33.4318 10.7282 35.0784 14.6605 35.0774 18.8428C35.0735 27.4722 27.9639 34.4937 19.2286 34.4937H19.2223C16.378 34.4923 13.5885 33.7377 11.1558 32.3118L10.5768 31.9727L4.57827 33.5262L6.18001 27.751Z" fill="white"/>
<path d="M14.8985 10.835C14.5455 9.99577 14.1741 9.97884 13.8385 9.96412C13.5636 9.95146 13.2494 9.95241 12.9355 9.95241C12.6213 9.95241 12.1108 10.0789 11.6793 10.5829C11.2474 11.0875 10.0303 12.3067 10.0303 14.7865C10.0303 17.2664 11.7185 19.6631 11.9539 19.9997C12.1895 20.3357 15.2131 25.5875 20.0018 27.6079C23.9816 29.2869 24.7914 28.9529 25.6552 28.8688C26.5191 28.7849 28.4427 27.6498 28.8351 26.4728C29.2279 25.296 29.2279 24.2872 29.1101 24.0764C28.9924 23.8664 28.6782 23.7403 28.207 23.4883C27.7359 23.2363 25.4195 22.0168 24.9877 21.8485C24.5558 21.6805 24.2418 21.5966 23.9276 22.1013C23.6134 22.6052 22.7112 23.7403 22.4362 24.0764C22.1615 24.4133 21.8865 24.4553 21.4155 24.2032C20.9441 23.9503 19.4268 23.4187 17.6267 21.7017C16.2261 20.3656 15.2806 18.7157 15.0057 18.211C14.7309 17.7071 14.9763 17.434 15.2125 17.1828C15.4242 16.957 15.6838 16.5942 15.9196 16.3C16.1545 16.0056 16.2329 15.7956 16.39 15.4595C16.5473 15.123 16.4686 14.8286 16.351 14.5765C16.2329 14.3244 15.3174 11.8316 14.8985 10.835Z" fill="white"/>
</g>
<defs>
<linearGradient id="paint0_linear_455_5118" x1="1824.57" y1="3619.95" x2="1824.57" y2="0.904785" gradientUnits="userSpaceOnUse">
<stop stop-color="#1FAF38"/>
<stop offset="1" stop-color="#60D669"/>
</linearGradient>
<clipPath id="clip0_455_5118">
<rect width="38.9048" height="38" fill="white"/>
</clipPath>
</defs>
</svg>
