<svg width="36" height="35" viewBox="0 0 36 35" fill="none" xmlns="http://www.w3.org/2000/svg">
<g clip-path="url(#clip0_331_2091)">
<path d="M35.8711 17.5C35.8711 7.83508 28.036 0 18.3711 0C8.70617 0 0.871094 7.83508 0.871094 17.5C0.871094 26.2347 7.27062 33.4746 15.6367 34.7874V22.5586H11.1934V17.5H15.6367V13.6445C15.6367 9.25859 18.2494 6.83594 22.2468 6.83594C24.1614 6.83594 26.1641 7.17773 26.1641 7.17773V11.4844H23.9574C21.7835 11.4844 21.1055 12.8334 21.1055 14.2174V17.5H25.959L25.1831 22.5586H21.1055V34.7874C29.4716 33.4746 35.8711 26.2348 35.8711 17.5Z" fill="#1877F2"/>
<path d="M25.1831 22.5586L25.959 17.5H21.1055V14.2174C21.1055 12.8332 21.7835 11.4844 23.9574 11.4844H26.1641V7.17773C26.1641 7.17773 24.1614 6.83594 22.2467 6.83594C18.2494 6.83594 15.6367 9.25859 15.6367 13.6445V17.5H11.1934V22.5586H15.6367V34.7874C16.5413 34.9291 17.4555 35.0002 18.3711 35C19.2867 35.0002 20.2009 34.9291 21.1055 34.7874V22.5586H25.1831Z" fill="white"/>
</g>
<defs>
<clipPath id="clip0_331_2091">
<rect width="35" height="35" fill="white" transform="translate(0.871094)"/>
</clipPath>
</defs>
</svg>
