<svg width="51" height="58" viewBox="0 0 51 58" fill="none" xmlns="http://www.w3.org/2000/svg">
<path d="M50.4348 25.2174C50.4348 38.6035 36.4572 49.5535 26.4147 57.1014C25.7042 57.6355 24.7306 57.6355 24.02 57.1014C13.9776 49.5535 0 38.6035 0 25.2174C0 11.2902 11.2902 0 25.2174 0C39.1446 0 50.4348 11.2902 50.4348 25.2174Z" fill="#ED0311"/>
<path d="M45.3906 25.2179C45.3906 36.3596 36.3584 45.3918 25.2167 45.3918C14.075 45.3918 5.04279 36.3596 5.04279 25.2179C5.04279 14.0761 14.075 5.04395 25.2167 5.04395C36.3584 5.04395 45.3906 14.0761 45.3906 25.2179Z" fill="white"/>
<path d="M35.304 25.2149C35.304 30.7858 30.788 35.3018 25.2171 35.3018C19.6462 35.3018 15.1301 30.7858 15.1301 25.2149C15.1301 19.644 19.6462 15.1279 25.2171 15.1279C30.788 15.1279 35.304 19.644 35.304 25.2149Z" fill="#ED0311"/>
</svg>
