<svg width="38" height="38" viewBox="0 0 38 38" fill="none" xmlns="http://www.w3.org/2000/svg">
<path d="M21.7206 25.6264L31.7173 33.1939C31.3517 33.7596 30.9201 34.2814 30.4627 34.7921C29.826 35.5051 28.9942 35.914 28.0702 36.0407C27.2195 36.1599 26.3356 36.2388 25.4881 36.1343C22.7547 35.7843 20.2217 34.7921 17.875 33.3922C15.0471 31.7037 12.6035 29.6732 10.387 27.4662C8.17048 25.2592 6.12954 22.8243 4.42896 20.0036C3.01901 17.6629 2.01602 15.1342 1.65439 12.4024C1.54619 11.5553 1.62131 10.6711 1.73689 9.81986C1.85966 8.89536 2.26497 8.06186 2.97525 7.42213C3.48398 6.96255 4.00396 6.52864 4.56805 6.16064L12.1783 16.1248C11.8716 16.3972 11.5499 16.6601 11.2158 16.9341C10.8448 17.2385 10.7988 17.7913 11.1172 18.1505C13.01 20.286 17.5561 24.8127 19.6996 26.6961C20.0601 27.0129 20.6126 26.9647 20.9154 26.5924C21.188 26.2571 21.4496 25.9343 21.7206 25.6264Z" fill="#C3C9FB"/>
<path d="M31.1571 33.9702C30.9399 34.2524 30.7047 34.5238 30.4622 34.7916C29.8252 35.5046 28.9928 35.9135 28.07 36.0402C27.2195 36.1597 26.3365 36.2392 25.4896 36.1342C22.7536 35.7833 20.2203 34.7916 17.8751 33.3911C15.0487 31.7046 12.6022 29.6744 10.3873 27.4667C8.16887 25.259 6.12772 22.8234 4.43041 20.0042C3.01897 17.6628 2.01649 15.133 1.65458 12.4042C1.54604 11.5537 1.62202 10.6706 1.73781 9.82013C1.86085 8.89381 2.26622 8.06132 2.97554 7.42075C3.24697 7.17476 3.52565 6.93585 3.81152 6.71143C3.50753 7.19279 3.31933 7.73564 3.24335 8.31102C3.12751 9.16153 3.05515 10.0483 3.16374 10.8951C3.52565 13.6276 4.52813 16.1535 5.9359 18.4951C7.63683 21.318 9.67803 23.7499 11.8965 25.9576C14.1114 28.1652 16.5542 30.1955 19.3843 31.8855C21.7294 33.2824 24.2628 34.2777 26.9952 34.6251C27.842 34.7301 28.7287 34.6505 29.5792 34.5311C30.1473 34.4514 30.6829 34.2704 31.1571 33.9702Z" fill="#8693E2"/>
<path d="M9.30322 6.1027C10.6752 7.88609 12.0179 9.69149 13.3605 11.497C14.3905 12.8885 14.0415 14.3564 12.6469 15.6983C12.4932 15.8453 12.3395 15.9849 12.1783 16.1247L4.56805 6.16055C5.15046 5.77415 5.77698 5.45366 6.47341 5.24674C7.59878 4.91059 8.58599 5.16889 9.30322 6.1027Z" fill="#5B5476"/>
<path d="M12.823 15.52C12.7651 15.5816 12.7072 15.6394 12.6457 15.6974C12.4937 15.8458 12.3381 15.9833 12.1788 16.1245L4.56793 6.16116C5.15064 5.77398 5.77673 5.45555 6.47518 5.24561C7.30033 4.99946 8.0495 5.07191 8.67559 5.49884C8.41865 5.50609 8.15084 5.55309 7.87579 5.63279C7.86884 5.63489 7.8619 5.637 7.85496 5.63912C6.84024 5.94943 6.47073 7.20123 7.11472 8.04458L12.823 15.52Z" fill="#3F3B5B"/>
<path d="M31.7549 28.4586C29.9657 27.0943 28.1545 25.7594 26.3433 24.4245C24.9474 23.4005 23.4809 23.7557 22.1451 25.156C21.9987 25.3104 21.8597 25.4647 21.7206 25.6264L31.7173 33.194C32.1012 32.6099 32.419 31.9821 32.623 31.2848C32.9543 30.158 32.6918 29.1719 31.7549 28.4586Z" fill="#5B5476"/>
<path d="M32.3477 32.0446C32.1704 32.4499 31.9569 32.8299 31.718 33.1955L21.7222 25.628C21.8597 25.4652 21.9972 25.3096 22.1456 25.1576C23.1662 24.0864 24.2628 23.6267 25.3449 23.9271C24.8925 24.1479 24.4473 24.4916 24.0166 24.9439C24.0152 24.9455 24.0137 24.9471 24.0122 24.9486C23.7798 25.1928 23.8169 25.5866 24.0857 25.79L32.3477 32.0446Z" fill="#3F3B5B"/>
<path d="M10.4403 29.8027C10.3737 29.8027 10.3071 29.7784 10.2546 29.7292C9.89409 29.3912 9.53395 29.0431 9.17399 28.6845C9.06779 28.5787 9.06743 28.4068 9.17328 28.3006C9.27896 28.1943 9.45072 28.1941 9.5571 28.2998C9.91317 28.6545 10.2694 28.9989 10.626 29.3332C10.7352 29.4358 10.7409 29.6076 10.6382 29.7169C10.5849 29.7739 10.5126 29.8027 10.4403 29.8027Z" fill="#181818"/>
<path d="M17.1332 34.907C17.0859 34.907 17.0378 34.8946 16.9943 34.8686C15.1173 33.7478 13.3414 32.4535 11.5643 30.9115C11.4512 30.8133 11.4391 30.6419 11.5373 30.5287C11.6356 30.4154 11.8068 30.4031 11.9202 30.5016C13.6727 32.0223 15.4234 33.2984 17.2725 34.4025C17.4013 34.4793 17.4433 34.646 17.3665 34.7747C17.3156 34.8598 17.2255 34.907 17.1332 34.907Z" fill="#181818"/>
<path d="M26.3265 36.4539C26.0374 36.4539 25.7442 36.4393 25.4549 36.4036C22.8681 36.0725 20.2715 35.1378 17.736 33.6253C15.1341 32.0718 12.6676 30.1201 10.1954 27.6586C7.72372 25.1973 5.76134 22.7393 4.19656 20.1438C2.67313 17.6148 1.72737 15.0222 1.38526 12.438C1.26598 11.5033 1.36688 10.5284 1.46796 9.78341C1.60297 8.76635 2.06153 7.87979 2.79365 7.22039C3.41726 6.65713 3.91895 6.26005 4.41975 5.93332C4.53832 5.85565 4.69736 5.88286 4.78377 5.99587L12.394 15.96C12.4803 16.073 12.4647 16.2334 12.3585 16.3277C12.0613 16.5916 11.7504 16.8467 11.4279 17.1113L11.388 17.144C11.2654 17.2445 11.191 17.387 11.1784 17.5452C11.1659 17.7021 11.2162 17.8531 11.3203 17.9704C13.1959 20.0865 17.7551 24.6262 19.8788 26.4923C19.9967 26.5959 20.149 26.6448 20.3045 26.6324C20.4627 26.6191 20.6047 26.5441 20.7048 26.421L20.7412 26.3765C21.003 26.0545 21.2556 25.744 21.5169 25.447C21.6109 25.3404 21.7714 25.3241 21.8845 25.41L31.881 32.9776C31.9943 33.0633 32.0222 33.2219 31.9452 33.3412C31.6206 33.8439 31.2256 34.3472 30.6647 34.9733C30.0088 35.7079 29.1242 36.1701 28.1072 36.3096C27.5938 36.3816 26.9704 36.4539 26.3265 36.4539ZM4.50739 6.52857C4.09742 6.81316 3.67155 7.15899 3.15732 7.62356C2.52204 8.19566 2.12391 8.96745 2.00605 9.85569C1.90921 10.5685 1.81255 11.4974 1.9237 12.368C2.25556 14.8766 3.17676 17.399 4.66149 19.8636C6.20312 22.4205 8.13864 24.8443 10.5785 27.2739C13.0187 29.7037 15.4509 31.6288 18.0141 33.1591C20.4851 34.6332 23.0114 35.5436 25.5226 35.865C26.3922 35.9723 27.3208 35.8717 28.0326 35.7719C28.9209 35.6501 29.6909 35.2488 30.2601 34.6114C30.7227 34.095 31.0668 33.6676 31.3497 33.2561L21.7594 25.9961C21.5604 26.2295 21.3641 26.4708 21.1623 26.7191L21.126 26.7636C20.9318 27.0022 20.6563 27.1477 20.3497 27.1733C20.0446 27.1996 19.7498 27.1017 19.5204 26.9001C17.3849 25.0235 12.8001 20.4584 10.9141 18.3305C10.7112 18.1017 10.6129 17.8075 10.6373 17.5022C10.6617 17.1955 10.8061 16.9193 11.0438 16.7243L11.0837 16.6916C11.3325 16.4874 11.5744 16.289 11.8084 16.0876L4.50739 6.52857Z" fill="#181818"/>
<path d="M12.1783 16.3963C12.1691 16.3963 12.1599 16.3958 12.1505 16.3949C12.0761 16.3873 12.0081 16.3491 11.9625 16.2896L4.35225 6.32549C4.30666 6.26576 4.28792 6.18986 4.30029 6.11573C4.31284 6.04169 4.35543 5.97604 4.41798 5.93451C5.07977 5.49556 5.72688 5.18552 6.39627 4.98672C7.66806 4.60644 8.74865 4.93486 9.5184 5.93752C10.8916 7.72257 12.2576 9.55913 13.5783 11.3352C14.6499 12.783 14.3859 14.4018 12.8351 15.8941C12.6775 16.0447 12.5205 16.1873 12.356 16.3299C12.3066 16.3729 12.2433 16.3963 12.1783 16.3963ZM4.96278 6.23042L12.2168 15.7281C12.2984 15.6542 12.3788 15.5792 12.4592 15.5023C13.399 14.5981 14.2809 13.1967 13.1422 11.6586C11.8231 9.88472 10.4587 8.04992 9.08811 6.26832C9.08793 6.26823 9.08811 6.26841 9.08811 6.26832C8.45849 5.44847 7.60479 5.19197 6.55124 5.50696C6.01581 5.666 5.4938 5.9035 4.96278 6.23042Z" fill="#181818"/>
<path d="M31.7172 33.4656C31.6585 33.4656 31.6009 33.4465 31.5534 33.4106L21.5568 25.843C21.4971 25.7978 21.4588 25.7299 21.4508 25.6554C21.4429 25.5809 21.466 25.5065 21.5148 25.4496C21.6569 25.2845 21.7988 25.1271 21.9481 24.9695C23.434 23.4118 25.0518 23.1408 26.5039 24.2058C28.28 25.5148 30.1164 26.8682 31.9192 28.2429C32.9249 29.0084 33.2583 30.0868 32.8833 31.3615C32.6872 32.032 32.3799 32.6803 31.9439 33.3433C31.9028 33.4061 31.8374 33.4489 31.7633 33.4616C31.748 33.4643 31.7326 33.4656 31.7172 33.4656ZM22.1174 25.5864L31.6458 32.7998C31.9703 32.2678 32.2055 31.7449 32.3624 31.2087C32.6729 30.1534 32.4131 29.3011 31.5905 28.6748C29.7911 27.3026 27.9563 25.9506 26.1823 24.6431C24.6398 23.5116 23.2421 24.3994 22.3414 25.3435C22.2653 25.424 22.1909 25.5046 22.1174 25.5864Z" fill="#181818"/>
<path d="M36.3975 3.60164V15.7797C36.3975 16.764 35.5977 17.564 34.6133 17.564H24.1688L22.6017 20.412C22.4388 20.7052 22.019 20.7052 21.8562 20.412L20.2891 17.564H18.8306C17.8462 17.564 17.0464 16.764 17.0464 15.7797V3.60164C17.0464 2.61347 17.8462 1.81738 18.8306 1.81738H34.6133C35.5977 1.81738 36.3975 2.61347 36.3975 3.60164Z" fill="#F56691"/>
<path d="M36.3975 12.3199V15.7797C36.3975 16.764 35.5977 17.564 34.6133 17.564H24.1688L22.6017 20.412C22.4388 20.7052 22.019 20.7052 21.8562 20.412L20.2891 17.564H18.8306C17.8462 17.564 17.0464 16.764 17.0464 15.7797V3.60164C17.0464 2.61347 17.8462 1.81738 18.8306 1.81738H23.4558C21.4002 3.01884 20.1263 4.69089 20.1263 6.53663C20.1263 10.1992 25.1278 13.1667 31.3019 13.1667C33.2851 13.1667 34.7834 12.8592 36.3975 12.3199Z" fill="#F76189"/>
<path d="M22.2289 20.9033C21.9719 20.9032 21.7438 20.7688 21.6189 20.5437L20.1287 17.8353H18.8305C17.6971 17.8353 16.775 16.9132 16.775 15.7796V3.60158C16.775 2.46807 17.6971 1.5459 18.8305 1.5459H34.6133C35.7468 1.5459 36.6688 2.46807 36.6688 3.60158V15.7796C36.6688 16.9132 35.7468 17.8353 34.6133 17.8353H24.3293L22.8396 20.5428C22.7139 20.7689 22.4858 20.9032 22.2289 20.9033ZM18.8305 2.08876C17.9965 2.08876 17.3179 2.76742 17.3179 3.60158V15.7796C17.3179 16.6138 17.9965 17.2925 18.8305 17.2925H20.2891C20.3881 17.2925 20.4792 17.3464 20.527 17.433L22.094 20.2811C22.1336 20.3526 22.2015 20.3604 22.2289 20.3604C22.2563 20.3604 22.3241 20.3526 22.3644 20.2801L23.9309 17.433C23.9787 17.3464 24.0698 17.2925 24.1688 17.2925H34.6133C35.4474 17.2925 36.126 16.6138 36.126 15.7796V3.60158C36.126 2.76742 35.4474 2.08876 34.6133 2.08876H18.8305Z" fill="#181818"/>
<path d="M31.316 9.78693V14.5833C31.316 14.9 31.0612 15.1547 30.7446 15.1547H22.6984C22.384 15.1547 22.127 14.9 22.127 14.5833V9.78693L26.7215 5.15576L31.316 9.78693Z" fill="white"/>
<path d="M31.316 9.78692V14.5833C31.316 14.9 31.0612 15.1547 30.7446 15.1547H22.6984C22.384 15.1547 22.127 14.9 22.127 14.5833V13.2889C22.8338 13.7112 23.6348 13.9476 24.4816 13.9476C27.3411 13.9476 29.659 11.9534 29.659 8.64179C29.659 8.45588 29.6521 8.27457 29.6361 8.09326L31.316 9.78692Z" fill="#DDDDDD"/>
<path d="M30.7453 15.4257H22.6988C22.2342 15.4257 21.8564 15.0478 21.8564 14.5834V9.78715C21.8564 9.71558 21.8847 9.64684 21.935 9.59603L26.5292 4.96434C26.6313 4.8615 26.8126 4.8615 26.9147 4.96434L31.5089 9.59603C31.5593 9.64684 31.5875 9.71558 31.5875 9.78715V14.5834C31.5875 15.0478 31.2097 15.4257 30.7453 15.4257ZM22.3992 9.89892V14.5834C22.3992 14.7485 22.5335 14.8829 22.6988 14.8829H30.7453C30.9104 14.8829 31.0447 14.7485 31.0447 14.5834V9.89892L26.722 5.54086L22.3992 9.89892Z" fill="#181818"/>
<path d="M31.8374 10.0557C31.6898 10.0557 31.5422 9.99912 31.43 9.886L26.722 5.13953L22.014 9.886C21.7907 10.111 21.4275 10.1124 21.2025 9.8893C20.9776 9.6662 20.9762 9.3029 21.1993 9.07794L26.3147 3.92077C26.53 3.70349 26.9139 3.70349 27.1293 3.92077L32.2447 9.07794C32.4678 9.3029 32.4663 9.6662 32.2414 9.8893C32.1295 10.0003 31.9834 10.0557 31.8374 10.0557Z" fill="#3F3B5B"/>
<path d="M32.273 9.85329C32.2661 9.84186 32.2546 9.83268 32.2455 9.82113L27.13 4.66441C26.9143 4.44635 26.531 4.44635 26.3153 4.66441L21.1998 9.82113C21.1906 9.83268 21.1791 9.84186 21.1699 9.85329C20.9772 9.62615 20.9887 9.2911 21.1998 9.07762L26.3153 3.92079C26.531 3.70284 26.9143 3.70284 27.13 3.92079L32.2455 9.07762C32.4566 9.2911 32.4658 9.62615 32.273 9.85329Z" fill="#3F3B5B"/>
<path d="M31.8374 10.3269C31.61 10.3269 31.3969 10.2381 31.2371 10.0767L26.722 5.52472L22.2068 10.0769C21.8785 10.4078 21.3423 10.41 21.0114 10.0818C20.6806 9.75378 20.6784 9.21764 21.0064 8.88666L26.1219 3.72951C26.4283 3.42027 27.0157 3.42018 27.3221 3.7296L32.4375 8.88666C32.7655 9.21764 32.7634 9.75378 32.4326 10.0818C32.2732 10.2399 32.0618 10.3269 31.8374 10.3269ZM26.722 4.86789C26.7944 4.86789 26.8637 4.89678 26.9148 4.9482L31.6229 9.69467C31.7365 9.80944 31.9357 9.81033 32.0502 9.69644C32.1686 9.5791 32.1693 9.38728 32.0519 9.26888L26.9365 4.11174C26.8322 4.0066 26.6117 4.00669 26.5074 4.11165L21.392 9.26888C21.2747 9.38728 21.2754 9.5791 21.3938 9.69644C21.5116 9.81368 21.7035 9.81298 21.8214 9.69458L26.5292 4.9482C26.5802 4.89678 26.6495 4.86789 26.722 4.86789Z" fill="#181818"/>
<path d="M28.4691 11.568V15.1545H24.9767V11.568C24.9767 11.246 25.2373 10.9854 25.5558 10.9854H27.8864C28.2086 10.9854 28.4691 11.246 28.4691 11.568Z" fill="#5B5476"/>
<path d="M28.4691 12.1797V15.1544H24.9767V13.9275C26.3809 13.8083 27.6186 13.2002 28.4691 12.1797Z" fill="#3F3B5B"/>
<path d="M28.4691 15.4259H24.9766C24.8267 15.4259 24.7051 15.3044 24.7051 15.1544V11.5679C24.7051 11.097 25.0867 10.7139 25.5557 10.7139H27.8863C28.3572 10.7139 28.7405 11.097 28.7405 11.5679V15.1544C28.7405 15.3044 28.6189 15.4259 28.4691 15.4259ZM25.248 14.883H28.1977V11.5679C28.1977 11.3963 28.0581 11.2567 27.8863 11.2567H25.5557C25.386 11.2567 25.248 11.3963 25.248 11.5679V14.883Z" fill="#181818"/>
<path d="M26.7216 9.38647C27.2713 9.38647 27.7169 8.94089 27.7169 8.39123C27.7169 7.84158 27.2713 7.396 26.7216 7.396C26.172 7.396 25.7264 7.84158 25.7264 8.39123C25.7264 8.94089 26.172 9.38647 26.7216 9.38647Z" fill="#FFD9B0"/>
<path d="M27.7163 8.39059C27.7163 8.94069 27.2712 9.38583 26.7211 9.38583C26.2651 9.38583 25.8779 9.07817 25.7621 8.65831C25.9068 8.74171 26.0805 8.79225 26.2615 8.79225C26.8116 8.79225 27.2567 8.34712 27.2567 7.79701C27.2567 7.703 27.2422 7.61253 27.2206 7.5293C27.5173 7.703 27.7163 8.02144 27.7163 8.39059Z" fill="#EDB57E"/>
<path d="M26.7214 9.65833C26.0231 9.65833 25.4548 9.09012 25.4548 8.39167C25.4548 7.69322 26.0231 7.125 26.7214 7.125C27.4198 7.125 27.9881 7.69322 27.9881 8.39167C27.9881 9.09012 27.4198 9.65833 26.7214 9.65833ZM26.7214 7.66786C26.3222 7.66786 25.9976 7.99256 25.9976 8.39167C25.9976 8.79077 26.3222 9.11548 26.7214 9.11548C27.1206 9.11548 27.4452 8.79077 27.4452 8.39167C27.4452 7.99256 27.1206 7.66786 26.7214 7.66786Z" fill="#181818"/>
<path d="M34.3527 19.2294H29.6932C29.5433 19.2294 29.4218 19.1079 29.4218 18.958C29.4218 18.808 29.5433 18.6865 29.6932 18.6865H34.3527C34.5026 18.6865 34.6241 18.808 34.6241 18.958C34.6241 19.1079 34.5026 19.2294 34.3527 19.2294Z" fill="#181818"/>
<path d="M28.6075 19.2294H28.1099C27.96 19.2294 27.8384 19.1079 27.8384 18.958C27.8384 18.808 27.96 18.6865 28.1099 18.6865H28.6075C28.7573 18.6865 28.8789 18.808 28.8789 18.958C28.8789 19.1079 28.7573 19.2294 28.6075 19.2294Z" fill="#181818"/>
<path d="M2.92926 32.2717C3.53378 32.1489 4.07251 31.8467 4.49151 31.4276C4.9105 31.0087 5.2098 30.4699 5.33248 29.8654C5.34747 29.7936 5.44321 29.7936 5.4582 29.8654C5.58092 30.4699 5.88018 31.0087 6.29917 31.4276C6.71821 31.8467 7.2569 32.1489 7.86147 32.2717C7.9333 32.2866 7.9333 32.3824 7.86147 32.3973C6.65535 32.6458 5.70659 33.5975 5.4582 34.8036C5.44321 34.8754 5.34747 34.8754 5.33248 34.8036C5.2098 34.1991 4.9105 33.6603 4.48852 33.2413C4.07251 32.8223 3.53378 32.5201 2.92926 32.3973" fill="#F56691"/>
<path d="M7.8627 32.3961C6.65404 32.6443 5.70583 33.5966 5.45757 34.8053C5.44132 34.8744 5.34775 34.8744 5.33144 34.8053C5.21342 34.2274 4.9408 33.7105 4.55011 33.3036C5.4861 33.1327 6.19823 32.3351 6.23894 31.3584C6.2552 31.3828 6.27966 31.4072 6.29999 31.4276C6.71916 31.8467 7.25631 32.1479 7.8627 32.2699C7.93185 32.2862 7.93185 32.3839 7.8627 32.3961Z" fill="#F76189"/>
<path d="M5.39534 35.1289C5.23506 35.1289 5.10006 35.018 5.06684 34.8591C4.95674 34.317 4.69079 33.8248 4.29726 33.434C3.90478 33.0387 3.41352 32.7726 2.87509 32.6634C2.72824 32.6335 2.63334 32.4903 2.66321 32.3434C2.66374 32.3404 2.66445 32.3375 2.66515 32.3345C2.66445 32.3315 2.66374 32.3286 2.66321 32.3256C2.63334 32.1787 2.72824 32.0355 2.87509 32.0056C3.41246 31.8966 3.90496 31.6304 4.29955 31.2358C4.69185 30.8435 4.95692 30.351 5.06648 29.8114C5.09988 29.6509 5.23506 29.54 5.39534 29.54C5.5558 29.5402 5.69098 29.6515 5.72385 29.8104C5.83376 30.3511 6.09901 30.8437 6.49095 31.2358C6.88573 31.6304 7.3784 31.8967 7.91542 32.0056C8.07552 32.0389 8.18667 32.1739 8.18667 32.3343C8.18685 32.4947 8.07588 32.6298 7.91684 32.6631C6.81221 32.8906 5.95181 33.7521 5.72385 34.8583C5.69098 35.0175 5.5558 35.1287 5.39534 35.1289C5.39552 35.1289 5.39516 35.1289 5.39534 35.1289ZM3.63247 32.3345C4.02123 32.5018 4.37678 32.7436 4.68107 33.0501C4.98679 33.3536 5.22835 33.7095 5.39569 34.0996C5.73533 33.3067 6.3669 32.6744 7.15874 32.3347C6.77033 32.1676 6.41373 31.9261 6.10713 31.6197C5.80266 31.3151 5.56216 30.9595 5.39534 30.5705C5.2287 30.9591 4.9882 31.3148 4.68337 31.6196C4.37713 31.9259 4.02106 32.1673 3.63247 32.3345Z" fill="#181818"/>
<path d="M33.3117 25.5389C32.5992 25.5389 32.0229 24.9627 32.0229 24.2502C32.0229 23.5402 32.5992 22.9639 33.3117 22.9639C34.0217 22.9639 34.598 23.5402 34.598 24.2502C34.598 24.9627 34.0217 25.5389 33.3117 25.5389Z" fill="#AFF2B6"/>
<path d="M33.312 25.5384C32.7556 25.5384 32.2782 25.1827 32.0988 24.6871C32.2934 24.8057 32.5245 24.8756 32.7708 24.8756C33.4823 24.8756 34.06 24.2979 34.06 23.5864C34.06 23.4375 34.0357 23.2915 33.987 23.1577C34.3519 23.3827 34.5982 23.7871 34.5982 24.2493C34.5982 24.9608 34.0205 25.5384 33.312 25.5384Z" fill="#7FD685"/>
<path d="M33.3117 25.8103C32.4515 25.8103 31.7515 25.1104 31.7515 24.2501C31.7515 23.3912 32.4515 22.6924 33.3117 22.6924C34.1707 22.6924 34.8694 23.3912 34.8694 24.2501C34.8694 25.1104 34.1707 25.8103 33.3117 25.8103ZM33.3117 23.2352C32.7508 23.2352 32.2944 23.6905 32.2944 24.2501C32.2944 24.8111 32.7508 25.2674 33.3117 25.2674C33.8714 25.2674 34.3266 24.8111 34.3266 24.2501C34.3266 23.6905 33.8714 23.2352 33.3117 23.2352Z" fill="#181818"/>
<path d="M11.899 5.04478C11.1865 5.04478 10.6102 4.46852 10.6102 3.75603C10.6102 3.04602 11.1865 2.46973 11.899 2.46973C12.609 2.46973 13.1853 3.04602 13.1853 3.75603C13.1853 4.46852 12.609 5.04478 11.899 5.04478Z" fill="#DABCBC"/>
<path d="M11.8993 5.0448C11.3429 5.0448 10.8655 4.68906 10.6861 4.19347C10.8807 4.31204 11.1118 4.38197 11.3581 4.38197C12.0695 4.38197 12.6473 3.80427 12.6473 3.09276C12.6473 2.9438 12.623 2.79784 12.5743 2.66406C12.9392 2.88905 13.1854 3.29343 13.1854 3.75563C13.1854 4.4671 12.6077 5.0448 11.8993 5.0448Z" fill="#BC9595"/>
<path d="M11.8991 5.31622C11.0388 5.31622 10.3389 4.61636 10.3389 3.75604C10.3389 2.89705 11.0388 2.19824 11.8991 2.19824C12.758 2.19824 13.4568 2.89705 13.4568 3.75604C13.4568 4.61636 12.758 5.31622 11.8991 5.31622ZM11.8991 2.7411C11.3382 2.7411 10.8817 3.1964 10.8817 3.75604C10.8817 4.31701 11.3382 4.77337 11.8991 4.77337C12.4587 4.77337 12.9139 4.31701 12.9139 3.75604C12.9139 3.1964 12.4587 2.7411 11.8991 2.7411Z" fill="#181818"/>
</svg>
