<svg width="36" height="36" viewBox="0 0 36 36" fill="none" xmlns="http://www.w3.org/2000/svg">
<path d="M35.3709 35.3773H0.628057C0.478206 35.3773 0.356628 35.2558 0.356628 35.1059C0.356628 34.956 0.478206 34.8345 0.628057 34.8345H35.3709C35.5208 34.8345 35.6423 34.956 35.6423 35.1059C35.6423 35.2558 35.5208 35.3773 35.3709 35.3773Z" fill="#181818"/>
<path d="M27.3995 5.49463C27.353 5.49463 27.3062 5.4827 27.2632 5.45778L23.2377 3.11697C23.1082 3.04161 23.0642 2.87541 23.1395 2.74588C23.2149 2.61609 23.3812 2.57244 23.5106 2.64763L27.5361 4.98844C27.6656 5.0638 27.7096 5.23 27.6343 5.35953C27.584 5.44621 27.493 5.49463 27.3995 5.49463Z" fill="#181818"/>
<path d="M22.4521 2.61786C22.4056 2.61786 22.3588 2.60593 22.3158 2.58101L21.826 2.29615C21.6965 2.22079 21.6525 2.05459 21.7277 1.92506C21.803 1.79518 21.9695 1.75171 22.0988 1.82681L22.5887 2.11167C22.7182 2.18704 22.7622 2.35323 22.6869 2.48276C22.6366 2.56944 22.5456 2.61786 22.4521 2.61786Z" fill="#181818"/>
<path d="M28.6578 17.81V9.98559L18 4.3125L7.34229 9.98559V17.81H28.6578Z" fill="#ABECEF"/>
<path d="M28.6566 9.9859V12.1133L17.9992 6.44163L7.34186 12.1133V9.9859L17.9992 4.31445L28.6566 9.9859Z" fill="#75C5C9"/>
<path d="M28.6579 18.0818H7.34223C7.19238 18.0818 7.0708 17.9603 7.0708 17.8104V9.98598C7.0708 9.8857 7.12611 9.79355 7.21464 9.74636L17.8725 4.07331C17.9523 4.0309 18.0478 4.0309 18.1276 4.07331L28.7854 9.74636C28.874 9.79355 28.9293 9.8857 28.9293 9.98598V17.8104C28.9293 17.9603 28.8077 18.0818 28.6579 18.0818ZM7.61366 17.539H28.3864V10.149L18 4.62041L7.61366 10.149V17.539Z" fill="#181818"/>
<path d="M31.2277 35.1053V19.5461L18.0001 12.584L4.77252 19.5461V35.1053H31.2277Z" fill="#ABECEF"/>
<path d="M31.2273 19.5448V35.1044H4.77136V29.6676C7.05428 31.9279 10.3997 33.351 14.1282 33.351C21.0031 33.351 26.579 28.5036 26.579 22.526C26.579 19.8715 25.4826 17.4421 23.6578 15.561L31.2273 19.5448Z" fill="#75C5C9"/>
<path d="M17.8053 21.5634C19.4569 21.5634 20.7957 20.2245 20.7957 18.5729C20.7957 16.9214 19.4569 15.5825 17.8053 15.5825C16.1537 15.5825 14.8149 16.9214 14.8149 18.5729C14.8149 20.2245 16.1537 21.5634 17.8053 21.5634Z" fill="white"/>
<path d="M20.7966 18.5724C20.7966 20.2246 19.4561 21.565 17.804 21.565C16.4936 21.565 15.3823 20.7202 14.9805 19.5486C15.3785 19.7477 15.829 19.8566 16.3021 19.8566C17.9542 19.8566 19.2947 18.5161 19.2947 16.8679C19.2947 16.5261 19.2384 16.1994 19.1332 15.8916C20.1207 16.3835 20.7966 17.3972 20.7966 18.5724Z" fill="#DDDDDD"/>
<path d="M28.8198 25.6043V31.7242C28.8198 32.3294 28.3192 32.8226 27.7139 32.8226H20.9664C20.3611 32.8226 19.8754 32.3294 19.8754 31.7242V25.6043C19.8754 24.9991 20.3611 24.5059 20.9664 24.5059H27.7139C28.3192 24.5059 28.8198 24.9991 28.8198 25.6043Z" fill="white"/>
<path d="M28.8186 29.3149V31.7255C28.8186 32.3299 28.3154 32.8218 27.711 32.8218H20.9636C20.3591 32.8218 19.8748 32.3299 19.8748 31.7255V29.4689C20.9937 30.1071 22.5294 30.5052 24.219 30.5052C26.0438 30.5052 27.6809 30.0472 28.8186 29.3149Z" fill="#DDDDDD"/>
<path d="M16.8178 26.2367V35.1074H7.55151V26.2367C7.55151 25.2799 8.32851 24.5029 9.28533 24.5029H15.084C16.0408 24.5029 16.8178 25.2799 16.8178 26.2367Z" fill="#DABCBC"/>
<path d="M16.8166 26.2358V35.1082H7.54987V32.7166C8.3158 33.5088 9.29208 33.9781 10.3547 33.9781C12.8177 33.9781 14.8153 31.4473 14.8153 28.3234C14.8153 26.8516 14.3723 25.5149 13.6438 24.5049H15.0856C16.0393 24.5049 16.8166 25.2784 16.8166 26.2358Z" fill="#BC9595"/>
<path d="M31.2277 35.3771H4.77247C4.62261 35.3771 4.50104 35.2556 4.50104 35.1057V19.5465C4.50104 19.4457 4.55688 19.3533 4.64612 19.3063L17.8737 12.3443C17.9528 12.3026 18.0472 12.3026 18.1264 12.3443L31.3541 19.3063C31.4433 19.3533 31.4992 19.4457 31.4992 19.5465V35.1057C31.4992 35.2556 31.3776 35.3771 31.2277 35.3771ZM5.04389 34.8342H30.9563V19.7104L18 12.8912L5.04389 19.7104V34.8342Z" fill="#181818"/>
<path d="M17.8053 21.8346C16.0066 21.8346 14.5432 20.3712 14.5432 18.5725C14.5432 16.7739 16.0066 15.3105 17.8053 15.3105C19.6039 15.3105 21.0672 16.7739 21.0672 18.5725C21.0672 20.3712 19.6039 21.8346 17.8053 21.8346ZM17.8053 15.8534C16.3059 15.8534 15.0861 17.0732 15.0861 18.5725C15.0861 20.0719 16.3059 21.2917 17.8053 21.2917C19.3045 21.2917 20.5244 20.0719 20.5244 18.5725C20.5244 17.0732 19.3045 15.8534 17.8053 15.8534Z" fill="#181818"/>
<path d="M27.7141 33.0939H20.9663C20.2151 33.0939 19.6041 32.4794 19.6041 31.7241V25.6042C19.6041 24.8489 20.2151 24.2344 20.9663 24.2344H27.7141C28.4736 24.2344 29.0913 24.8489 29.0913 25.6042V31.7241C29.0913 32.4794 28.4736 33.0939 27.7141 33.0939ZM20.9663 24.7772C20.5145 24.7772 20.1469 25.1482 20.1469 25.6042V31.7241C20.1469 32.1801 20.5145 32.551 20.9663 32.551H27.7141C28.1742 32.551 28.5485 32.1801 28.5485 31.7241V25.6042C28.5485 25.1482 28.1742 24.7772 27.7141 24.7772H20.9663Z" fill="#181818"/>
<path d="M24.3466 33.0909C24.1968 33.0909 24.0752 32.9694 24.0752 32.8194V24.5029C24.0752 24.3529 24.1968 24.2314 24.3466 24.2314C24.4965 24.2314 24.6181 24.3529 24.6181 24.5029V32.8194C24.6181 32.9694 24.4965 33.0909 24.3466 33.0909Z" fill="#181818"/>
<path d="M28.818 28.933H19.8755C19.7256 28.933 19.6041 28.8115 19.6041 28.6616C19.6041 28.5116 19.7256 28.3901 19.8755 28.3901H28.818C28.9678 28.3901 29.0894 28.5116 29.0894 28.6616C29.0894 28.8115 28.9678 28.933 28.818 28.933Z" fill="#181818"/>
<path d="M16.8179 35.3787H7.55164C7.40179 35.3787 7.28021 35.2573 7.28021 35.1073V26.2367C7.28021 25.131 8.17967 24.2314 9.28536 24.2314H15.084C16.1896 24.2314 17.0893 25.131 17.0893 26.2367V35.1073C17.0893 35.2573 16.9677 35.3787 16.8179 35.3787ZM7.82307 34.8359H16.5464V26.2367C16.5464 25.4303 15.8903 24.7743 15.084 24.7743H9.28536C8.47902 24.7743 7.82307 25.4303 7.82307 26.2367V34.8359Z" fill="#181818"/>
<path d="M31.5728 20.5544C31.3532 20.5544 31.1307 20.5071 30.92 20.4058L17.9999 12.8264L5.07973 20.4058C4.32711 20.7673 3.4222 20.4487 3.06068 19.6938C2.69916 18.9397 3.0178 18.0356 3.77263 17.6748L17.3463 9.7819C17.7589 9.58377 18.2409 9.58377 18.6534 9.7819L32.2271 17.6748C32.9819 18.0356 33.3006 18.9397 32.9391 19.6938C32.6788 20.2372 32.1369 20.5544 31.5728 20.5544Z" fill="#5B5476"/>
<path d="M32.9395 19.695C32.9132 19.7513 32.8832 19.8039 32.8494 19.8565C32.7067 19.6237 32.4927 19.4284 32.2261 19.3008L18.6527 11.4083C18.2396 11.2092 17.7591 11.2092 17.346 11.4083L3.77263 19.3008C3.50601 19.4284 3.29577 19.6198 3.15304 19.8527C3.11555 19.8039 3.08548 19.7513 3.05917 19.695C2.69873 18.9404 3.01792 18.0354 3.77263 17.675L17.346 9.78249C17.7591 9.58357 18.2396 9.58357 18.6527 9.78249L32.2261 17.675C32.9808 18.0354 33.2999 18.9404 32.9395 19.695Z" fill="#3F3B5B"/>
<path d="M4.42207 20.8259C4.22344 20.8259 4.02588 20.792 3.8345 20.7248C3.38407 20.5663 3.02216 20.2418 2.81594 19.811C2.60972 19.3809 2.58339 18.8963 2.74207 18.4465C2.90058 17.9966 3.22503 17.6356 3.65567 17.4297L17.21 9.54714C17.7184 9.30187 18.2805 9.3016 18.7709 9.53716L32.3635 17.44C32.7747 17.6356 33.0991 17.9966 33.2576 18.4465C33.4163 18.8963 33.39 19.3809 33.1838 19.8111C32.8885 20.4273 32.2562 20.8257 31.5729 20.8257C31.3037 20.8257 31.0445 20.7666 30.8024 20.6503L17.9999 13.141L5.21709 20.6398C4.95927 20.7642 4.68979 20.8259 4.42207 20.8259ZM18.006 9.90242C17.8228 9.90242 17.6369 9.94333 17.4639 10.0265L3.90907 17.9093C3.59011 18.0628 3.36427 18.314 3.25401 18.627C3.14374 18.9399 3.16194 19.277 3.30543 19.5764C3.4491 19.8764 3.70091 20.1023 4.01457 20.2126C4.32735 20.3226 4.66381 20.3044 4.96227 20.161L17.8626 12.5921C17.9474 12.5425 18.0523 12.5425 18.1372 12.5921L31.0572 20.1715C31.2057 20.2418 31.3857 20.2828 31.5729 20.2828C32.0486 20.2828 32.4888 20.0055 32.6943 19.5765C32.8378 19.277 32.856 18.9399 32.7457 18.627C32.6354 18.314 32.4096 18.0628 32.1101 17.9195L18.5169 10.0165C18.3586 9.94085 18.1835 9.90242 18.006 9.90242Z" fill="#181818"/>
<path d="M28.6981 10.4037C28.525 10.4037 28.3496 10.3664 28.1835 10.2866L18.0001 4.31262L7.81666 10.2866C7.22346 10.5715 6.51022 10.3204 6.22527 9.72543C5.94033 9.13107 6.19148 8.41841 6.78642 8.13405L17.485 1.91302C17.8101 1.75686 18.1901 1.75686 18.5152 1.91302L29.2138 8.13405C29.8087 8.41841 30.0599 9.13107 29.7749 9.72543C29.5698 10.1537 29.1427 10.4037 28.6981 10.4037Z" fill="#5B5476"/>
<path d="M29.7743 9.72421C29.7535 9.76986 29.7244 9.81551 29.6954 9.86136C29.5832 9.68262 29.4211 9.5331 29.2134 9.43329L18.5144 3.21346C18.1903 3.05542 17.8081 3.05542 17.484 3.21346L6.78505 9.43329C6.5773 9.5331 6.4153 9.68262 6.30311 9.86136C6.274 9.81977 6.24905 9.77412 6.22414 9.72421C5.94159 9.12998 6.19092 8.41951 6.78505 8.13284L17.484 1.91281C17.8081 1.75497 18.1903 1.75497 18.5144 1.91281L29.2134 8.13284C29.8076 8.41951 30.061 9.12998 29.7743 9.72421Z" fill="#3F3B5B"/>
<path d="M7.29716 10.6752C7.13441 10.6752 6.97272 10.6475 6.81615 10.5923C6.44665 10.4624 6.14978 10.1961 5.98049 9.84272C5.81137 9.48982 5.78982 9.09231 5.91987 8.72325C6.05011 8.35428 6.31624 8.05802 6.66948 7.88917L17.3485 1.67839C17.7694 1.47552 18.2306 1.47535 18.6327 1.66841L29.3502 7.89942C29.684 8.05802 29.9501 8.35428 30.0804 8.72325C30.2104 9.09231 30.1889 9.48982 30.0198 9.8428C29.7777 10.3485 29.2588 10.6752 28.6981 10.6752C28.4772 10.6752 28.2647 10.6268 28.0659 10.5313L18 4.62744L7.954 10.5208C7.74 10.6241 7.5177 10.6752 7.29716 10.6752ZM18.0062 2.06548C17.8703 2.06548 17.7314 2.09578 17.6024 2.15772L6.92289 8.36877C6.68132 8.48522 6.5138 8.67165 6.43181 8.90376C6.34999 9.13596 6.3636 9.38609 6.46998 9.60813C6.57671 9.83079 6.76349 9.9984 6.99622 10.0802C7.22825 10.1619 7.47758 10.1483 7.69918 10.042L17.8627 4.07857C17.9476 4.02891 18.0525 4.02891 18.1373 4.07857L28.3209 10.0525C28.4258 10.102 28.5594 10.1323 28.6981 10.1323C29.051 10.1323 29.3778 9.92665 29.5303 9.60822C29.6367 9.38609 29.6503 9.13596 29.5684 8.90376C29.4864 8.67165 29.3189 8.48522 29.0968 8.37902L18.3787 2.14773C18.2644 2.09322 18.1366 2.06548 18.0062 2.06548Z" fill="#181818"/>
<path d="M3.35084 30.6201C3.20098 30.6201 3.07941 30.4986 3.07941 30.3487V27.6259C3.07941 27.476 3.20098 27.3545 3.35084 27.3545C3.50069 27.3545 3.62226 27.476 3.62226 27.6259V30.3487C3.62226 30.4986 3.50069 30.6201 3.35084 30.6201Z" fill="#181818"/>
<path d="M3.35084 26.8419C3.20098 26.8419 3.07941 26.7204 3.07941 26.5705V26.0913C3.07941 25.9413 3.20098 25.8198 3.35084 25.8198C3.50069 25.8198 3.62226 25.9413 3.62226 26.0913V26.5705C3.62226 26.7204 3.50069 26.8419 3.35084 26.8419Z" fill="#181818"/>
<path d="M1.4179 35.1085C1.23876 34.7994 1.13452 34.4414 1.13452 34.0578C1.13452 32.8988 2.07465 31.9609 3.23362 31.9609C4.20055 31.9609 5.01563 32.6153 5.2568 33.5063C5.54934 33.3254 5.89323 33.2227 6.26169 33.2227C7.31073 33.2227 8.16178 34.0639 8.18041 35.1085H1.4179Z" fill="#AFF2B6"/>
<path d="M1.13379 34.0588C1.13379 34.4406 1.23874 34.8002 1.41739 35.1083H8.18142C8.17472 34.8158 8.10326 34.5389 7.98267 34.291C7.57402 34.5657 7.08274 34.7265 6.55349 34.7265C5.14218 34.7265 3.99884 33.5831 3.99884 32.1718V32.1093C3.76213 32.0133 3.5031 31.9619 3.23289 31.9619C2.07392 31.9619 1.13379 32.8998 1.13379 34.0588Z" fill="#7FD685"/>
<path d="M8.18036 35.3799H1.41797C1.32113 35.3799 1.23172 35.3284 1.18312 35.2446C0.973719 34.8834 0.863098 34.4731 0.863098 34.0578C0.863098 32.7519 1.92655 31.6895 3.23368 31.6895C4.18898 31.6895 5.04214 32.2646 5.41006 33.1226C5.67742 33.0098 5.9667 32.9512 6.26181 32.9512C7.44825 32.9512 8.43058 33.9168 8.45179 35.1036C8.45303 35.1765 8.42511 35.2467 8.37404 35.2987C8.32297 35.3506 8.25317 35.3799 8.18036 35.3799ZM1.58178 34.837H7.88048C7.73558 34.0753 7.06001 33.494 6.26181 33.494C5.95486 33.494 5.65675 33.5781 5.39963 33.7371C5.32665 33.7822 5.23688 33.7901 5.15718 33.7587C5.07749 33.7272 5.01723 33.6599 4.99479 33.5772C4.78043 32.7853 4.05627 32.2323 3.23368 32.2323C2.2259 32.2323 1.40596 33.0512 1.40596 34.0578C1.40596 34.3269 1.46639 34.5934 1.58178 34.837Z" fill="#181818"/>
<path d="M28.1017 35.1085C27.9226 34.7994 27.8184 34.4414 27.8184 34.0578C27.8184 32.8988 28.7585 31.9609 29.9175 31.9609C30.8844 31.9609 31.6995 32.6153 31.9406 33.5063C32.2332 33.3254 32.5771 33.2227 32.9455 33.2227C33.9946 33.2227 34.8456 34.0639 34.8642 35.1085H28.1017Z" fill="#AFF2B6"/>
<path d="M27.8176 34.0588C27.8176 34.4406 27.9226 34.8002 28.1012 35.1083H34.8653C34.8586 34.8158 34.7871 34.5389 34.6665 34.291C34.2579 34.5657 33.7666 34.7265 33.2373 34.7265C31.826 34.7265 30.6827 33.5831 30.6827 32.1718V32.1093C30.446 32.0133 30.1869 31.9619 29.9167 31.9619C28.7578 31.9619 27.8176 32.8998 27.8176 34.0588Z" fill="#7FD685"/>
<path d="M34.8643 35.3799H28.1017C28.0049 35.3799 27.9155 35.3284 27.8669 35.2446C27.6575 34.8834 27.5469 34.4731 27.5469 34.0578C27.5469 32.7519 28.6103 31.6895 29.9175 31.6895C30.8728 31.6895 31.7259 32.2647 32.0938 33.1227C32.3612 33.0098 32.6507 32.9512 32.9456 32.9512C34.1318 32.9512 35.1144 33.9167 35.1357 35.1036C35.137 35.1764 35.1091 35.2467 35.058 35.2987C35.0069 35.3506 34.9371 35.3799 34.8643 35.3799ZM28.2656 34.837H34.5644C34.4194 34.0753 33.7438 33.494 32.9456 33.494C32.6388 33.494 32.3407 33.5781 32.0834 33.7371C32.0104 33.7822 31.9208 33.7901 31.8408 33.7587C31.7611 33.7271 31.701 33.6599 31.6786 33.5772C31.4642 32.7853 30.74 32.2323 29.9175 32.2323C28.9097 32.2323 28.0897 33.0512 28.0897 34.0578C28.0897 34.3269 28.1502 34.5934 28.2656 34.837Z" fill="#181818"/>
<path d="M34.8664 3.30895C33.7388 3.54115 32.8519 4.43087 32.6197 5.55843C32.6057 5.6256 32.5162 5.6256 32.5022 5.55843C32.3875 4.99324 32.1077 4.48966 31.7132 4.09793C31.3243 3.70624 30.8207 3.42366 30.2555 3.30895C30.1883 3.29494 30.1883 3.20543 30.2555 3.19142C30.8207 3.07674 31.3243 2.79413 31.716 2.40244C32.1077 2.01075 32.3875 1.50712 32.5022 0.941972C32.5162 0.874811 32.6057 0.874811 32.6197 0.941972C32.7344 1.50712 33.0142 2.01075 33.4059 2.40244C33.7976 2.79413 34.3012 3.07674 34.8664 3.19142C34.9335 3.20543 34.9335 3.29494 34.8664 3.30895Z" fill="#AFF2B6"/>
<path d="M34.8675 3.3075C33.7376 3.53955 32.8512 4.42978 32.6191 5.55969C32.6039 5.62435 32.5164 5.62435 32.5012 5.55969C32.3909 5.01946 32.136 4.53632 31.7708 4.15586C32.6457 3.9961 33.3115 3.25042 33.3496 2.3374C33.3648 2.36023 33.3876 2.38305 33.4066 2.40206C33.7985 2.79391 34.3007 3.07546 34.8675 3.18957C34.9322 3.20478 34.9322 3.29607 34.8675 3.3075Z" fill="#7FD685"/>
<path d="M32.561 5.88019C32.4025 5.88019 32.2691 5.77054 32.2364 5.61363C32.1344 5.11062 31.8874 4.65346 31.5219 4.2905C31.1572 3.92329 30.7011 3.67634 30.2015 3.575C30.043 3.54186 29.9337 3.40844 29.9337 3.2502C29.9337 3.09187 30.043 2.95845 30.1998 2.92567C30.7001 2.82424 31.1574 2.57702 31.5241 2.21052C31.8883 1.84623 32.1344 1.38881 32.2362 0.887923C32.2691 0.729767 32.4025 0.620117 32.561 0.620117C32.7193 0.620117 32.8527 0.729767 32.8854 0.886686C32.9874 1.38908 33.2336 1.84641 33.5978 2.21052C33.9644 2.57711 34.4218 2.82424 34.9203 2.92532C35.0788 2.95845 35.1882 3.09187 35.1882 3.2502C35.1882 3.40844 35.0788 3.54186 34.922 3.57464C34.9217 3.57473 34.9213 3.57473 34.9212 3.57482C33.8961 3.7859 33.097 4.58596 32.8854 5.61318C32.8527 5.77054 32.7193 5.88019 32.561 5.88019ZM30.9572 3.25011C31.3079 3.40659 31.6292 3.62819 31.9058 3.90659C32.1834 4.18244 32.4046 4.50397 32.5612 4.85615C32.8785 4.14074 33.4507 3.56793 34.1652 3.25046C33.8146 3.09416 33.4924 2.87274 33.2139 2.59434C32.9372 2.31778 32.7169 1.99643 32.561 1.64531C32.405 1.99617 32.1846 2.31752 31.9079 2.59434C31.6297 2.87248 31.3078 3.09372 30.9572 3.25011Z" fill="#181818"/>
<path d="M3.35087 12.5832C3.35087 13.2819 2.78576 13.847 2.08945 13.847C1.3908 13.847 0.825684 13.2819 0.825684 12.5832C0.825684 11.8869 1.3908 11.3218 2.08945 11.3218C2.78576 11.3218 3.35087 11.8869 3.35087 12.5832Z" fill="#DABCBC"/>
<path d="M3.35101 12.5826C3.35101 13.2804 2.78449 13.8469 2.08978 13.8469C1.54409 13.8469 1.07597 13.498 0.900085 13.012C1.09092 13.1283 1.31751 13.1969 1.55901 13.1969C2.25672 13.1969 2.82325 12.6303 2.82325 11.9326C2.82325 11.7865 2.7994 11.6434 2.7517 11.5122C3.10948 11.7329 3.35101 12.1294 3.35101 12.5826Z" fill="#BC9595"/>
<path d="M2.08947 14.1184C1.24284 14.1184 0.554199 13.4296 0.554199 12.5831C0.554199 11.7379 1.24284 11.0503 2.08947 11.0503C2.93468 11.0503 3.62226 11.7379 3.62226 12.5831C3.62226 13.4296 2.93468 14.1184 2.08947 14.1184ZM2.08947 11.5932C1.54219 11.5932 1.09706 12.0372 1.09706 12.5831C1.09706 13.1303 1.54219 13.5755 2.08947 13.5755C2.63533 13.5755 3.0794 13.1303 3.0794 12.5831C3.0794 12.0372 2.63533 11.5932 2.08947 11.5932Z" fill="#181818"/>
<path d="M32.8906 19.4463L34.9266 24.3236C35.2489 25.0959 34.8854 25.9857 34.1105 26.3092C33.3382 26.6316 32.4499 26.2643 32.1275 25.492L30.0916 20.6147L32.8906 19.4463Z" fill="#FFD9B0"/>
<path d="M32.8907 19.4463L34.9266 24.3236C35.249 25.0959 34.8854 25.9857 34.1105 26.3092C33.7961 26.4404 33.4633 26.4585 33.1545 26.3743C33.5796 25.5253 33.4229 23.8313 32.6877 22.0701C32.3563 21.2761 31.9516 20.5733 31.5223 20.0175L32.8907 19.4463Z" fill="#EDB57E"/>
<path d="M33.5285 26.6982C33.2977 26.6982 33.0668 26.6529 32.8468 26.5622C32.4053 26.38 32.0609 26.0371 31.8771 25.5966L29.8412 20.7193C29.7835 20.581 29.8487 20.4221 29.987 20.3643L32.786 19.1959C32.9249 19.138 33.0832 19.2035 33.141 19.3418L35.177 24.2191C35.5572 25.1297 35.1256 26.1798 34.215 26.5598C33.9938 26.6521 33.7612 26.6982 33.5285 26.6982ZM30.4467 20.7607L32.3779 25.3876C32.5061 25.6944 32.746 25.9333 33.0539 26.0603C33.3617 26.1872 33.6997 26.1866 34.0058 26.0588C34.6402 25.7941 34.941 25.0626 34.6761 24.4282L32.7446 19.8014L30.4467 20.7607Z" fill="#181818"/>
<path d="M29.3981 20.9885C32.6955 20.9885 35.3685 18.3155 35.3685 15.0182C35.3685 11.7209 32.6955 9.04785 29.3981 9.04785C26.1008 9.04785 23.4278 11.7209 23.4278 15.0182C23.4278 18.3155 26.1008 20.9885 29.3981 20.9885Z" fill="#F56691"/>
<path d="M34.9086 12.7179C36.1788 15.7608 34.7397 19.257 31.6968 20.5272C29.7702 21.3314 27.6639 21.0493 26.0532 19.9653C27.2678 20.2759 28.5887 20.2082 29.8351 19.6879C32.878 18.4177 34.3171 14.9215 33.0469 11.8786C32.5798 10.7596 31.8133 9.86091 30.8797 9.23242C32.6308 9.68511 34.1587 10.9214 34.9086 12.7179Z" fill="#F76189"/>
<path d="M29.3981 18.9821C31.5874 18.9821 33.3621 17.2074 33.3621 15.0181C33.3621 12.8289 31.5874 11.0542 29.3981 11.0542C27.2089 11.0542 25.4342 12.8289 25.4342 15.0181C25.4342 17.2074 27.2089 18.9821 29.3981 18.9821Z" fill="white"/>
<path d="M33.0553 13.4915C33.899 15.5129 32.9456 17.8327 30.9242 18.6764C29.6372 19.2137 28.2301 19.0215 27.1602 18.2877C27.8841 18.4214 28.6563 18.3504 29.3879 18.045C31.4093 17.2012 32.3628 14.8814 31.519 12.8601C31.2125 12.1258 30.7106 11.5334 30.1008 11.1167C31.3775 11.3474 32.5169 12.2018 33.0553 13.4915Z" fill="#DDDDDD"/>
<path d="M29.4064 21.2599C26.9621 21.2601 24.6369 19.8155 23.6382 17.4225C22.9958 15.884 22.9912 14.1874 23.6249 12.6453C24.2588 11.1033 25.4551 9.90029 26.9937 9.25812C28.5324 8.61569 30.2288 8.61118 31.771 9.24505C33.3131 9.87882 34.516 11.0752 35.1582 12.6138C35.8005 14.1523 35.8051 15.8488 35.1714 17.3909C34.5376 18.933 33.3412 20.1359 31.8026 20.7782C31.0194 21.1051 30.2064 21.2599 29.4064 21.2599ZM29.3981 9.31617C28.654 9.31617 27.9102 9.46381 27.203 9.7591C25.7981 10.3454 24.7057 11.4438 24.1271 12.8517C23.5484 14.2597 23.5526 15.8087 24.139 17.2135C24.7255 18.6182 25.8237 19.7105 27.2318 20.2891C28.6398 20.8679 30.1889 20.8638 31.5934 20.2772C32.9982 19.6908 34.0907 18.5925 34.6692 17.1845C35.2479 15.7766 35.2437 14.2276 34.6574 12.8228C34.0709 11.4181 32.9726 10.3258 31.5646 9.74708C30.8657 9.45984 30.1316 9.31617 29.3981 9.31617Z" fill="#181818"/>
<path d="M29.3984 19.2556C28.8531 19.2556 28.3076 19.1488 27.788 18.9354C26.7417 18.5053 25.9255 17.6934 25.4897 16.6494C24.5901 14.4944 25.6115 12.0091 27.7667 11.1094C28.8105 10.6736 29.9616 10.6705 31.0083 11.1006C32.0546 11.5306 32.871 12.3424 33.3066 13.3865C34.2062 15.5415 33.1848 18.0268 31.0298 18.9264C30.5041 19.1458 29.9513 19.2556 29.3984 19.2556ZM29.3981 11.3234C28.916 11.3234 28.4341 11.4191 27.9759 11.6104C26.0969 12.3948 25.2063 14.5614 25.9905 16.4404C26.3705 17.3505 27.0823 18.0583 27.9944 18.4332C28.9066 18.8082 29.9105 18.8052 30.8206 18.4255C32.6994 17.6411 33.59 15.4744 32.8058 13.5955C32.4258 12.6854 31.7142 11.9776 30.8019 11.6027C30.3489 11.4166 29.8734 11.3234 29.3981 11.3234Z" fill="#181818"/>
</svg>
