<svg width="38" height="38" viewBox="0 0 38 38" fill="none" xmlns="http://www.w3.org/2000/svg">
<path d="M24.5577 21.8703C25.1038 23.1086 25.9161 26.1715 21.6681 27.6498C16.2615 29.5406 10.8217 29.5406 5.41512 27.6498C1.1672 26.1715 1.97949 23.1086 2.52552 21.8703C2.67198 21.524 2.6055 21.1378 2.39905 20.825C1.40681 19.3467 2.28575 18.0752 2.94491 17.4159C3.25117 17.1096 3.33781 16.6503 3.17135 16.2442C2.24592 13.947 3.21134 12.6286 4.1501 11.9361C4.9359 11.3568 5.41512 10.4448 5.41512 9.47276V9.13301C5.41512 5.35781 8.478 2.29492 12.2532 2.29492H14.83C18.6053 2.29492 21.6681 5.35781 21.6681 9.13301V9.47276C21.6681 10.4448 22.1475 11.3568 22.9332 11.9361C23.8654 12.6286 24.8375 13.947 23.9121 16.2442C23.7456 16.6503 23.8321 17.1096 24.1383 17.4159C24.7975 18.0752 25.6765 19.3467 24.6844 20.825C24.4779 21.1378 24.4114 21.524 24.5577 21.8703Z" fill="#5B5476"/>
<path d="M24.0061 15.9893C23.7492 15.4249 23.3403 15.0051 22.9349 14.7082C22.146 14.1293 21.6682 13.2173 21.6682 12.2438V11.9034C21.6682 8.12887 18.6065 5.06717 14.8319 5.06717H12.2514C8.47681 5.06717 5.4151 8.12887 5.4151 11.9034V12.2438C5.4151 13.2173 4.93737 14.1293 4.14844 14.7082C3.74315 15.0051 3.33415 15.4212 3.07359 15.9821C2.3208 13.8469 3.2473 12.602 4.14844 11.9361C4.93737 11.357 5.4151 10.445 5.4151 9.47152V9.13135C5.4151 5.35662 8.4768 2.29492 12.2514 2.29492H14.8319C18.6065 2.29492 21.6682 5.35662 21.6682 9.13135V9.47152C21.6682 10.445 22.146 11.357 22.9349 11.9361C23.8289 12.602 24.7661 13.8506 24.0061 15.9893Z" fill="#3F3B5B"/>
<path d="M23.1158 9.4046C22.966 9.4046 22.8444 9.28311 22.8444 9.13317C22.8444 7.30757 22.2438 5.58667 21.1075 4.15645C21.0144 4.03912 21.0338 3.86833 21.1513 3.77511C21.2687 3.68207 21.4392 3.70151 21.5327 3.81876C22.746 5.34599 23.3872 7.18361 23.3872 9.13317C23.3872 9.28311 23.2657 9.4046 23.1158 9.4046Z" fill="#181818"/>
<path d="M20.486 3.3545C20.4196 3.3545 20.353 3.33029 20.3007 3.28134C20.1676 3.15693 20.0303 3.03695 19.8891 2.92173C19.773 2.82701 19.7557 2.65596 19.8504 2.53986C19.9453 2.42385 20.116 2.40609 20.2323 2.50116C20.383 2.62415 20.5295 2.75209 20.6714 2.8848C20.781 2.9872 20.7866 3.15897 20.6843 3.26844C20.6309 3.32561 20.5585 3.3545 20.486 3.3545Z" fill="#181818"/>
<path d="M13.5418 29.3359C10.7964 29.336 8.0517 28.8593 5.32558 27.9059C3.68446 27.3348 2.6021 26.4702 2.10873 25.3363C1.50031 23.9378 1.95304 22.4958 2.27696 21.7607C2.37927 21.5188 2.34181 21.231 2.17252 20.9744C1.06507 19.3246 2.06084 17.9163 2.75302 17.2239C2.97991 16.997 3.04547 16.6528 2.92018 16.347C1.88218 13.7705 3.14425 12.3407 3.98893 11.7176C4.71204 11.1845 5.14374 10.3453 5.14374 9.4727V9.13289C5.14374 5.21272 8.33303 2.02344 12.2532 2.02344H14.83C18.7503 2.02344 21.9396 5.21272 21.9396 9.13289V9.4727C21.9396 10.3453 22.3712 11.1845 23.0943 11.7176C24.1248 12.4831 25.1462 13.9067 24.1639 16.3455C24.0379 16.6529 24.1035 16.9971 24.3302 17.2239C25.0225 17.9162 26.0183 19.3243 24.9096 20.9762C24.7419 21.2304 24.7041 21.5176 24.8071 21.7628C25.131 22.4984 25.5825 23.9389 24.9746 25.3362C24.4814 26.4701 23.3989 27.3348 21.7574 27.906C19.032 28.8592 16.2865 29.3358 13.5418 29.3359ZM12.2532 2.56629C8.63238 2.56629 5.6866 5.51207 5.6866 9.13289V9.4727C5.6866 10.5171 5.17237 11.5196 4.31108 12.1546C3.43388 12.8017 2.56747 14.019 3.4231 16.1427C3.63109 16.65 3.51888 17.2256 3.13683 17.6077C2.43529 18.3095 1.77704 19.4111 2.62437 20.6736C2.89279 21.0802 2.94863 21.5664 2.77546 21.9759C2.48565 22.6335 2.08063 23.911 2.60652 25.1198C3.03681 26.109 4.01191 26.8739 5.50441 27.3934C10.8376 29.2585 16.2455 29.2586 21.5786 27.3934C23.0715 26.8739 24.0465 26.1089 24.4768 25.1196C25.0027 23.9106 24.5977 22.6335 24.3095 21.9796C24.3088 21.9784 24.3083 21.9771 24.3077 21.9758C24.1346 21.5662 24.1907 21.0801 24.4578 20.6754C25.3063 19.4109 24.6479 18.3094 23.9464 17.6077C23.5643 17.2257 23.4523 16.6501 23.661 16.1412C24.5132 14.0252 23.6477 12.8049 22.7712 12.1539C21.9108 11.5196 21.3968 10.517 21.3968 9.4727V9.13289C21.3968 5.51207 18.451 2.56629 14.83 2.56629H12.2532Z" fill="#181818"/>
<path d="M25.3886 32.8543V34.9425C25.3886 35.6518 24.8168 36.2236 24.1075 36.2236H2.97586C2.26654 36.2236 1.6947 35.6518 1.6947 34.9425V32.8543C1.6947 29.6406 4.19905 27.024 7.36572 26.8394C7.65526 26.8251 7.9448 26.7996 8.22348 26.7201C10.384 26.1083 10.5686 23.9913 10.5686 23.2965C10.5686 23.1553 10.5614 23.0684 10.5614 23.0684H16.5219C16.5219 23.0684 16.2577 25.9708 18.849 26.7164C19.1313 26.7996 19.4244 26.8251 19.7212 26.8394C21.2448 26.9299 22.6164 27.5849 23.6225 28.5984C24.7119 29.6804 25.3886 31.1895 25.3886 32.8543Z" fill="#AFF2B6"/>
<path d="M25.3886 32.8539V34.9421C25.3886 35.6514 24.8168 36.2232 24.1075 36.2232H2.97586C2.26654 36.2232 1.6947 35.6514 1.6947 34.9421V32.8539C1.6947 32.6837 1.70195 32.5172 1.71644 32.3508C4.58994 33.071 7.92307 33.48 11.4806 33.48C16.7897 33.48 21.6031 32.5679 25.1208 31.0806C25.2945 31.6414 25.3886 32.235 25.3886 32.8539Z" fill="#7FD685"/>
<path d="M17.8176 26.217C16.4713 27.8021 14.8101 29.3944 13.5398 29.3944C12.2695 29.3944 10.6084 27.8021 9.26941 26.217C10.4491 25.3412 10.5686 23.8574 10.5686 23.2965C10.5686 23.1553 10.5613 23.0684 10.5613 23.0684H16.5219C16.5219 23.0684 16.3338 25.1203 17.8176 26.217Z" fill="white"/>
<path d="M17.8176 26.2167C16.4713 27.8018 14.8101 29.3942 13.5398 29.3942C12.2695 29.3942 10.6084 27.8018 9.26941 26.2167C9.46476 26.072 9.63131 25.9126 9.7688 25.7391C10.7061 26.0466 11.8534 26.2312 13.0947 26.2312C14.6618 26.2312 16.084 25.9381 17.1155 25.4712C17.2928 25.7426 17.5208 25.9996 17.8176 26.2167Z" fill="#DDDDDD"/>
<path d="M24.1075 36.495H2.97586C2.1197 36.495 1.42328 35.7985 1.42328 34.9424V32.8542C1.42328 29.5232 4.02659 26.7622 7.35 26.5683C7.61242 26.5553 7.88897 26.5333 8.14909 26.459C10.088 25.91 10.2972 24.0644 10.2972 23.2964C10.2972 23.1734 10.2914 23.0959 10.2908 23.0905C10.2848 23.0149 10.3104 22.9402 10.3619 22.8844C10.4133 22.8288 10.4856 22.7969 10.5614 22.7969H16.5218C16.598 22.7969 16.6706 22.829 16.7219 22.8851C16.7733 22.9413 16.7989 23.0166 16.7922 23.0924C16.7827 23.202 16.5839 25.7822 18.9241 26.4555C19.1868 26.5329 19.4687 26.5554 19.7343 26.5682C21.2809 26.66 22.729 27.313 23.8151 28.4071C25.0043 29.5882 25.6599 31.168 25.6599 32.8542V34.9424C25.6599 35.7985 24.9635 36.495 24.1075 36.495ZM10.8399 23.3397C10.8319 24.0834 10.61 26.3264 8.29735 26.9812C7.98528 27.0703 7.67161 27.096 7.37916 27.1104C4.34485 27.2874 1.96614 29.8104 1.96614 32.8542V34.9424C1.96614 35.4991 2.41905 35.9521 2.97586 35.9521H24.1075C24.6642 35.9521 25.1171 35.4991 25.1171 34.9424V32.8542C25.1171 31.3137 24.5184 29.8706 23.4313 28.7909C22.438 27.7904 21.1153 27.194 19.7051 27.1103C19.4088 27.096 19.0882 27.0698 18.7723 26.9767C16.5097 26.3257 16.2593 24.1395 16.2453 23.3397H10.8399Z" fill="#181818"/>
<path d="M13.5399 29.6658C12.4036 29.6658 10.897 28.5644 9.06218 26.3921C9.01376 26.3348 8.99114 26.2602 8.9998 26.1857C9.00846 26.1113 9.04751 26.0437 9.10759 25.999C10.1813 25.202 10.2972 23.8435 10.2972 23.2964C10.2972 23.1734 10.2914 23.0959 10.2909 23.0905C10.2848 23.0149 10.3105 22.9402 10.3619 22.8844C10.4133 22.8288 10.4856 22.7969 10.5614 22.7969H16.5219C16.598 22.7969 16.6707 22.829 16.7221 22.8852C16.7735 22.9414 16.799 23.0168 16.7922 23.0926C16.7905 23.1117 16.6396 25.0087 17.9789 25.9987C18.0393 26.0433 18.0785 26.1111 18.0872 26.1858C18.0958 26.2604 18.073 26.3353 18.0244 26.3927C16.1799 28.5646 14.671 29.6658 13.5399 29.6658ZM9.65593 26.2516C11.2781 28.1314 12.6181 29.123 13.5399 29.123C14.4572 29.123 15.7995 28.1313 17.4302 26.2516C16.381 25.3166 16.2467 23.9406 16.2421 23.3397H10.8399C10.8339 23.9531 10.6941 25.3221 9.65593 26.2516Z" fill="#181818"/>
<path d="M13.8809 31.1342H13.2023C13.0525 31.1342 12.9309 31.0127 12.9309 30.8627C12.9309 30.7128 13.0525 30.5913 13.2023 30.5913H13.8809C14.0308 30.5913 14.1523 30.7128 14.1523 30.8627C14.1523 31.0127 14.0308 31.1342 13.8809 31.1342Z" fill="#181818"/>
<path d="M13.8809 32.6947H13.2023C13.0525 32.6947 12.9309 32.5732 12.9309 32.4233C12.9309 32.2733 13.0525 32.1519 13.2023 32.1519H13.8809C14.0308 32.1519 14.1523 32.2733 14.1523 32.4233C14.1523 32.5732 14.0308 32.6947 13.8809 32.6947Z" fill="#181818"/>
<path d="M13.8809 34.2557H13.2023C13.0525 34.2557 12.9309 34.1343 12.9309 33.9843C12.9309 33.8344 13.0525 33.7129 13.2023 33.7129H13.8809C14.0308 33.7129 14.1523 33.8344 14.1523 33.9843C14.1523 34.1343 14.0308 34.2557 13.8809 34.2557Z" fill="#181818"/>
<path d="M20.9456 13.2468V16.403C20.9456 20.3316 17.9677 23.755 14.0465 24.015C11.7963 24.1637 9.7541 23.3097 8.30601 21.8614C6.96179 20.5248 6.13757 18.6682 6.13757 16.626V15.6158C6.13757 15.2742 6.3827 14.9921 6.72428 14.9253C9.3235 14.4351 11.3509 13.5663 12.8583 12.6601C14.4625 11.7097 15.5021 10.7071 16.0739 10.0685C16.3711 9.73416 16.8909 9.76389 17.1581 10.1203C18.0864 11.3605 19.1485 12.259 20.4258 12.5709C20.7377 12.6452 20.9456 12.9273 20.9456 13.2468Z" fill="white"/>
<path d="M20.9444 13.2461V16.4019C20.9444 20.3322 17.9659 23.7558 14.0465 24.0164C11.7955 24.1649 9.75432 23.3106 8.3067 21.863C7.53942 21.0995 6.94593 20.173 6.57678 19.1344C6.77222 19.3949 6.9894 19.6411 7.22098 19.8726C8.6686 21.3202 10.7098 22.1744 12.9608 22.026C16.8802 21.7653 19.8587 18.3417 19.8587 14.4115V12.3848C20.0433 12.4608 20.2314 12.5222 20.4269 12.5694C20.7382 12.6454 20.9444 12.9276 20.9444 13.2461Z" fill="#DDDDDD"/>
<path d="M13.5545 24.3028C11.5181 24.3028 9.55889 23.4983 8.11409 22.0534C6.66471 20.6122 5.86615 18.6846 5.86615 16.6261V15.6158C5.86615 15.1451 6.19766 14.7517 6.67231 14.659C8.92997 14.2331 10.9636 13.4825 12.7185 12.4275C14.2656 11.5108 15.287 10.5403 15.8717 9.88753C16.065 9.67009 16.3437 9.55081 16.6321 9.56397C16.926 9.57617 17.1969 9.71957 17.3754 9.95751C18.3549 11.2661 19.3738 12.0347 20.4902 12.3072C20.9177 12.4092 21.2171 12.7957 21.2171 13.2468V16.4031C21.2171 20.5574 18.0753 24.0199 14.0647 24.2859C13.8943 24.2972 13.724 24.3028 13.5545 24.3028ZM16.5913 10.1059C16.4702 10.1059 16.3591 10.1563 16.2767 10.2489C15.666 10.9309 14.6019 11.9426 12.9966 12.8937C11.188 13.981 9.09396 14.7546 6.77462 15.1921C6.5601 15.234 6.40901 15.4083 6.40901 15.6158V16.6261C6.40901 18.539 7.15066 20.3299 8.49738 21.6691C9.95242 23.1241 11.9666 23.8791 14.0288 23.7443C17.7551 23.4971 20.6742 20.2725 20.6742 16.4031V13.2468C20.6742 13.048 20.5463 12.8786 20.3628 12.8349C19.1177 12.531 17.9988 11.6963 16.9408 10.283C16.8608 10.1762 16.7399 10.1118 16.6095 10.1063C16.6035 10.106 16.5973 10.1059 16.5913 10.1059Z" fill="#181818"/>
<path d="M10.9178 16.1273H9.69636C9.5465 16.1273 9.42493 16.0058 9.42493 15.8559C9.42493 15.706 9.5465 15.5845 9.69636 15.5845H10.9178C11.0676 15.5845 11.1892 15.706 11.1892 15.8559C11.1892 16.0058 11.0676 16.1273 10.9178 16.1273Z" fill="#181818"/>
<path d="M17.3868 16.1273H16.1654C16.0156 16.1273 15.894 16.0058 15.894 15.8559C15.894 15.706 16.0156 15.5845 16.1654 15.5845H17.3868C17.5367 15.5845 17.6583 15.706 17.6583 15.8559C17.6583 16.0058 17.5367 16.1273 17.3868 16.1273Z" fill="#181818"/>
<path d="M13.5423 22.258C12.7309 22.258 11.9738 21.8205 11.5665 21.1163C11.4916 20.9865 11.5359 20.8205 11.6657 20.7455C11.7954 20.6705 11.9613 20.7147 12.0366 20.8445C12.3471 21.3816 12.924 21.7151 13.5423 21.7151C14.1606 21.7151 14.7376 21.3816 15.0481 20.8445C15.1232 20.7147 15.2893 20.6705 15.419 20.7455C15.5487 20.8205 15.5931 20.9865 15.5181 21.1163C15.1108 21.8205 14.3538 22.258 13.5423 22.258Z" fill="#181818"/>
<path d="M14.1503 19.5427H13.174C13.0874 19.5427 13.006 19.5013 12.9549 19.4314C12.9038 19.3615 12.8892 19.2715 12.9153 19.189L13.4355 17.5536C13.481 17.4108 13.6336 17.3314 13.7766 17.3773C13.9194 17.4227 13.9984 17.5753 13.953 17.7181L13.5451 18.9998H14.1503C14.3002 18.9998 14.4218 19.1213 14.4218 19.2712C14.4218 19.4212 14.3002 19.5427 14.1503 19.5427Z" fill="#181818"/>
<path d="M34.8474 28.1539V35.4622C34.8474 35.884 34.5081 36.2233 34.0863 36.2233H23.3699C22.9511 36.2233 22.6088 35.884 22.6088 35.4622V28.1539L28.7281 21.9858L34.8474 28.1539Z" fill="#FFD9B0"/>
<path d="M34.8474 28.1537V35.462C34.8474 35.8838 34.5081 36.223 34.0863 36.223H23.3699C22.9511 36.223 22.6088 35.8838 22.6088 35.462V33.738C23.5502 34.3004 24.617 34.6153 25.7449 34.6153C29.5534 34.6153 32.6405 31.0391 32.6405 26.6285C32.6405 26.3809 32.6314 26.1394 32.6099 25.8979L34.8474 28.1537Z" fill="#EDB57E"/>
<path d="M27.7989 29.6301V33.139C27.7989 33.3775 27.6033 33.5701 27.3648 33.5701H24.5711C24.3327 33.5701 24.1371 33.3775 24.1371 33.139V29.6301C24.1371 29.3917 24.3327 29.1992 24.5711 29.1992H27.3648C27.6033 29.1992 27.7989 29.3917 27.7989 29.6301Z" fill="white"/>
<path d="M27.7989 29.6301V33.139C27.7989 33.3775 27.6033 33.5701 27.3648 33.5701H24.5711C24.3327 33.5701 24.1371 33.3775 24.1371 33.139V32.2527C24.4336 32.5094 24.8003 32.6622 25.2008 32.6622C26.188 32.6622 26.9858 31.733 26.9858 30.5868C26.9858 30.055 26.8147 29.5659 26.5273 29.1992H27.3648C27.6033 29.1992 27.7989 29.3917 27.7989 29.6301Z" fill="#DDDDDD"/>
<path d="M33.3191 29.5051V36.2233H29.2385V29.5051C29.2385 29.2849 29.4189 29.1045 29.639 29.1045H32.9187C33.1387 29.1045 33.3191 29.2849 33.3191 29.5051Z" fill="#5B5476"/>
<path d="M31.5856 23.5793L34.1951 25.4112V20.7021H31.5856V23.5793Z" fill="#FFD9B0"/>
<path d="M31.5856 20.7021H34.195V21.4144H31.5856V20.7021Z" fill="#EDB57E"/>
<path d="M31.0211 19.5829V20.3939C31.0211 20.5619 31.1603 20.7011 31.333 20.7011H34.4524C34.6204 20.7011 34.7596 20.5619 34.7596 20.3939V19.5829C34.7596 19.4102 34.6204 19.271 34.4524 19.271H31.333C31.1603 19.271 31.0211 19.4102 31.0211 19.5829Z" fill="#F56691"/>
<path d="M31.0203 20.0264V20.3932C31.0203 20.5613 31.1609 20.7019 31.3321 20.7019H34.4529C34.621 20.7019 34.7585 20.5613 34.7585 20.3932V19.5831C34.7585 19.4089 34.621 19.2715 34.4529 19.2715H34.0402C34.1686 19.3539 34.2419 19.4486 34.2419 19.5465C34.2419 19.8919 33.3647 20.1731 32.2796 20.1731C31.7998 20.1731 31.3596 20.118 31.0203 20.0264Z" fill="#F76189"/>
<path d="M34.0873 36.4946H23.3703C22.8013 36.4946 22.3385 36.0318 22.3385 35.4629V28.1547C22.3385 28.0832 22.3668 28.0144 22.4171 27.9636L28.5359 21.7949C28.6381 21.6921 28.8194 21.6921 28.9215 21.7949L35.0403 27.9636C35.0907 28.0144 35.119 28.0832 35.119 28.1547V35.4629C35.119 36.0318 34.6562 36.4946 34.0873 36.4946ZM22.8814 28.2665V35.4629C22.8814 35.7325 23.1007 35.9518 23.3703 35.9518H34.0873C34.3568 35.9518 34.5761 35.7325 34.5761 35.4629V28.2665L28.7287 22.3714L22.8814 28.2665Z" fill="#181818"/>
<path d="M27.3648 33.8415H24.571C24.1821 33.8415 23.8656 33.5264 23.8656 33.139V29.6301C23.8656 29.2428 24.1821 28.9277 24.571 28.9277H27.3648C27.7538 28.9277 28.0703 29.2428 28.0703 29.6301V33.139C28.0703 33.5264 27.7538 33.8415 27.3648 33.8415ZM24.571 29.4706C24.4814 29.4706 24.4085 29.5422 24.4085 29.6301V33.139C24.4085 33.227 24.4814 33.2986 24.571 33.2986H27.3648C27.4544 33.2986 27.5274 33.227 27.5274 33.139V29.6301C27.5274 29.5422 27.4544 29.4706 27.3648 29.4706H24.571Z" fill="#181818"/>
<path d="M33.3191 29.5051V36.2233H29.2385V33.5152C30.6751 32.5372 31.7786 30.9722 32.3012 29.1045H32.9187C33.1387 29.1045 33.3191 29.2849 33.3191 29.5051Z" fill="#3F3B5B"/>
<path d="M33.3191 36.4947H29.2385C29.0887 36.4947 28.9671 36.3732 28.9671 36.2233V29.505C28.9671 29.1345 29.2686 28.833 29.639 28.833H32.9187C33.2891 28.833 33.5906 29.1345 33.5906 29.505V36.2233C33.5906 36.3732 33.469 36.4947 33.3191 36.4947ZM29.51 35.9518H33.0477V29.505C33.0477 29.4351 32.9887 29.3759 32.9187 29.3759H29.639C29.569 29.3759 29.51 29.4351 29.51 29.505V35.9518Z" fill="#181818"/>
<path d="M34.1951 25.6826C34.1403 25.6826 34.0857 25.666 34.039 25.6333L31.4295 23.8013C31.3573 23.7505 31.3141 23.6677 31.3141 23.5792V20.7021C31.3141 20.5522 31.4357 20.4307 31.5856 20.4307H34.1951C34.3449 20.4307 34.4665 20.5522 34.4665 20.7021V25.4112C34.4665 25.5124 34.4101 25.6053 34.3202 25.652C34.2808 25.6725 34.2378 25.6826 34.1951 25.6826ZM31.857 23.4381L33.9236 24.889V20.9735H31.857V23.4381Z" fill="#181818"/>
<path d="M34.4524 20.9725H31.3331C31.0115 20.9725 30.7498 20.7129 30.7498 20.3939V19.5828C30.7498 19.2612 31.0115 18.9995 31.3331 18.9995H34.4524C34.7714 18.9995 35.0309 19.2612 35.0309 19.5828V20.3939C35.0309 20.7129 34.7714 20.9725 34.4524 20.9725ZM31.3331 19.5424C31.3105 19.5424 31.2926 19.5601 31.2926 19.5828V20.3939C31.2926 20.4108 31.3092 20.4296 31.3331 20.4296H34.4524C34.4704 20.4296 34.4881 20.4119 34.4881 20.3939V19.5828C34.4881 19.559 34.4694 19.5424 34.4524 19.5424H31.3331Z" fill="#181818"/>
<path d="M32.2504 33.3848C32.1005 33.3848 31.9789 33.2633 31.9789 33.1134V32.2143C31.9789 32.0644 32.1005 31.9429 32.2504 31.9429C32.4002 31.9429 32.5218 32.0644 32.5218 32.2143V33.1134C32.5218 33.2633 32.4002 33.3848 32.2504 33.3848Z" fill="#181818"/>
<path d="M35.5417 28.512C35.3452 28.512 35.1486 28.4366 34.9992 28.2859L28.7288 21.9643L22.4583 28.2859C22.161 28.5856 21.6773 28.5875 21.3776 28.2903C21.0781 27.9932 21.0761 27.5093 21.3733 27.2097L28.1862 20.3411C28.4731 20.0517 28.9844 20.0517 29.2713 20.3411L36.0842 27.2097C36.3814 27.5093 36.3795 27.9932 36.0799 28.2903C35.9308 28.4382 35.7362 28.512 35.5417 28.512Z" fill="#F56691"/>
<path d="M36.122 28.2425C36.1128 28.2273 36.0975 28.2151 36.0853 28.1997L29.2722 21.3317C28.9849 21.0412 28.4744 21.0412 28.1871 21.3317L21.374 28.1997C21.3617 28.2151 21.3464 28.2273 21.3342 28.2425C21.0775 27.94 21.0928 27.4938 21.374 27.2094L28.1871 20.3412C28.4744 20.051 28.9849 20.051 29.2722 20.3412L36.0853 27.2094C36.3665 27.4938 36.3787 27.94 36.122 28.2425Z" fill="#F76189"/>
<path d="M35.5418 28.7834C35.2635 28.7834 35.0023 28.6745 34.8065 28.4768L28.7287 22.3496L22.6511 28.4769C22.2487 28.8826 21.5917 28.8849 21.1865 28.483C20.99 28.2881 20.8813 28.0285 20.8803 27.752C20.879 27.4753 20.9858 27.2149 21.1807 27.0184L27.9934 20.1499C28.1809 19.9609 28.449 19.8525 28.7287 19.8525C29.0086 19.8525 29.2767 19.961 29.464 20.1499L36.2771 27.0185C36.679 27.424 36.6763 28.0809 36.2711 28.4829C36.0755 28.6767 35.8166 28.7834 35.5418 28.7834ZM28.7287 21.6928C28.8012 21.6928 28.8704 21.7217 28.9213 21.7731L35.1919 28.0947C35.3775 28.2817 35.7017 28.2832 35.8889 28.0974C36.0815 27.9062 36.0829 27.5936 35.8915 27.4008L29.0784 20.5321C28.9924 20.4452 28.865 20.3954 28.7289 20.3954C28.5928 20.3954 28.4651 20.4452 28.379 20.5321L21.5661 27.4008C21.4733 27.4942 21.4226 27.6182 21.4231 27.7498C21.4236 27.8814 21.4752 28.0049 21.5687 28.0975C21.7615 28.2888 22.0741 28.2876 22.2655 28.0947L28.5359 21.7731C28.587 21.7217 28.6563 21.6928 28.7287 21.6928Z" fill="#181818"/>
<path d="M36.0235 34.8051C35.8737 34.8051 35.7521 34.6837 35.7521 34.5337V32.2875C35.7521 32.1376 35.8737 32.0161 36.0235 32.0161C36.1734 32.0161 36.2949 32.1376 36.2949 32.2875V34.5337C36.2949 34.6837 36.1734 34.8051 36.0235 34.8051Z" fill="#181818"/>
<path d="M36.0235 31.4434C35.8737 31.4434 35.7521 31.3219 35.7521 31.172V30.7944C35.7521 30.6444 35.8737 30.5229 36.0235 30.5229C36.1734 30.5229 36.2949 30.6444 36.2949 30.7944V31.172C36.2949 31.3219 36.1734 31.4434 36.0235 31.4434Z" fill="#181818"/>
<path d="M33.4572 11.6964C32.2658 11.9418 31.3286 12.8819 31.0832 14.0734C31.0684 14.1444 30.9738 14.1444 30.959 14.0734C30.8378 13.4762 30.5422 12.944 30.1253 12.5301C29.7144 12.1162 29.1822 11.8176 28.585 11.6964C28.5141 11.6817 28.5141 11.587 28.585 11.5723C29.1822 11.4511 29.7144 11.1525 30.1283 10.7385C30.5422 10.3247 30.8378 9.79247 30.959 9.1953C30.9738 9.12435 31.0684 9.12435 31.0832 9.1953C31.2044 9.79247 31.5 10.3247 31.9139 10.7385C32.3278 11.1525 32.86 11.4511 33.4572 11.5723C33.5282 11.587 33.5282 11.6817 33.4572 11.6964Z" fill="#ABECEF"/>
<path d="M33.4584 11.695C32.2644 11.9402 31.3278 12.8809 31.0826 14.0748C31.0665 14.1432 30.9741 14.1432 30.9579 14.0748C30.8414 13.504 30.5721 12.9935 30.1862 12.5915C31.1107 12.4226 31.8142 11.6347 31.8544 10.6699C31.8705 10.694 31.8946 10.7182 31.9147 10.7383C32.3288 11.1523 32.8594 11.4498 33.4584 11.5704C33.5267 11.5865 33.5267 11.683 33.4584 11.695Z" fill="#75C5C9"/>
<path d="M31.0212 14.398C30.8613 14.398 30.7264 14.2873 30.6934 14.1289C30.5847 13.5939 30.3223 13.1081 29.9341 12.7226C29.5467 12.3326 29.0622 12.0701 28.531 11.9623C28.3712 11.9291 28.2604 11.7943 28.2604 11.6343C28.2604 11.4742 28.3712 11.3394 28.5299 11.3064C29.0611 11.1985 29.5471 10.9358 29.9364 10.5465C30.3232 10.1596 30.5849 9.67367 30.693 9.14124C30.7264 8.98123 30.8613 8.87061 31.0212 8.87061C31.1809 8.87061 31.3158 8.98123 31.3488 9.13965C31.4573 9.67367 31.719 10.1596 32.1059 10.5465C32.4951 10.9358 32.9811 11.1985 33.5112 11.3061C33.671 11.3394 33.7818 11.4742 33.7818 11.6343C33.7818 11.7943 33.671 11.9291 33.5123 11.9621C33.5123 11.9621 33.5121 11.9621 33.5119 11.9622C32.4229 12.1865 31.574 13.0368 31.349 14.1281C31.3158 14.2873 31.1809 14.398 31.0212 14.398ZM29.2882 11.6342C29.6697 11.7995 30.0187 12.0374 30.3179 12.3388C30.6183 12.6371 30.8561 12.9867 31.0214 13.3697C31.3568 12.5915 31.9774 11.9701 32.7546 11.6345C32.3732 11.4694 32.0232 11.2316 31.722 10.9304C31.4227 10.631 31.1859 10.2818 31.0212 9.90004C30.8565 10.2816 30.6197 10.6309 30.3202 10.9304C30.0192 11.2313 29.6695 11.469 29.2882 11.6342Z" fill="#181818"/>
<path d="M4.56488 3.08167C4.56488 3.80437 3.98031 4.38897 3.26007 4.38897C2.53733 4.38897 1.95276 3.80437 1.95276 3.08167C1.95276 2.36142 2.53733 1.77686 3.26007 1.77686C3.98031 1.77686 4.56488 2.36142 4.56488 3.08167Z" fill="#C3C9FB"/>
<path d="M4.56503 3.08138C4.56503 3.80312 3.979 4.38914 3.26035 4.38914C2.69593 4.38914 2.21171 4.02826 2.02972 3.52553C2.22713 3.64581 2.46153 3.71677 2.71135 3.71677C3.43308 3.71677 4.01911 3.13074 4.01911 2.40901C4.01911 2.25788 3.99443 2.10983 3.94507 1.97412C4.3152 2.20238 4.56503 2.61256 4.56503 3.08138Z" fill="#8693E2"/>
<path d="M3.26001 4.66037C2.38953 4.66037 1.68127 3.95212 1.68127 3.08164C1.68127 2.21248 2.38953 1.50537 3.26001 1.50537C4.12926 1.50537 4.83628 2.21248 4.83628 3.08164C4.83628 3.95212 4.12926 4.66037 3.26001 4.66037ZM3.26001 2.04823C2.68888 2.04823 2.22413 2.51183 2.22413 3.08164C2.22413 3.65286 2.68888 4.11752 3.26001 4.11752C3.82991 4.11752 4.29342 3.65286 4.29342 3.08164C4.29342 2.51183 3.82991 2.04823 3.26001 2.04823Z" fill="#181818"/>
</svg>
