<svg width="38" height="38" viewBox="0 0 38 38" fill="none" xmlns="http://www.w3.org/2000/svg">
<g clip-path="url(#clip0_517_10914)">
<path d="M30.9473 8.0195V33.0387C30.9473 34.7252 29.5801 36.0924 27.8936 36.0924H7.79181C6.1053 36.0924 4.7381 34.7252 4.7381 33.0387V8.0195C4.7381 6.33299 6.1053 4.96582 7.79181 4.96582H27.8936C29.5801 4.96582 30.9473 6.33299 30.9473 8.0195Z" fill="#DABCBC"/>
<path d="M30.9464 31.7119V33.0402C30.9464 34.7266 29.5784 36.091 27.8919 36.091H7.79168C6.10524 36.091 4.73724 34.7266 4.73724 33.0402V26.9131C8.30924 31.6866 14.0057 34.7772 20.4259 34.7772C24.2982 34.7772 27.9064 33.6518 30.9464 31.7119Z" fill="#BC9595"/>
<path d="M8.61782 33.9774C7.64295 33.9774 6.85266 33.1871 6.85266 32.2123V8.8452C6.85266 7.87037 7.64295 7.08008 8.61782 7.08008H27.0676C28.0425 7.08008 28.8328 7.87037 28.8328 8.8452V32.2123C28.8328 33.1871 28.0425 33.9774 27.0676 33.9774H8.61782Z" fill="white"/>
<path d="M28.8329 29.8046V32.2113C28.8329 33.1884 28.0439 33.9774 27.0667 33.9774H8.61687C7.64335 33.9774 6.85443 33.1884 6.85443 32.2113V8.8467C6.85443 7.86948 7.64335 7.08057 8.61687 7.08057H10.354C9.64106 8.94807 9.25382 10.971 9.25382 13.0846C9.25382 22.4326 16.8321 30.0109 26.1801 30.0109C27.0813 30.0109 27.9679 29.9385 28.8329 29.8046Z" fill="#DDDDDD"/>
<path d="M32.7568 8.29085C32.6069 8.29085 32.4853 8.16936 32.4853 8.01942C32.4853 6.26309 31.505 4.68568 29.9266 3.90276C29.7923 3.83614 29.7375 3.6733 29.8041 3.539C29.8707 3.40487 30.0333 3.34992 30.168 3.41645C31.9322 4.29161 33.0282 6.05537 33.0282 8.01942C33.0282 8.16936 32.9066 8.29085 32.7568 8.29085Z" fill="#181818"/>
<path d="M28.8332 3.51881C28.8158 3.51881 28.7983 3.51713 28.7804 3.51359C28.4906 3.45652 28.1921 3.42762 27.8935 3.42762C27.7436 3.42762 27.6221 3.30613 27.6221 3.15619C27.6221 3.00625 27.7436 2.88477 27.8935 2.88477C28.2273 2.88477 28.5609 2.9171 28.8854 2.98098C29.0324 3.00988 29.1282 3.15266 29.0992 3.29968C29.0738 3.42912 28.9603 3.51881 28.8332 3.51881Z" fill="#181818"/>
<path d="M27.8935 36.3637H7.79191C5.95836 36.3637 4.46674 34.8721 4.46674 33.0386V8.01942C4.46674 6.18596 5.95836 4.69434 7.79191 4.69434H27.8935C29.7271 4.69434 31.2187 6.18596 31.2187 8.01942V33.0386C31.2187 34.8721 29.7271 36.3637 27.8935 36.3637ZM7.79191 5.23719C6.2577 5.23719 5.00959 6.4853 5.00959 8.01942V33.0386C5.00959 34.5728 6.2577 35.8209 7.79191 35.8209H27.8935C29.4277 35.8209 30.6759 34.5728 30.6759 33.0386V8.01942C30.6759 6.4853 29.4277 5.23719 27.8935 5.23719H7.79191Z" fill="#181818"/>
<path d="M27.0676 34.2488H8.61784C7.49484 34.2488 6.58124 33.3352 6.58124 32.2122V8.84519C6.58124 7.72219 7.49484 6.80859 8.61784 6.80859H27.0676C28.1906 6.80859 29.1042 7.72219 29.1042 8.84519V32.2122C29.1042 33.3352 28.1906 34.2488 27.0676 34.2488ZM8.61784 7.35145C7.79418 7.35145 7.12409 8.02154 7.12409 8.84519V32.2122C7.12409 33.0358 7.79418 33.7059 8.61784 33.7059H27.0676C27.8912 33.7059 28.5613 33.0358 28.5613 32.2122V8.84519C28.5613 8.02154 27.8912 7.35145 27.0676 7.35145H8.61784Z" fill="#181818"/>
<path d="M23.6649 5.10445V7.3121C23.6649 7.76086 23.303 8.12639 22.8542 8.12639H12.8331C12.3843 8.12639 12.0188 7.76086 12.0188 7.3121V5.10445C12.0188 4.65569 12.3843 4.29016 12.8331 4.29016H15.1637C15.1637 2.80994 16.3653 1.61572 17.8419 1.61572C19.3256 1.61572 20.5236 2.80994 20.5236 4.29016H22.8542C23.303 4.29016 23.6649 4.65569 23.6649 5.10445Z" fill="#5B5476"/>
<path d="M21.7178 7.22561C17.0999 7.22561 13.3036 5.93719 12.8548 4.29053H12.8331C12.3843 4.29053 12.0188 4.65605 12.0188 5.10481V7.31243C12.0188 7.76119 12.3843 8.12672 12.8331 8.12672H22.8542C23.303 8.12672 23.6649 7.76119 23.6649 7.31243V7.14961C23.0388 7.20024 22.3874 7.22561 21.7178 7.22561Z" fill="#3F3B5B"/>
<path d="M22.8542 8.39776H12.8331C12.2344 8.39776 11.7474 7.91074 11.7474 7.31204V5.10439C11.7474 4.50569 12.2344 4.01868 12.8331 4.01868H14.9047C15.0423 2.52105 16.3071 1.34424 17.8418 1.34424C19.3785 1.34424 20.6448 2.52105 20.7826 4.01868H22.8542C23.4508 4.01868 23.9362 4.50569 23.9362 5.10439V7.31204C23.9362 7.91074 23.4508 8.39776 22.8542 8.39776ZM12.8331 4.56153C12.5337 4.56153 12.2902 4.80504 12.2902 5.10439V7.31204C12.2902 7.61139 12.5337 7.8549 12.8331 7.8549H22.8542C23.1514 7.8549 23.3934 7.61139 23.3934 7.31204V5.10439C23.3934 4.80504 23.1514 4.56153 22.8542 4.56153H20.5236C20.3737 4.56153 20.2521 4.44004 20.2521 4.2901C20.2521 2.96512 19.1708 1.8871 17.8418 1.8871C16.5147 1.8871 15.4352 2.96512 15.4352 4.2901C15.4352 4.44004 15.3136 4.56153 15.1637 4.56153H12.8331Z" fill="#181818"/>
<path d="M2.98975 16.5653C2.8399 16.5653 2.71832 16.4437 2.71832 16.2938V11.0971C2.71832 10.9472 2.8399 10.8257 2.98975 10.8257C3.1396 10.8257 3.26118 10.9472 3.26118 11.0971V16.2938C3.26118 16.4437 3.1396 16.5653 2.98975 16.5653Z" fill="#181818"/>
<path d="M2.98975 10.083C2.8399 10.083 2.71832 9.96154 2.71832 9.8116V9.42231C2.71832 9.27237 2.8399 9.15088 2.98975 9.15088C3.1396 9.15088 3.26118 9.27237 3.26118 9.42231V9.8116C3.26118 9.96154 3.1396 10.083 2.98975 10.083Z" fill="#181818"/>
<path d="M4.73796 3.14586C4.73796 3.84818 4.16992 4.41622 3.47003 4.41622C2.76775 4.41622 2.19971 3.84818 2.19971 3.14586C2.19971 2.44601 2.76775 1.87793 3.47003 1.87793C4.16992 1.87793 4.73796 2.44601 4.73796 3.14586Z" fill="#C3C9FB"/>
<path d="M4.73811 3.14528C4.73811 3.84661 4.16865 4.41607 3.47032 4.41607C2.92185 4.41607 2.4513 4.06542 2.27448 3.57689C2.46632 3.69378 2.69407 3.76269 2.93683 3.76269C3.63817 3.76269 4.20763 3.19323 4.20763 2.49193C4.20763 2.34507 4.18363 2.20121 4.13568 2.06934C4.49534 2.29111 4.73811 2.68971 4.73811 3.14528Z" fill="#8693E2"/>
<path d="M3.47009 4.68767C2.61993 4.68767 1.92828 3.99602 1.92828 3.14587C1.92828 2.29703 2.61993 1.60645 3.47009 1.60645C4.31883 1.60645 5.00942 2.29703 5.00942 3.14587C5.00942 3.99602 4.31883 4.68767 3.47009 4.68767ZM3.47009 2.1493C2.91928 2.1493 2.47114 2.59638 2.47114 3.14587C2.47114 3.69668 2.91928 4.14481 3.47009 4.14481C4.01949 4.14481 4.46656 3.69668 4.46656 3.14587C4.46656 2.59638 4.01949 2.1493 3.47009 2.1493Z" fill="#181818"/>
<path d="M26.3015 23.6577L28.4164 19.3266L30.865 20.5223L28.7501 24.8534L26.3015 23.6577Z" fill="#ABECEF"/>
<path d="M28.3412 21.9652C27.9675 22.7307 27.6583 23.4907 27.4166 24.2137L26.2849 23.6611L28.3991 19.3306L29.6307 19.9318C29.0664 20.6992 28.8368 20.9499 28.3412 21.9652Z" fill="#75C5C9"/>
<path d="M25.4529 28.4726C25.6655 27.7879 25.464 27.032 24.9402 26.5395C24.7002 26.3138 24.6626 25.947 24.8534 25.6784L26.2861 23.6616L28.7338 24.8566L28.0248 27.2267C27.9304 27.5423 27.618 27.7383 27.2925 27.6879C26.582 27.5777 25.862 27.8839 25.4529 28.4726Z" fill="#C3C9FB"/>
<path d="M31.719 20.557L35.0006 13.8353C35.5235 12.7641 35.0791 11.4718 34.0078 10.9488C32.9366 10.4258 31.6443 10.8703 31.1213 11.9415L27.8398 18.6632C27.7536 18.8396 27.8268 19.0524 28.0032 19.1386L31.2437 20.7205C31.4201 20.8067 31.6329 20.7335 31.719 20.557Z" fill="#F56691"/>
<path d="M31.7645 20.4668L31.7206 20.5567C31.6345 20.7331 31.4215 20.8064 31.2451 20.7202L28.003 19.1374C27.8265 19.0513 27.7533 18.8384 27.8395 18.6619L31.1204 11.9414C31.382 11.4055 31.8356 11.0251 32.359 10.8479C32.8809 10.6657 33.4725 10.6866 34.0084 10.9482C34.1315 11.0083 34.2482 11.0818 34.3566 11.1636C33.3588 11.9748 32.2447 13.4631 31.3445 15.3072C29.7991 18.4727 30.2808 19.8249 31.4225 20.3822C31.529 20.4342 31.6435 20.4614 31.7645 20.4668Z" fill="#F76189"/>
<path d="M28.7338 25.1282C28.693 25.1282 28.6522 25.119 28.6147 25.1006L26.1671 23.9057C26.0324 23.8399 25.9766 23.6775 26.0423 23.5427L28.1558 19.2133C28.1873 19.1486 28.2433 19.0991 28.3115 19.0756C28.3795 19.0526 28.4541 19.0567 28.5188 19.0885L30.9664 20.2836C31.1011 20.3494 31.1569 20.5119 31.0912 20.6466L28.9777 24.9758C28.9462 25.0405 28.8902 25.09 28.8222 25.1133C28.7934 25.1232 28.7635 25.1282 28.7338 25.1282ZM26.6492 23.5371L28.6091 24.4938L30.4843 20.6522L28.5244 19.6953L26.6492 23.5371Z" fill="#181818"/>
<path d="M31.3991 21.0286C31.3051 21.0286 31.2116 21.0072 31.1247 20.9648L27.8842 19.3825C27.7338 19.3092 27.6209 19.1816 27.5664 19.0233C27.5118 18.8648 27.5224 18.6948 27.596 18.5442L30.8775 11.8225C31.1622 11.2393 31.657 10.8019 32.2707 10.5908C32.8847 10.3799 33.5437 10.4203 34.127 10.7049C34.7104 10.9898 35.1477 11.4846 35.3587 12.0984C35.5699 12.7121 35.5292 13.3713 35.2444 13.9546L31.9628 20.6762C31.8895 20.8268 31.7619 20.9395 31.6036 20.9941C31.5368 21.0171 31.4677 21.0286 31.3991 21.0286ZM33.0627 11.0006C32.8559 11.0006 32.6485 11.0349 32.4472 11.1041C31.9706 11.2681 31.5863 11.6077 31.3652 12.0607L28.0837 18.7824C28.0711 18.8082 28.0745 18.8315 28.0798 18.8465C28.084 18.8589 28.0952 18.8814 28.1224 18.8948L31.3627 20.4769C31.3887 20.4896 31.4119 20.4859 31.4269 20.4808C31.4419 20.4757 31.4624 20.464 31.4749 20.4382L34.7567 13.7164C34.9777 13.2634 35.0093 12.7515 34.8454 12.2748C34.6816 11.7982 34.3417 11.414 33.8888 11.1927C33.6271 11.0651 33.3456 11.0006 33.0627 11.0006Z" fill="#181818"/>
<path d="M25.4528 28.7442C25.4127 28.7442 25.372 28.7353 25.3339 28.7166C25.2135 28.6579 25.154 28.5201 25.1937 28.3923C25.375 27.8083 25.2026 27.1587 24.7543 26.7373C24.4171 26.4202 24.3646 25.8975 24.6322 25.5213L26.0649 23.5045C26.1416 23.3964 26.2856 23.3591 26.4053 23.4179L28.8529 24.6128C28.9722 24.6712 29.0319 24.8072 28.9939 24.9345L28.285 27.3045C28.1528 27.7468 27.7069 28.0266 27.251 27.9562C26.6433 27.8617 26.0245 28.1255 25.676 28.6276C25.6237 28.7027 25.5394 28.7442 25.4528 28.7442ZM26.374 24.0067L25.0746 25.8359C24.9635 25.9923 24.9856 26.2096 25.1261 26.3418C25.5254 26.7173 25.7608 27.2287 25.8011 27.7595C26.2443 27.465 26.7921 27.3358 27.3341 27.4197C27.5242 27.4487 27.7099 27.333 27.7647 27.149L28.4078 24.9997L26.374 24.0067Z" fill="#181818"/>
<path d="M33.924 20.2239C33.884 20.2239 33.8434 20.215 33.805 20.1963C33.6704 20.1306 33.6145 19.968 33.6803 19.8333L35.8427 15.4041C36.044 14.9916 35.8722 14.4921 35.4596 14.2908L34.9095 14.0221C34.7748 13.9564 34.719 13.7939 34.7847 13.6591C34.8506 13.5244 35.0129 13.4688 35.1477 13.5343L35.6978 13.803C36.3794 14.1355 36.6632 14.9607 36.3304 15.6423L34.168 20.0715C34.121 20.1679 34.0243 20.2239 33.924 20.2239Z" fill="#181818"/>
<path d="M25.4825 28.6828C25.4426 28.6828 25.4019 28.674 25.3636 28.6552C25.2289 28.5895 25.1731 28.4271 25.2388 28.2923L26.3839 25.9464C26.4495 25.8118 26.612 25.7556 26.7469 25.8217C26.8815 25.8874 26.9374 26.0498 26.8716 26.1846L25.7265 28.5305C25.6795 28.6268 25.583 28.6828 25.4825 28.6828Z" fill="#181818"/>
<path d="M28.5735 22.3517C28.5336 22.3517 28.4929 22.3429 28.4546 22.3241C28.3199 22.2584 28.2641 22.096 28.3298 21.9612L29.3797 19.8106C29.4454 19.6761 29.6076 19.6199 29.7426 19.6858C29.8773 19.7516 29.9331 19.914 29.8674 20.0488L28.8175 22.1994C28.7705 22.2957 28.674 22.3517 28.5735 22.3517Z" fill="#181818"/>
<path d="M36.3377 34.3798C35.3423 34.2798 34.3759 34.7876 33.8907 35.6624C33.8617 35.7145 33.7874 35.6913 33.7933 35.6319C33.8448 35.1335 33.7434 34.6432 33.5179 34.216C33.297 33.7902 32.9527 33.4252 32.5137 33.1834C32.4616 33.1544 32.4849 33.0801 32.5442 33.0859C33.0427 33.1375 33.5336 33.0338 33.9602 32.8106C34.3866 32.5873 34.7494 32.2423 34.9911 31.8033C35.0202 31.7512 35.0944 31.7745 35.0886 31.8338C35.0371 32.3323 35.1384 32.8226 35.3617 33.249C35.5849 33.6755 35.9292 34.0406 36.3682 34.2824C36.4202 34.3114 36.397 34.3856 36.3377 34.3798Z" fill="#AFF2B6"/>
<path d="M36.339 34.3791C35.3417 34.2783 34.3756 34.7867 33.8899 35.6635C33.8605 35.7132 33.788 35.6905 33.7921 35.6329C33.8408 35.1562 33.7548 34.6894 33.5506 34.2791C34.3177 34.3736 35.0634 33.928 35.3319 33.1807C35.3385 33.2035 35.3515 33.2284 35.3624 33.2491C35.5857 33.6757 35.9291 34.0395 36.3696 34.2813C36.4193 34.3106 36.3956 34.3864 36.339 34.3791Z" fill="#7FD685"/>
<path d="M33.8452 35.9633C33.8128 35.9633 33.78 35.9583 33.7476 35.9482C33.6001 35.9019 33.5078 35.7611 33.523 35.6056C33.5683 35.1686 33.4834 34.7325 33.2779 34.343C33.074 33.95 32.7648 33.6319 32.3827 33.4213C32.2451 33.3446 32.182 33.1884 32.2281 33.0408C32.2744 32.8932 32.4152 32.8008 32.5707 32.816C33.006 32.8607 33.4416 32.7759 33.8342 32.5702C34.2247 32.3659 34.5427 32.0555 34.7533 31.6725C34.8303 31.5347 34.9857 31.4718 35.1339 31.5179C35.2815 31.5642 35.3739 31.705 35.3587 31.8605C35.3136 32.2968 35.3979 32.733 35.6022 33.1235C35.8077 33.5163 36.118 33.8348 36.4992 34.0449C36.6372 34.1223 36.6999 34.2785 36.6536 34.4259C36.6072 34.5734 36.4624 34.6644 36.3112 34.6503C36.311 34.6503 36.3108 34.6501 36.3105 34.6501C35.4197 34.5616 34.563 35.0097 34.1281 35.7943C34.0682 35.9014 33.9599 35.9633 33.8452 35.9633ZM33.1915 33.3423C33.42 33.5554 33.6119 33.8081 33.7588 34.0913C33.9072 34.3725 34.0051 34.674 34.0498 34.9839C34.4822 34.5183 35.062 34.2147 35.6906 34.1242C35.4623 33.9113 35.2696 33.6588 35.1212 33.3751C34.9738 33.0933 34.8766 32.7922 34.8321 32.4831C34.6195 32.7114 34.3681 32.9037 34.086 33.0512C33.8028 33.1995 33.5008 33.2972 33.1915 33.3423Z" fill="#181818"/>
<path d="M26.5279 31.8114H19.3776C19.2278 31.8114 19.1062 31.6898 19.1062 31.54C19.1062 31.3901 19.2278 31.2686 19.3776 31.2686H26.5279C26.6778 31.2686 26.7993 31.3901 26.7993 31.54C26.7993 31.6898 26.6778 31.8114 26.5279 31.8114Z" fill="#181818"/>
<path d="M19.3776 28.3602H10.6737C10.5239 28.3602 10.4023 28.2387 10.4023 28.0888C10.4023 27.939 10.5239 27.8174 10.6737 27.8174H19.3776C19.5275 27.8174 19.6491 27.939 19.6491 28.0888C19.6491 28.2387 19.5275 28.3602 19.3776 28.3602Z" fill="#181818"/>
<path d="M23.694 25.2089H9.15754C9.00769 25.2089 8.88611 25.0873 8.88611 24.9374C8.88611 24.7876 9.00769 24.666 9.15754 24.666H23.694C23.8438 24.666 23.9654 24.7876 23.9654 24.9374C23.9654 25.0873 23.8438 25.2089 23.694 25.2089Z" fill="#181818"/>
<path d="M15.9998 22.057H9.15754C9.00769 22.057 8.88611 21.9354 8.88611 21.7856C8.88611 21.6357 9.00769 21.5142 9.15754 21.5142H15.9998C16.1497 21.5142 16.2712 21.6357 16.2712 21.7856C16.2712 21.9354 16.1497 22.057 15.9998 22.057Z" fill="#181818"/>
<path d="M26.1211 22.057H17.5831C17.4333 22.057 17.3117 21.9354 17.3117 21.7856C17.3117 21.6357 17.4333 21.5142 17.5831 21.5142H26.1211C26.271 21.5142 26.3925 21.6357 26.3925 21.7856C26.3925 21.9354 26.271 22.057 26.1211 22.057Z" fill="#181818"/>
<path d="M21.2313 18.9057H9.15754C9.00769 18.9057 8.88611 18.7841 8.88611 18.6342C8.88611 18.4844 9.00769 18.3628 9.15754 18.3628H21.2313C21.3812 18.3628 21.5028 18.4844 21.5028 18.6342C21.5028 18.7841 21.3812 18.9057 21.2313 18.9057Z" fill="#181818"/>
<path d="M26.5279 18.9057H22.663C22.5132 18.9057 22.3916 18.7841 22.3916 18.6342C22.3916 18.4844 22.5132 18.3628 22.663 18.3628H26.5279C26.6777 18.3628 26.7993 18.4844 26.7993 18.6342C26.7993 18.7841 26.6777 18.9057 26.5279 18.9057Z" fill="#181818"/>
<path d="M11.2272 15.7538H9.15754C9.00769 15.7538 8.88611 15.6322 8.88611 15.4824C8.88611 15.3325 9.00769 15.2109 9.15754 15.2109H11.2272C11.377 15.2109 11.4986 15.3325 11.4986 15.4824C11.4986 15.6322 11.377 15.7538 11.2272 15.7538Z" fill="#181818"/>
<path d="M26.5279 15.7538H12.5617C12.4119 15.7538 12.2903 15.6322 12.2903 15.4824C12.2903 15.3325 12.4119 15.2109 12.5617 15.2109H26.5279C26.6778 15.2109 26.7993 15.3325 26.7993 15.4824C26.7993 15.6322 26.6778 15.7538 26.5279 15.7538Z" fill="#181818"/>
<path d="M11.1151 12.4812C11.1035 12.438 11.0959 12.3696 11.0927 12.2778L11.0807 11.9378C11.0743 11.7777 11.0432 11.6632 10.9858 11.5878C10.9474 11.5375 10.8962 11.4937 10.8329 11.457C10.9125 11.4023 10.9778 11.3359 11.028 11.2587C11.0962 11.1533 11.1307 11.0181 11.1307 10.8566C11.1307 10.5437 10.9999 10.3257 10.7416 10.2085C10.6097 10.1492 10.4415 10.1191 10.2415 10.1191H9.01422V12.7617H9.4659V11.675H10.1932C10.3249 11.675 10.4208 11.689 10.4781 11.7161C10.5748 11.7634 10.6253 11.8573 10.6322 12.0029L10.653 12.4254C10.6578 12.5284 10.6638 12.5965 10.6712 12.6336C10.6792 12.6739 10.69 12.7062 10.7039 12.7329L10.7193 12.7617H11.2272V12.615L11.1945 12.6007C11.1581 12.585 11.1314 12.5449 11.1151 12.4812ZM10.6737 10.8892C10.6737 11.0395 10.6354 11.1389 10.5566 11.193C10.4724 11.2508 10.3542 11.2801 10.2053 11.2801H9.4659V10.5227H10.2501C10.3585 10.5227 10.4451 10.5382 10.5071 10.5687C10.6191 10.6247 10.6737 10.7296 10.6737 10.8892Z" fill="#181818"/>
<path d="M13.0141 11.1203C12.9446 11.0148 12.8428 10.9281 12.7119 10.8627C12.582 10.7977 12.4454 10.7646 12.3064 10.7646C12.0312 10.7646 11.805 10.8643 11.634 11.061C11.4649 11.2556 11.3792 11.5107 11.3792 11.8194C11.3792 12.1336 11.4649 12.3828 11.634 12.5599C11.8038 12.7376 12.0137 12.8276 12.2581 12.8276C12.3564 12.8276 12.446 12.8179 12.5239 12.7986C12.6725 12.7643 12.7988 12.697 12.8989 12.5991C12.9593 12.5424 13.0143 12.469 13.0621 12.381C13.1107 12.2916 13.1399 12.2086 13.1486 12.1345L13.1556 12.074H12.7481L12.737 12.1136C12.7165 12.1868 12.681 12.2521 12.6319 12.3074C12.5453 12.4034 12.4315 12.45 12.2839 12.45C12.1272 12.45 12.0157 12.4017 11.943 12.3024C11.8754 12.2097 11.8354 12.0872 11.8238 11.9375H13.1749V11.8832C13.1749 11.6913 13.1655 11.5544 13.1466 11.4672C13.1245 11.3359 13.08 11.2191 13.0141 11.1203ZM11.9681 11.2814C12.0549 11.1889 12.1593 11.144 12.2874 11.144C12.467 11.144 12.5909 11.2084 12.6663 11.3408C12.7015 11.4024 12.7262 11.4834 12.7404 11.5823H11.8335C11.8473 11.4616 11.8916 11.3627 11.9681 11.2814Z" fill="#181818"/>
<path d="M15.1026 12.4408C15.0512 12.4459 15.0233 12.4377 15.0226 12.4375C15.0157 12.4274 15.012 12.411 15.012 12.3904V11.3261C15.012 11.1319 14.9355 10.9864 14.7842 10.8933C14.6404 10.8057 14.4527 10.7612 14.2263 10.7612C14.0293 10.7612 13.8533 10.8089 13.7033 10.9032C13.5455 11.0024 13.4622 11.1772 13.4562 11.4231L13.4548 11.4787H13.8483L13.8542 11.4309C13.8644 11.346 13.8856 11.2824 13.9174 11.2421C13.974 11.169 14.0758 11.132 14.2194 11.132C14.3486 11.132 14.4477 11.1533 14.5138 11.1951C14.5729 11.2325 14.6017 11.2929 14.6017 11.3795C14.6017 11.4332 14.5935 11.4607 14.5863 11.4751C14.5762 11.4963 14.5547 11.5255 14.4852 11.5345L13.9902 11.5965C13.8063 11.6197 13.6548 11.6827 13.5402 11.7839C13.4214 11.8886 13.3613 12.0364 13.3613 12.2232C13.3613 12.3942 13.4218 12.5389 13.5412 12.653C13.6598 12.7666 13.8137 12.8242 13.9987 12.8242C14.1491 12.8242 14.2892 12.7914 14.4151 12.7267C14.5004 12.6831 14.573 12.6329 14.6322 12.5772C14.6425 12.6102 14.6552 12.6387 14.6706 12.6629C14.7293 12.7552 14.8229 12.8018 14.9491 12.8018C14.9959 12.8018 15.0328 12.7999 15.0602 12.7962C15.0871 12.7924 15.1265 12.7834 15.1779 12.7686L15.2173 12.7575V12.4224L15.1537 12.4336C15.1355 12.4368 15.1184 12.4392 15.1026 12.4408ZM14.593 11.8551V12.0178C14.593 12.1876 14.5183 12.3066 14.3645 12.3814C14.1972 12.4644 14.0005 12.4874 13.8718 12.3858C13.8195 12.3445 13.7941 12.289 13.7941 12.2162C13.7941 12.1179 13.8319 12.0487 13.9102 12.0046C13.9597 11.9761 14.0383 11.9546 14.1436 11.9405L14.3313 11.9165C14.391 11.9093 14.4529 11.8972 14.5147 11.8805C14.5432 11.8728 14.5691 11.8644 14.593 11.8551Z" fill="#181818"/>
<path d="M15.4211 10.1191H15.8402V12.7618H15.4211V10.1191Z" fill="#181818"/>
<path d="M17.33 11.6008H18.7291V11.199H17.33V10.5381H18.8429V10.1191H16.8868V12.7617H18.8687V12.3514H17.33V11.6008Z" fill="#181818"/>
<path d="M20.4835 11.7537C20.4015 11.6991 20.2491 11.6452 20.0176 11.5891L19.8125 11.5391C19.7287 11.5186 19.6655 11.4953 19.6243 11.4695C19.5608 11.4309 19.5312 11.3842 19.5312 11.3227C19.5312 11.266 19.5531 11.2234 19.6001 11.1885C19.6503 11.1511 19.7291 11.132 19.834 11.132C19.9927 11.132 20.1039 11.167 20.1617 11.233C20.1993 11.2826 20.22 11.336 20.2249 11.396L20.229 11.4459H20.6255L20.6266 11.3927C20.6291 11.2614 20.5877 11.1376 20.5034 11.0243C20.3702 10.8475 20.1532 10.7578 19.8581 10.7578C19.6329 10.7578 19.4502 10.8167 19.3149 10.933C19.177 11.0514 19.107 11.208 19.107 11.3986C19.107 11.5662 19.1829 11.6989 19.3318 11.7926C19.4122 11.8447 19.5317 11.8898 19.6966 11.9308L19.9432 11.9929C20.1012 12.0327 20.1675 12.0598 20.1945 12.0749C20.2481 12.1067 20.2732 12.1493 20.2732 12.2093C20.2732 12.2949 20.2401 12.3537 20.1693 12.3942C20.0906 12.4393 19.9975 12.4622 19.8927 12.4622C19.7179 12.4622 19.5953 12.4186 19.5285 12.3332C19.4926 12.2866 19.4704 12.2161 19.4621 12.1235L19.4576 12.074H19.0528L19.0553 12.1307C19.0638 12.3268 19.1304 12.4942 19.2532 12.6281C19.3778 12.764 19.5877 12.8329 19.8772 12.8329C20.1458 12.8329 20.35 12.7676 20.4849 12.6384C20.62 12.5088 20.6886 12.3522 20.6886 12.1731C20.6886 11.9842 20.6195 11.843 20.4835 11.7537Z" fill="#181818"/>
<path d="M21.4201 10.29H20.9977V10.8059H20.7475V11.1679H20.9977V12.3367C20.9977 12.466 21.0271 12.5738 21.085 12.6568C21.1474 12.7459 21.2616 12.7911 21.4245 12.7911C21.4717 12.7911 21.5155 12.7886 21.556 12.7839C21.5977 12.7789 21.6381 12.7708 21.6761 12.7597L21.7152 12.7482V12.4026L21.6554 12.4086C21.6339 12.4108 21.6152 12.4122 21.5985 12.4127C21.5072 12.4159 21.4657 12.4055 21.4556 12.4002C21.4459 12.3954 21.4201 12.3825 21.4201 12.3195V11.1679H21.7152V10.8059H21.4201V10.29Z" fill="#181818"/>
<path d="M23.572 12.4409C23.5209 12.4456 23.4928 12.4377 23.492 12.4375C23.4852 12.4274 23.4815 12.4112 23.4815 12.3904V11.3261C23.4815 11.1321 23.405 10.9864 23.2538 10.8933C23.1099 10.8057 22.9222 10.7612 22.6959 10.7612C22.4988 10.7612 22.3228 10.8089 22.1728 10.9032C22.015 11.0022 21.9318 11.1771 21.9258 11.4231L21.9244 11.4787H22.3179L22.3237 11.4309C22.334 11.346 22.3552 11.2824 22.387 11.242C22.4435 11.169 22.5451 11.132 22.689 11.132C22.8182 11.132 22.9173 11.1533 22.9834 11.1951C23.0424 11.2325 23.0712 11.2929 23.0712 11.3795C23.0712 11.4332 23.0631 11.4607 23.0558 11.4751C23.0458 11.4963 23.0242 11.5255 22.9546 11.5345L22.4598 11.5965C22.2758 11.6197 22.1244 11.6827 22.0097 11.7839C21.891 11.8885 21.8309 12.0362 21.8309 12.2232C21.8309 12.3943 21.8913 12.5389 22.0106 12.653C22.1292 12.7666 22.2831 12.8242 22.4681 12.8242C22.6187 12.8242 22.7588 12.7914 22.8844 12.7267C22.9698 12.6831 23.0424 12.633 23.1016 12.5774C23.1119 12.6101 23.1246 12.6385 23.1399 12.6629C23.1988 12.7552 23.2926 12.8018 23.4186 12.8018C23.4655 12.8018 23.5024 12.7999 23.5298 12.7962C23.5566 12.7924 23.5959 12.7834 23.6475 12.7686L23.6869 12.7575V12.4224L23.6233 12.4336C23.6051 12.4368 23.5879 12.4392 23.572 12.4409ZM23.0625 11.8551V12.0178C23.0625 12.1876 22.9878 12.3066 22.8341 12.3814C22.6665 12.4644 22.4693 12.4874 22.3416 12.3858C22.2893 12.3445 22.2636 12.289 22.2636 12.2162C22.2636 12.1179 22.3015 12.0487 22.3796 12.0046C22.4292 11.9761 22.5079 11.9546 22.613 11.9405L22.8005 11.9165C22.8606 11.9093 22.9222 11.8972 22.9843 11.8805C23.0127 11.8728 23.0387 11.8644 23.0625 11.8551Z" fill="#181818"/>
<path d="M24.3665 10.29H23.944V10.8059H23.694V11.1679H23.944V12.3367C23.944 12.4659 23.9734 12.5736 24.0315 12.6568C24.0937 12.7459 24.2078 12.7911 24.371 12.7911C24.4181 12.7911 24.462 12.7886 24.5024 12.7839C24.5443 12.7789 24.5846 12.7708 24.6226 12.7597L24.6615 12.7482V12.4026L24.6017 12.4086C24.5802 12.4108 24.5614 12.4122 24.545 12.4127C24.4549 12.4163 24.4123 12.4056 24.4021 12.4002C24.3923 12.3954 24.3665 12.3825 24.3665 12.3195V11.1679H24.6615V10.8059H24.3665V10.29Z" fill="#181818"/>
<path d="M26.5556 11.8832C26.5556 11.6913 26.5463 11.5544 26.5274 11.4673C26.5056 11.3362 26.4609 11.2194 26.3948 11.1203C26.3254 11.0149 26.2238 10.9282 26.0927 10.8626C25.9626 10.7976 25.8262 10.7646 25.6871 10.7646C25.4121 10.7646 25.1859 10.8643 25.0147 11.061C24.8458 11.2554 24.7601 11.5106 24.7601 11.8194C24.7601 12.1338 24.8458 12.383 25.0149 12.5599C25.1844 12.7375 25.3945 12.8276 25.6389 12.8276C25.7371 12.8276 25.8267 12.8179 25.9046 12.7986C26.0531 12.7643 26.1796 12.697 26.2798 12.5991C26.3402 12.5424 26.3952 12.469 26.4431 12.381C26.4915 12.2921 26.5206 12.2092 26.5295 12.1347L26.5367 12.074H26.1291L26.1179 12.1136C26.0974 12.1866 26.0619 12.2519 26.0126 12.3074C25.926 12.4034 25.8122 12.45 25.6647 12.45C25.5079 12.45 25.3964 12.4017 25.3238 12.3024C25.2561 12.2097 25.2162 12.0872 25.2045 11.9375H26.5556V11.8832ZM25.6682 11.144C25.8479 11.144 25.9718 11.2084 26.0471 11.3408C26.0822 11.4024 26.107 11.4834 26.1211 11.5823H25.2142C25.228 11.4618 25.2724 11.363 25.3489 11.2814C25.4356 11.1889 25.5401 11.144 25.6682 11.144Z" fill="#181818"/>
<path d="M9.8427 34.5658C11.363 32.548 10.9597 29.6798 8.94189 28.1595C6.92408 26.6392 4.05588 27.0425 2.53558 29.0603C1.01528 31.0781 1.41859 33.9463 3.4364 35.4666C5.4542 36.9869 8.32241 36.5836 9.8427 34.5658Z" fill="#FFD9B0"/>
<path d="M9.58846 34.8566C8.71496 35.8322 7.43135 36.4295 6.0224 36.3821C3.4986 36.297 1.52063 34.1831 1.60567 31.6594C1.65494 30.1725 2.4093 28.8744 3.53682 28.0767C2.84511 28.8474 2.41129 29.8568 2.37308 30.973C2.28941 33.4974 4.26682 35.6127 6.79119 35.6963C7.83149 35.732 8.80089 35.4163 9.58846 34.8566Z" fill="#EDB57E"/>
<path d="M8.7785 33.7607C9.84777 32.32 9.54658 30.2852 8.10578 29.2159C6.66498 28.1465 4.63016 28.4474 3.5609 29.8881C2.49163 31.3287 2.79282 33.3635 4.23362 34.4329C5.67442 35.5023 7.70923 35.2013 8.7785 33.7607Z" fill="white"/>
<path d="M8.7195 33.8312C8.10192 34.6088 7.13588 35.0947 6.06642 35.0582C4.27456 34.9979 2.86826 33.4963 2.92922 31.7031C2.96341 30.6622 3.48466 29.752 4.26567 29.1846C3.84594 29.7116 3.58751 30.3724 3.563 31.0962C3.50342 32.8901 4.90778 34.3924 6.70159 34.452C7.45317 34.4768 8.15519 34.243 8.7195 33.8312Z" fill="#DDDDDD"/>
<path d="M6.17975 36.6556C6.12444 36.6556 6.0693 36.6547 6.01399 36.6528C3.34441 36.5637 1.24491 34.3193 1.33397 31.6497C1.37709 30.3566 1.92136 29.1576 2.86641 28.2735C3.81164 27.3894 5.05162 26.9254 6.3372 26.9697C7.63037 27.0128 8.82936 27.5571 9.71327 28.5021C10.5972 29.4472 11.0603 30.6798 11.017 31.9729C10.9739 33.2661 10.4297 34.4651 9.48478 35.349C8.58019 36.1951 7.41213 36.6556 6.17975 36.6556ZM6.17374 27.5097C3.86766 27.5097 1.95405 29.3459 1.87647 31.6678C1.79748 34.0382 3.66161 36.0311 6.03202 36.1103C7.18223 36.1483 8.27484 35.7374 9.11386 34.9526C9.95289 34.1677 10.4362 33.1032 10.4745 31.9549C10.5129 30.8066 10.1017 29.7121 9.3169 28.8729C8.53195 28.0339 7.46744 27.5506 6.31917 27.5122C6.27058 27.5106 6.22198 27.5097 6.17374 27.5097Z" fill="#181818"/>
<path d="M6.17727 35.3313C6.13751 35.3313 6.09811 35.3308 6.05817 35.3294C5.11842 35.2979 4.24723 34.9026 3.60489 34.2159C2.96254 33.5292 2.62608 32.6335 2.65754 31.6939C2.72222 29.7538 4.35308 28.2245 6.29302 28.2932C8.23296 28.3581 9.75851 29.989 9.69365 31.9287C9.63021 33.8287 8.0642 35.3313 6.17727 35.3313ZM6.17303 28.8342C5.41565 28.8342 4.69785 29.1171 4.14191 29.637C3.56106 30.1803 3.22655 30.9172 3.20004 31.7119C3.14526 33.3527 4.43543 34.7321 6.0762 34.7869C7.71661 34.8369 9.09637 33.5513 9.15115 31.9107C9.17766 31.1159 8.89315 30.3583 8.34994 29.7776C7.80655 29.1968 7.06967 28.8623 6.275 28.8357C6.24089 28.8347 6.20696 28.8342 6.17303 28.8342Z" fill="#181818"/>
<path d="M6.53654 32.095C6.53336 32.095 6.53035 32.095 6.52717 32.0948L5.80566 32.0706C5.56056 32.0625 5.33331 31.9593 5.16561 31.7803C4.99809 31.6011 4.91026 31.3673 4.91857 31.122C4.93536 30.6163 5.35346 30.2171 5.86698 30.235L6.58849 30.259C7.09477 30.2759 7.49272 30.7016 7.47576 31.2077C7.47081 31.3576 7.34358 31.4794 7.19532 31.4698C7.04564 31.4649 6.92813 31.3392 6.93325 31.1894C6.93661 31.0892 6.90074 30.9936 6.83218 30.9204C6.76361 30.8471 6.67066 30.8048 6.57029 30.8015L5.84895 30.7775C5.63761 30.7683 5.46796 30.9333 5.46107 31.1402C5.45772 31.2406 5.49359 31.336 5.56215 31.4094C5.63072 31.4825 5.72367 31.5248 5.82386 31.5281L6.54555 31.5523C6.69522 31.5573 6.81274 31.6829 6.80761 31.8328C6.80267 31.9794 6.68215 32.095 6.53654 32.095Z" fill="#181818"/>
<path d="M6.51518 33.3886C6.50493 33.3886 6.49451 33.3884 6.48426 33.388L5.76239 33.3638C5.51747 33.3557 5.29022 33.2525 5.12252 33.0733C4.955 32.8941 4.86717 32.6605 4.87548 32.4153C4.8806 32.2654 5.01261 32.1449 5.15592 32.1532C5.30559 32.1581 5.42311 32.2838 5.41798 32.4336C5.41462 32.5338 5.4505 32.6292 5.51906 32.7026C5.58745 32.7757 5.6804 32.818 5.78059 32.8213L6.50246 32.8455C6.69949 32.8533 6.8831 32.6897 6.89016 32.4826C6.89706 32.2758 6.7343 32.1018 6.52738 32.0949L5.80569 32.0707C5.65601 32.0657 5.5385 31.9401 5.54362 31.7902C5.54875 31.6404 5.67386 31.5207 5.82406 31.5282L6.54558 31.5524C7.0515 31.5692 7.44946 31.9945 7.43267 32.5008C7.41606 32.9966 7.00732 33.3886 6.51518 33.3886Z" fill="#181818"/>
<path d="M6.21903 30.7895C6.21602 30.7895 6.21284 30.7895 6.20984 30.7893C6.05999 30.7844 5.94265 30.6589 5.9476 30.5091L5.95909 30.1638C5.96403 30.0141 6.09003 29.8964 6.23935 29.9015C6.3892 29.9065 6.50654 30.0319 6.50159 30.1818L6.4901 30.5271C6.48533 30.6738 6.36482 30.7895 6.21903 30.7895Z" fill="#181818"/>
<path d="M6.12113 33.7211C6.11812 33.7211 6.11494 33.7211 6.11194 33.721C5.96209 33.716 5.84475 33.5905 5.8497 33.4407L5.86119 33.0954C5.86613 32.9457 5.99372 32.8282 6.14145 32.8332C6.2913 32.8381 6.40864 32.9636 6.40369 33.1134L6.3922 33.4587C6.38743 33.6054 6.26691 33.7211 6.12113 33.7211Z" fill="#181818"/>
<path d="M22.9527 31.8115C22.8878 31.8115 22.824 31.7882 22.7739 31.7443C22.7019 31.6814 22.6685 31.5853 22.6857 31.4913C22.6848 31.4915 22.7152 30.9182 21.4257 30.2607C21.2679 30.1805 20.9808 30.0613 20.8352 30.169C20.6008 30.3418 20.5984 31.0389 20.6705 31.4558C20.6959 31.6035 20.5969 31.744 20.4492 31.7696C20.3015 31.7947 20.1612 31.6961 20.1354 31.5484C20.1113 31.4088 19.9168 30.1714 20.513 29.7321C20.8037 29.5176 21.1939 29.5332 21.6724 29.7772C22.6574 30.2794 23.0248 30.7862 23.157 31.137C23.6203 30.8597 24.5463 30.1191 25.2059 28.3844C25.2593 28.2442 25.4167 28.1742 25.5562 28.2271C25.6963 28.2805 25.7666 28.4372 25.7134 28.5773C24.7037 31.2321 23.1038 31.7765 23.0363 31.7982C23.0089 31.8073 22.9806 31.8115 22.9527 31.8115Z" fill="#181818"/>
<path d="M18.7539 4.05487C18.7539 4.55788 18.3449 4.96679 17.8419 4.96679C17.3424 4.96679 16.9335 4.55788 16.9335 4.05487C16.9335 3.55177 17.3424 3.14648 17.8419 3.14648C18.3449 3.14648 18.7539 3.55177 18.7539 4.05487Z" fill="white"/>
<path d="M17.8418 5.23816C17.1914 5.23816 16.6621 4.70732 16.6621 4.05481C16.6621 3.40425 17.1914 2.875 17.8418 2.875C18.4944 2.875 19.0253 3.40425 19.0253 4.05481C19.0253 4.70732 18.4944 5.23816 17.8418 5.23816ZM17.8418 3.41786C17.4907 3.41786 17.205 3.7036 17.205 4.05481C17.205 4.40797 17.4907 4.6953 17.8418 4.6953C18.1951 4.6953 18.4824 4.40797 18.4824 4.05481C18.4824 3.7036 18.1951 3.41786 17.8418 3.41786Z" fill="#181818"/>
</g>
<defs>
<clipPath id="clip0_517_10914">
<rect width="38" height="38" fill="white"/>
</clipPath>
</defs>
</svg>
