<svg width="38" height="38" viewBox="0 0 38 38" fill="none" xmlns="http://www.w3.org/2000/svg">
<path d="M34.6152 9.14215V27.1949C34.6152 28.3833 33.6518 29.3468 32.4633 29.3468H3.90105C2.7126 29.3468 1.74915 28.3833 1.74915 27.1949V9.14215C1.74915 7.95369 2.7126 6.99023 3.90105 6.99023H32.4633C33.6518 6.99023 34.6152 7.95369 34.6152 9.14215Z" fill="white"/>
<path d="M34.4233 28.0799C34.0873 28.8258 33.3339 29.3466 32.4624 29.3466H3.90218C2.71309 29.3466 1.74927 28.3827 1.74927 27.1936V9.14318C1.74927 7.95402 2.71309 6.99023 3.90218 6.99023H7.85718C5.35346 9.08037 3.91695 11.5139 3.91695 14.11C3.91695 21.9055 14.2753 28.2276 30.243 28.2276C31.6648 28.2276 33.0607 28.1759 34.4233 28.0799Z" fill="#DDDDDD"/>
<path d="M26.4607 13.254H11.7802C11.5978 13.254 11.45 13.1062 11.45 12.9238V11.4561C11.45 11.2738 11.5978 11.126 11.7802 11.126H26.4607C26.643 11.126 26.7909 11.2738 26.7909 11.4561V12.9238C26.7909 13.1062 26.643 13.254 26.4607 13.254Z" fill="#FFD9B0"/>
<path d="M26.7893 12.4714V12.9238C26.7893 13.1083 26.6445 13.2531 26.46 13.2531H11.7811C11.5965 13.2531 11.4518 13.1083 11.4518 12.9238V11.458C11.4518 11.2735 11.5965 11.125 11.7811 11.125H12.096V12.1384C12.096 12.3229 12.2444 12.4714 12.4253 12.4714H26.7893Z" fill="#EDB57E"/>
<path d="M32.4632 29.6182H3.90103C2.56491 29.6182 1.47778 28.5311 1.47778 27.1948V9.14217C1.47778 7.80588 2.56491 6.71875 3.90103 6.71875H32.4632C33.7995 6.71875 34.8866 7.80588 34.8866 9.14217V27.1948C34.8866 28.5311 33.7995 29.6182 32.4632 29.6182ZM3.90103 7.26161C2.86426 7.26161 2.02064 8.10523 2.02064 9.14217V27.1948C2.02064 28.2318 2.86426 29.0754 3.90103 29.0754H32.4632C33.5002 29.0754 34.3438 28.2318 34.3438 27.1948V9.14217C34.3438 8.10523 33.5002 7.26161 32.4632 7.26161H3.90103Z" fill="#181818"/>
<path d="M26.4606 13.5254H11.78C11.4483 13.5254 11.1785 13.2555 11.1785 12.9238V11.4561C11.1785 11.1243 11.4483 10.8545 11.78 10.8545H26.4606C26.7923 10.8545 27.0622 11.1243 27.0622 11.4561V12.9238C27.0622 13.2555 26.7923 13.5254 26.4606 13.5254ZM11.78 11.3973C11.7477 11.3973 11.7213 11.4237 11.7213 11.4561V12.9238C11.7213 12.9562 11.7477 12.9825 11.78 12.9825H26.4606C26.493 12.9825 26.5193 12.9562 26.5193 12.9238V11.4561C26.5193 11.4237 26.493 11.3973 26.4606 11.3973H11.78Z" fill="#181818"/>
<path d="M20.5389 31.9042H9.91889C9.76904 31.9042 9.64746 31.7827 9.64746 31.6328C9.64746 31.4828 9.76904 31.3613 9.91889 31.3613H20.5389C20.6887 31.3613 20.8103 31.4828 20.8103 31.6328C20.8103 31.7827 20.6887 31.9042 20.5389 31.9042Z" fill="#181818"/>
<path d="M7.98028 31.9042H7.19904C7.04919 31.9042 6.92761 31.7827 6.92761 31.6328C6.92761 31.4828 7.04919 31.3613 7.19904 31.3613H7.98028C8.13013 31.3613 8.25171 31.4828 8.25171 31.6328C8.25171 31.7827 8.13013 31.9042 7.98028 31.9042Z" fill="#181818"/>
<path d="M4.90149 3.54998C5.3846 3.45194 5.81512 3.21037 6.14995 2.8755C6.48482 2.54066 6.72397 2.11014 6.82205 1.62703C6.83399 1.56963 6.91054 1.56963 6.92248 1.62703C7.02056 2.11014 7.25973 2.54066 7.59457 2.8755C7.9294 3.21037 8.35992 3.45194 8.84303 3.54998C8.90043 3.56192 8.90043 3.63846 8.84303 3.65041C7.87917 3.84895 7.12102 4.60949 6.92248 5.57339C6.91054 5.63078 6.83399 5.63078 6.82205 5.57339C6.72397 5.09024 6.48482 4.65972 6.14756 4.32489C5.81512 3.99005 5.3846 3.74848 4.90149 3.65041" fill="#DABCBC"/>
<path d="M8.84425 3.64958C7.87836 3.84794 7.12064 4.60895 6.92224 5.57484C6.90925 5.6301 6.83444 5.6301 6.82142 5.57484C6.7271 5.11305 6.50924 4.70001 6.19702 4.3748C6.94501 4.23822 7.51414 3.6008 7.54667 2.82031C7.55967 2.83982 7.57917 2.85933 7.59542 2.87558C7.9304 3.21052 8.35969 3.45122 8.84425 3.54875C8.89954 3.56178 8.89954 3.63981 8.84425 3.64958Z" fill="#BC9595"/>
<path d="M6.87224 5.88791C6.71762 5.88791 6.58774 5.78109 6.55628 5.62814C6.4704 5.20572 6.26312 4.82199 5.95635 4.51751C5.65011 4.20898 5.26718 4.0016 4.84749 3.91643C4.70188 3.88683 4.60734 3.74573 4.6349 3.6002C4.60734 3.45459 4.70188 3.31349 4.84766 3.28389C5.26629 3.19898 5.65029 2.99135 5.95812 2.6836C6.26383 2.3778 6.47058 1.99381 6.55611 1.57306C6.58774 1.41932 6.71762 1.3125 6.87224 1.3125C7.02687 1.3125 7.15675 1.41932 7.1882 1.57227C7.27391 1.99363 7.48066 2.37772 7.78655 2.6836C8.0942 2.99143 8.4782 3.19898 8.897 3.28389C9.05092 3.31596 9.15747 3.44594 9.15747 3.6002C9.15747 3.75439 9.05092 3.88436 8.89842 3.91608C8.03713 4.09349 7.36598 4.76553 7.1882 5.62814C7.15675 5.78109 7.02687 5.88791 6.87224 5.88791ZM5.59462 3.6002C5.86923 3.73318 6.12087 3.91281 6.34017 4.1337C6.56035 4.35211 6.73953 4.60401 6.8726 4.87924C7.14155 4.32074 7.59234 3.86942 8.15004 3.60038C7.87579 3.46758 7.62327 3.28813 7.40273 3.06742C7.18326 2.84803 7.00478 2.59631 6.87224 2.32196C6.73989 2.59622 6.56141 2.84803 6.34193 3.06742C6.1214 3.28804 5.86905 3.46741 5.59462 3.6002Z" fill="#181818"/>
<path d="M8.48947 22.0854C10.236 22.0854 11.6518 20.6696 11.6518 18.9231C11.6518 17.1766 10.236 15.7607 8.48947 15.7607C6.74297 15.7607 5.32715 17.1766 5.32715 18.9231C5.32715 20.6696 6.74297 22.0854 8.48947 22.0854Z" fill="#C3C9FB"/>
<path d="M11.6501 18.923C11.6501 20.6696 10.2362 22.0834 8.48962 22.0834C7.31773 22.0834 6.29693 21.4484 5.75256 20.5033C6.13439 20.6696 6.55785 20.7603 7.00014 20.7603C8.74666 20.7603 10.1643 19.3465 10.1643 17.5999C10.1643 17.0252 10.0094 16.4884 9.74476 16.0234C10.8675 16.5073 11.6501 17.6226 11.6501 18.923Z" fill="#8693E2"/>
<path d="M8.48971 22.3564C6.59642 22.3564 5.05603 20.8161 5.05603 18.9228C5.05603 17.0296 6.59642 15.4893 8.48971 15.4893C10.383 15.4893 11.9232 17.0296 11.9232 18.9228C11.9232 20.8161 10.383 22.3564 8.48971 22.3564ZM8.48971 16.0321C6.89577 16.0321 5.59889 17.3289 5.59889 18.9228C5.59889 20.5168 6.89577 21.8136 8.48971 21.8136C10.0836 21.8136 11.3804 20.5168 11.3804 18.9228C11.3804 17.3289 10.0836 16.0321 8.48971 16.0321Z" fill="#181818"/>
<path d="M8.77845 17.4336V18.5634L9.8829 18.1783L10.0855 18.7407L8.9811 19.1004L9.66505 20.0529L9.16349 20.4126L8.49981 19.4246L7.83106 20.4126L7.3143 20.0529L8.00838 19.1004L6.8938 18.7407L7.09645 18.1783L8.19076 18.5735V17.4336H8.77845Z" fill="#181818"/>
<path d="M29.9988 28.0223H25.4992C25.3494 28.0223 25.2278 27.9009 25.2278 27.7509C25.2278 27.601 25.3494 27.4795 25.4992 27.4795H29.9988C30.1487 27.4795 30.2702 27.601 30.2702 27.7509C30.2702 27.9009 30.1487 28.0223 29.9988 28.0223Z" fill="#181818"/>
<path d="M32.6539 29.3887V35.7957C32.6539 36.3423 31.9966 36.6192 31.6052 36.2388L30.4308 35.0978C30.1908 34.8651 29.8067 34.8651 29.5667 35.0978L28.3924 36.2388C28.001 36.6192 27.3436 36.3423 27.3436 35.7957V29.3887H32.6539Z" fill="#7FD685"/>
<path d="M32.6539 32.5346V35.7953C32.6539 36.3419 31.9966 36.6188 31.6052 36.2384L30.4308 35.0973C30.1908 34.8647 29.8067 34.8647 29.5667 35.0973L28.3924 36.2384C28.001 36.6188 27.3436 36.3419 27.3436 35.7953V32.5346C27.3436 33.0811 28.001 33.358 28.3924 32.9778L29.5667 31.8366C29.8067 31.604 30.1908 31.604 30.4308 31.8366L31.6052 32.9778C31.9966 33.358 32.6539 33.0811 32.6539 32.5346Z" fill="#AFF2B6"/>
<path d="M27.9668 36.6871C27.8494 36.6871 27.7303 36.6633 27.6153 36.6148C27.2804 36.4731 27.0723 36.1594 27.0723 35.7957V29.3886C27.0723 29.2387 27.1938 29.1172 27.3437 29.1172H32.6539C32.8037 29.1172 32.9253 29.2387 32.9253 29.3886V35.7957C32.9253 36.1594 32.7171 36.4732 32.3823 36.6148C32.0467 36.7561 31.6768 36.6868 31.416 36.4334L30.2418 35.2924C30.1078 35.1627 29.8899 35.1626 29.7556 35.2926L28.5816 36.4334C28.4103 36.5999 28.1917 36.6871 27.9668 36.6871ZM27.6151 29.66V35.7957C27.6151 36.0088 27.777 36.0938 27.8266 36.1147C27.8765 36.1357 28.0505 36.1927 28.2032 36.0441L29.3776 34.9031C29.7201 34.5707 30.2773 34.5711 30.6197 34.9028L31.7943 36.0441C31.9474 36.1927 32.1211 36.1357 32.1709 36.1147C32.2206 36.0938 32.3824 36.0088 32.3824 35.7957V29.66H27.6151Z" fill="#181818"/>
<path d="M36.2508 25.079C36.2508 25.7216 35.6009 26.257 35.4125 26.8367C35.2168 27.4423 35.4199 28.251 35.0543 28.7534C34.6887 29.2592 33.8504 29.3145 33.3446 29.6838C32.8423 30.0495 32.5321 30.8286 31.9302 31.0244C31.3504 31.2127 30.6414 30.7697 29.9989 30.7697C29.3563 30.7697 28.6473 31.2127 28.0675 31.0244C27.4656 30.8286 27.1554 30.0495 26.6531 29.6838C26.1473 29.3145 25.309 29.2592 24.9434 28.7534C24.5778 28.251 24.7809 27.4423 24.5852 26.8367C24.3969 26.257 23.7469 25.7216 23.7469 25.079C23.7469 24.4363 24.3969 23.901 24.5852 23.3213C24.7809 22.7156 24.5778 21.9069 24.9434 21.4045C25.309 20.8988 26.1473 20.8434 26.6531 20.4741C27.1554 20.1085 27.4656 19.3293 28.0675 19.1335C28.6473 18.9453 29.3563 19.3883 29.9989 19.3883C30.6414 19.3883 31.3504 18.9453 31.9302 19.1335C32.5321 19.3293 32.8423 20.1085 33.3446 20.4741C33.8504 20.8434 34.6887 20.8988 35.0543 21.4045C35.4199 21.9069 35.2168 22.7156 35.4125 23.3213C35.6009 23.901 36.2508 24.4363 36.2508 25.079Z" fill="#F56691"/>
<path d="M36.2508 25.0795C36.2508 25.7221 35.6009 26.2575 35.4125 26.8372C35.2168 27.4429 35.4199 28.2516 35.0543 28.7539C34.6887 29.2597 33.8504 29.3151 33.3446 29.6843C32.8423 30.05 32.5321 30.8292 31.9302 31.025C31.3504 31.2132 30.6414 30.7702 29.9989 30.7702C29.3563 30.7702 28.6473 31.2132 28.0675 31.025C27.4656 30.8292 27.1554 30.05 26.6531 29.6843C26.1473 29.3151 25.309 29.2597 24.9434 28.7539C24.8991 28.6948 24.8659 28.632 24.8363 28.5619C25.837 29.2044 27.0298 29.5736 28.3076 29.5736C31.8748 29.5736 34.77 26.6785 34.77 23.1112C34.77 22.3505 34.6407 21.6231 34.397 20.9473C34.6592 21.058 34.9029 21.1909 35.0543 21.4051C35.4199 21.9074 35.2168 22.7161 35.4125 23.3218C35.6009 23.9015 36.2508 24.4369 36.2508 25.0795Z" fill="#F76189"/>
<path d="M29.9987 28.7496C32.0254 28.7496 33.6684 27.1066 33.6684 25.0799C33.6684 23.0531 32.0254 21.4102 29.9987 21.4102C27.972 21.4102 26.329 23.0531 26.329 25.0799C26.329 27.1066 27.972 28.7496 29.9987 28.7496Z" fill="white"/>
<path d="M33.6693 25.0788C33.6693 27.1062 32.0261 28.7494 29.9987 28.7494C28.385 28.7494 27.0149 27.7081 26.5238 26.2641C27.1737 26.8513 28.0341 27.2095 28.9832 27.2095C31.0105 27.2095 32.6538 25.5662 32.6538 23.5389C32.6538 23.1253 32.5837 22.7264 32.4544 22.3535C33.2004 23.0219 33.6693 23.9967 33.6693 25.0788Z" fill="#DDDDDD"/>
<path d="M28.3831 31.3431C28.249 31.3431 28.1155 31.3257 27.9837 31.2829C27.5492 31.1416 27.2659 30.7845 26.992 30.4391C26.8256 30.2292 26.6683 30.031 26.4933 29.9035C26.315 29.7734 26.0752 29.6838 25.8211 29.5888C25.411 29.4355 24.9867 29.2769 24.7234 28.9127C24.461 28.552 24.4403 28.1012 24.4205 27.6653C24.408 27.3927 24.3963 27.1351 24.3269 26.9203C24.2624 26.7217 24.124 26.5145 23.9773 26.2951C23.7421 25.943 23.4755 25.5439 23.4755 25.0793C23.4755 24.6146 23.7421 24.2155 23.9773 23.8634C24.124 23.644 24.2624 23.4368 24.327 23.2378C24.3963 23.0234 24.408 22.7658 24.4205 22.4933C24.4403 22.0573 24.461 21.6065 24.7239 21.2451C24.9867 20.8816 25.411 20.723 25.8211 20.5697C26.0752 20.4747 26.315 20.3851 26.493 20.2552C26.6683 20.1275 26.8256 19.9294 26.992 19.7194C27.2659 19.374 27.5492 19.0169 27.9835 18.8757C28.3999 18.7406 28.8311 18.8594 29.2481 18.9741C29.5155 19.0477 29.768 19.1171 29.9988 19.1171C30.2295 19.1171 30.4821 19.0477 30.7496 18.9741C31.1665 18.8593 31.5982 18.7404 32.014 18.8756C32.4483 19.0169 32.7316 19.374 33.0055 19.7194C33.172 19.9294 33.3292 20.1275 33.5042 20.255C33.6825 20.3851 33.9223 20.4748 34.1764 20.5697C34.5867 20.723 35.011 20.8816 35.2743 21.2458C35.5365 21.6064 35.5572 22.0571 35.577 22.4928C35.5896 22.7656 35.6012 23.0232 35.6708 23.2381C35.7353 23.4368 35.8737 23.644 36.0202 23.8634C36.2554 24.2155 36.5221 24.6146 36.5221 25.0793C36.5221 25.5439 36.2554 25.943 36.0202 26.2951C35.8737 26.5145 35.7353 26.7217 35.6707 26.9208C35.6012 27.1353 35.5896 27.3929 35.577 27.6657C35.5572 28.1015 35.5365 28.5521 35.2738 28.9134C35.011 29.2769 34.5867 29.4355 34.1764 29.5888C33.9223 29.6837 33.6825 29.7734 33.5045 29.9033C33.3292 30.031 33.172 30.2292 33.0055 30.4391C32.7316 30.7845 32.4483 31.1416 32.014 31.2828C31.5984 31.4181 31.1666 31.2993 30.7496 31.1845C30.4821 31.1109 30.2295 31.0414 29.9988 31.0414C29.768 31.0414 29.5155 31.1109 29.2481 31.1845C28.9632 31.2628 28.6717 31.343 28.3831 31.3431ZM28.3836 19.3587C28.3013 19.3587 28.2235 19.3686 28.1512 19.392C27.8727 19.4825 27.6515 19.7615 27.4174 20.0568C27.2355 20.286 27.0477 20.5228 26.8128 20.6938C26.575 20.8675 26.2884 20.9746 26.0113 21.0782C25.6612 21.209 25.3304 21.3325 25.1634 21.5638C24.9957 21.7941 24.9798 22.1457 24.9628 22.518C24.9492 22.8144 24.9353 23.1209 24.8436 23.405C24.7554 23.676 24.5893 23.9245 24.4286 24.165C24.2177 24.4809 24.0183 24.7792 24.0183 25.0793C24.0183 25.3793 24.2177 25.6776 24.4286 25.9936C24.5893 26.234 24.7554 26.4825 24.8434 26.7531C24.9353 27.0376 24.9492 27.3441 24.9628 27.6405C24.9798 28.0128 24.9957 28.3644 25.1629 28.594C25.3304 28.826 25.6612 28.9495 26.0113 29.0804C26.2884 29.1839 26.575 29.291 26.8132 29.4649C27.0477 29.6357 27.2355 29.8726 27.4174 30.1017C27.6515 30.397 27.8727 30.676 28.1514 30.7666C28.4122 30.851 28.7484 30.7589 29.1041 30.661C29.3944 30.5812 29.6946 30.4986 29.9988 30.4986C30.3029 30.4986 30.6031 30.5812 30.8935 30.661C31.2492 30.759 31.5856 30.8512 31.8461 30.7665C32.1248 30.676 32.346 30.397 32.5802 30.1017C32.762 29.8726 32.9498 29.6357 33.1847 29.4647C33.4225 29.291 33.7092 29.1839 33.9864 29.0804C34.3365 28.9495 34.6671 28.8259 34.8343 28.5947C35.0018 28.3645 35.0177 28.013 35.0349 27.6409C35.0483 27.3443 35.0624 27.0377 35.1541 26.7534C35.2423 26.4826 35.4082 26.234 35.5689 25.9936C35.7799 25.6777 35.9792 25.3793 35.9792 25.0793C35.9792 24.7792 35.7799 24.4808 35.5689 24.165C35.4082 23.9245 35.2423 23.6759 35.1543 23.4054C35.0624 23.1209 35.0483 22.8142 35.0349 22.5177C35.0177 22.1455 35.0018 21.794 34.8348 21.5645C34.6671 21.3326 34.3365 21.209 33.9864 21.0782C33.7092 20.9746 33.4225 20.8675 33.1843 20.6936C32.9498 20.5228 32.762 20.286 32.5802 20.0568C32.346 19.7615 32.1248 19.4825 31.8461 19.3919C31.5847 19.3072 31.2492 19.3995 30.8935 19.4975C30.6031 19.5774 30.3029 19.66 29.9988 19.66C29.6946 19.66 29.3944 19.5774 29.1041 19.4975C28.8466 19.4266 28.5996 19.3587 28.3836 19.3587Z" fill="#181818"/>
<path d="M29.9987 29.0201C27.8255 29.0201 26.0575 27.2521 26.0575 25.0789C26.0575 22.9057 27.8255 21.1377 29.9987 21.1377C32.1719 21.1377 33.9399 22.9057 33.9399 25.0789C33.9399 27.2521 32.1719 29.0201 29.9987 29.0201ZM29.9987 21.6806C28.1248 21.6806 26.6004 23.205 26.6004 25.0789C26.6004 26.9527 28.1248 28.4772 29.9987 28.4772C31.8725 28.4772 33.397 26.9527 33.397 25.0789C33.397 23.205 31.8725 21.6806 29.9987 21.6806Z" fill="#181818"/>
<path d="M30.245 16.4169H14.2977C14.1478 16.4169 14.0262 16.2954 14.0262 16.1455C14.0262 15.9955 14.1478 15.874 14.2977 15.874H30.245C30.3948 15.874 30.5164 15.9955 30.5164 16.1455C30.5164 16.2954 30.3948 16.4169 30.245 16.4169Z" fill="#181818"/>
<path d="M25.8843 19.5526H14.2977C14.1478 19.5526 14.0262 19.4311 14.0262 19.2812C14.0262 19.1313 14.1478 19.0098 14.2977 19.0098H25.8843C26.0341 19.0098 26.1557 19.1313 26.1557 19.2812C26.1557 19.4311 26.0341 19.5526 25.8843 19.5526Z" fill="#181818"/>
<path d="M22.4462 22.6884H14.2977C14.1478 22.6884 14.0262 22.5669 14.0262 22.4169C14.0262 22.267 14.1478 22.1455 14.2977 22.1455H22.4462C22.596 22.1455 22.7176 22.267 22.7176 22.4169C22.7176 22.5669 22.596 22.6884 22.4462 22.6884Z" fill="#181818"/>
<path d="M21.2248 25.8231H5.32746C5.17761 25.8231 5.05603 25.7016 5.05603 25.5517C5.05603 25.4018 5.17761 25.2803 5.32746 25.2803H21.2248C21.3746 25.2803 21.4962 25.4018 21.4962 25.5517C21.4962 25.7016 21.3746 25.8231 21.2248 25.8231Z" fill="#181818"/>
<path d="M31.1583 25.3335C31.0898 25.4018 31.0556 25.5002 31.0727 25.5986L31.1882 26.283C31.2309 26.5268 30.9743 26.7152 30.7519 26.5997L30.1402 26.2745C30.0504 26.2319 29.9477 26.2319 29.8579 26.2745L29.2462 26.5997C29.0238 26.7152 28.7671 26.5268 28.8099 26.283L28.9254 25.5986C28.9425 25.5002 28.9083 25.4018 28.8399 25.3335L28.3437 24.8458C28.164 24.6748 28.2624 24.3711 28.5105 24.3325L29.1949 24.2341C29.2932 24.2214 29.3788 24.1572 29.4216 24.0716L29.7296 23.4471C29.8408 23.2247 30.1573 23.2247 30.2685 23.4471L30.5765 24.0716C30.6193 24.1572 30.7048 24.2214 30.8032 24.2341L31.4876 24.3325C31.7357 24.3711 31.8341 24.6748 31.6544 24.8458L31.1583 25.3335Z" fill="#F56691"/>
<path d="M30.8923 26.9059C30.802 26.9059 30.711 26.8842 30.6268 26.8406L30.0129 26.514C30.0079 26.5118 29.9904 26.5119 29.974 26.5197L29.3737 26.8393C29.1763 26.9419 28.9448 26.9244 28.7674 26.7944C28.591 26.665 28.505 26.4511 28.5426 26.2361L28.6577 25.5533L28.1533 25.0394C27.9989 24.8923 27.9416 24.6697 28.0067 24.4614C28.0727 24.2505 28.2498 24.0983 28.4688 24.0643L29.1562 23.9653L29.4861 23.327C29.5845 23.1302 29.7808 23.0088 29.9991 23.0088C30.2173 23.0088 30.4136 23.1302 30.5114 23.3257L30.8201 23.9515L31.5264 24.0638C31.7485 24.0983 31.9256 24.2506 31.9917 24.4616C32.0567 24.6698 31.9993 24.8924 31.8416 25.0424L31.3497 25.526C31.3438 25.532 31.3384 25.5418 31.3401 25.5518L31.4559 26.2378C31.4932 26.4511 31.4071 26.665 31.2308 26.7944C31.13 26.8683 31.0116 26.9059 30.8923 26.9059ZM29.7296 23.447L29.9731 23.5671L29.6651 24.1916C29.5806 24.3605 29.4142 24.4794 29.2297 24.5032L28.5492 24.6011C28.55 24.6021 28.5329 24.6512 28.534 24.6522L29.0302 25.1399C29.1643 25.2737 29.2247 25.462 29.1927 25.6451L29.0777 26.3281L29.2463 26.5997L29.1189 26.36L29.7305 26.0348C29.9054 25.9517 30.0934 25.9517 30.2565 26.0291L30.8793 26.36C30.8793 26.3594 30.9206 26.3287 30.9204 26.3281L30.8051 25.6436C30.7736 25.4623 30.8337 25.2741 30.9666 25.1414C30.9669 25.141 30.9675 25.1405 30.968 25.1399L31.4642 24.6522L31.4877 24.3324L31.449 24.6011L30.7646 24.5027C30.584 24.4794 30.4175 24.3605 30.3338 24.1928L30.0251 23.5671L29.7296 23.447Z" fill="#181818"/>
<path d="M22.9737 34.9253C22.9737 35.599 22.4288 36.1439 21.7574 36.1439C21.0837 36.1439 20.5388 35.599 20.5388 34.9253C20.5388 34.2539 21.0837 33.709 21.7574 33.709C22.4288 33.709 22.9737 34.2539 22.9737 34.9253Z" fill="#C3C9FB"/>
<path d="M22.9738 34.9247C22.9738 35.5975 22.4276 36.1438 21.7576 36.1438C21.2315 36.1438 20.7801 35.8074 20.6105 35.3387C20.7945 35.4509 21.013 35.517 21.2459 35.517C21.9187 35.517 22.4649 34.9707 22.4649 34.2979C22.4649 34.1571 22.4419 34.0191 22.3959 33.8926C22.7409 34.1053 22.9738 34.4877 22.9738 34.9247Z" fill="#8693E2"/>
<path d="M21.7574 36.4154C20.9358 36.4154 20.2673 35.7469 20.2673 34.9252C20.2673 34.1049 20.9358 33.4375 21.7574 33.4375C22.5777 33.4375 23.2451 34.1049 23.2451 34.9252C23.2451 35.7469 22.5777 36.4154 21.7574 36.4154ZM21.7574 33.9804C21.235 33.9804 20.8102 34.4042 20.8102 34.9252C20.8102 35.4476 21.235 35.8725 21.7574 35.8725C22.2783 35.8725 22.7022 35.4476 22.7022 34.9252C22.7022 34.4042 22.2783 33.9804 21.7574 33.9804Z" fill="#181818"/>
<path d="M36.2507 17.5195C36.1008 17.5195 35.9792 17.398 35.9792 17.2481V11.0927C35.9792 10.9428 36.1008 10.8213 36.2507 10.8213C36.4005 10.8213 36.5221 10.9428 36.5221 11.0927V17.2481C36.5221 17.398 36.4005 17.5195 36.2507 17.5195Z" fill="#181818"/>
<path d="M36.2507 9.42566C36.1008 9.42566 35.9792 9.30417 35.9792 9.15423V8.37299C35.9792 8.22305 36.1008 8.10156 36.2507 8.10156C36.4005 8.10156 36.5221 8.22305 36.5221 8.37299V9.15423C36.5221 9.30417 36.4005 9.42566 36.2507 9.42566Z" fill="#181818"/>
</svg>
