<svg width="134" height="40" viewBox="0 0 134 40" fill="none" xmlns="http://www.w3.org/2000/svg">
<path d="M17.872 0C21.7303 3.2494 25.5297 6.44668 29.3291 9.64394C31.217 11.2339 33.0991 12.8354 35.0076 14.3993C35.4671 14.7758 35.6879 15.1581 35.6879 15.7662C35.6673 23.4756 35.6613 31.1879 35.6939 38.8972C35.6967 39.7689 35.4346 40.0065 34.5599 39.9978C30.625 39.9544 26.6901 39.992 22.7552 39.9572C22.2398 39.9513 21.6891 39.763 21.2178 39.5344C20.237 39.0565 19.3122 38.4599 18.3285 37.9879C18.0516 37.8547 17.601 37.8751 17.3094 37.9996C16.6232 38.2947 15.9428 38.6396 15.339 39.0709C14.2228 39.8675 13.0005 40.021 11.6633 39.9978C8.10545 39.9427 4.5446 39.9603 0.986697 39.992C0.226814 39.9978 -0.00291739 39.7661 2.78865e-05 39.0161C0.0265354 31.2487 0.011809 23.4814 0.0383163 15.717C0.0412618 15.3231 0.247431 14.8077 0.541959 14.5586C6.14683 9.80032 11.7752 5.07392 17.3978 0.344633C17.5274 0.234583 17.6717 0.144804 17.872 0ZM15.1358 36.1403C13.7928 35.0482 12.544 34.1274 11.41 33.0848C9.50738 31.3385 7.88453 29.3749 7.38678 26.7627C6.88608 24.1301 7.62536 21.8799 9.85196 20.2754C12.005 18.7261 14.3789 18.5436 16.688 19.8816C17.6069 20.4145 18.1989 20.3479 19.0707 19.8497C22.9437 17.6198 27.9919 20.2349 28.4043 24.6254C28.5869 26.5744 28.0538 28.3353 26.9935 29.9628C25.7123 31.9322 23.9805 33.4729 22.122 34.892C21.636 35.2654 21.1471 35.6361 20.6611 36.0099C20.6553 36.1113 20.6494 36.2127 20.6435 36.3141C21.533 36.6558 22.4077 37.2492 23.3119 37.2899C26.2277 37.4144 29.1553 37.3216 32.077 37.3479C32.7633 37.3537 32.9871 37.093 32.9842 36.4413C32.9694 29.9541 32.9871 23.4669 32.9488 16.9797C32.9459 16.5424 32.6631 15.9806 32.3215 15.6881C27.8653 11.8855 23.3767 8.1235 18.8969 4.34992C17.8396 3.46082 17.8396 3.46661 16.8087 4.33544C12.3025 8.1206 7.78438 11.8942 3.30463 15.7083C2.97181 15.9921 2.74797 16.5772 2.74503 17.0261C2.70968 23.4553 2.7303 29.8876 2.70674 36.3168C2.70379 37.1016 2.95414 37.3623 3.7523 37.3506C6.47081 37.313 9.19519 37.2782 11.9107 37.3623C13.1949 37.403 14.0343 36.6585 15.1358 36.1403ZM17.8307 24.6659C17.3683 24.0838 16.956 23.464 16.4435 22.9427C15.1712 21.6482 13.3186 21.3499 11.84 22.1347C10.3232 22.9398 9.58692 24.5501 10.117 26.3659C10.4145 27.3795 10.9064 28.3816 11.5219 29.2475C13.0329 31.3819 15.1918 32.8444 17.3595 34.2606C17.5892 34.4112 18.1312 34.3765 18.355 34.2056C20.0043 32.9719 21.6891 31.7642 23.2088 30.3828C24.4164 29.2851 25.3265 27.9153 25.6563 26.2529C25.9862 24.5848 25.3265 22.9601 23.9687 22.1955C22.4961 21.3673 20.6965 21.5758 19.4182 22.8037C18.8439 23.354 18.3815 24.0114 17.8307 24.6659Z" fill="#EF4C7D"/>
<path d="M49.9074 5.7496C51.9525 5.7496 53.4448 6.19092 54.3842 7.07355C55.3237 7.94896 55.7934 9.15715 55.7934 10.6982C55.7934 11.3927 55.6886 12.0583 55.4791 12.6949C55.2695 13.3244 54.9262 13.885 54.4493 14.377C53.9796 14.869 53.3509 15.2596 52.5632 15.549C51.7755 15.8312 50.8035 15.9723 49.6473 15.9723H48.2056V21.6154H44.8453V5.7496H49.9074ZM49.734 8.50603H48.2056V13.2158H49.3112C49.9399 13.2158 50.4855 13.1326 50.948 12.9662C51.4105 12.7998 51.7683 12.5394 52.0212 12.1849C52.2741 11.8304 52.4006 11.3746 52.4006 10.8175C52.4006 10.0362 52.1838 9.4574 51.7502 9.08119C51.3166 8.69775 50.6445 8.50603 49.734 8.50603Z" fill="#EF4C7D"/>
<path d="M73.1695 13.6608C73.1695 14.8834 73.0178 15.9976 72.7143 17.0032C72.4107 18.0016 71.9482 18.8625 71.3268 19.586C70.7125 20.3095 69.9321 20.8666 68.9854 21.2572C68.0387 21.6407 66.9186 21.8324 65.6251 21.8324C64.3315 21.8324 63.2114 21.6407 62.2647 21.2572C61.3181 20.8666 60.534 20.3095 59.9125 19.586C59.2983 18.8625 58.8394 17.998 58.5359 16.9924C58.2324 15.9867 58.0806 14.869 58.0806 13.6391C58.0806 11.9968 58.348 10.5679 58.8827 9.35249C59.4247 8.12982 60.2558 7.18207 61.3759 6.50924C62.496 5.83641 63.9196 5.5 65.6467 5.5C67.3667 5.5 68.7794 5.83641 69.8851 6.50924C70.998 7.18207 71.8218 8.12982 72.3565 9.35249C72.8985 10.5752 73.1695 12.0113 73.1695 13.6608ZM61.6035 13.6608C61.6035 14.7677 61.7408 15.7227 62.0154 16.5257C62.2973 17.3215 62.7345 17.9365 63.327 18.3706C63.9196 18.7974 64.6856 19.0109 65.6251 19.0109C66.579 19.0109 67.3522 18.7974 67.9448 18.3706C68.5373 17.9365 68.9673 17.3215 69.2347 16.5257C69.5093 15.7227 69.6466 14.7677 69.6466 13.6608C69.6466 11.9968 69.3359 10.6873 68.7144 9.73232C68.0929 8.77733 67.0704 8.29984 65.6467 8.29984C64.7001 8.29984 63.9268 8.51688 63.327 8.95096C62.7345 9.37781 62.2973 9.99277 62.0154 10.7958C61.7408 11.5916 61.6035 12.5466 61.6035 13.6608Z" fill="#EF4C7D"/>
<path d="M88.8655 5.7496V18.8155H90.9792V26.2383H87.7381V21.6154H77.8089V26.2383H74.5678V18.8155H75.7927C76.2047 17.9908 76.6021 17.119 76.9851 16.2002C77.3681 15.2814 77.7258 14.2938 78.0583 13.2375C78.3907 12.1813 78.6906 11.0346 78.9579 9.79743C79.2253 8.56029 79.4493 7.21101 79.63 5.7496H88.8655ZM85.516 8.54944H82.2966C82.1882 9.31632 82.04 10.1338 81.8522 11.002C81.6643 11.8702 81.4403 12.7564 81.1801 13.6608C80.9272 14.5579 80.6417 15.4441 80.3238 16.3195C80.013 17.1949 79.6806 18.0269 79.3265 18.8155H85.516V8.54944Z" fill="#EF4C7D"/>
<path d="M93.429 5.7496H96.4533V13.4112C96.4533 13.7874 96.4461 14.2034 96.4316 14.6592C96.4244 15.115 96.4099 15.5635 96.3883 16.0048C96.3738 16.4389 96.3594 16.8187 96.3449 17.1443C96.3305 17.4699 96.316 17.6869 96.3015 17.7954H96.3666L103.683 5.7496H107.705V21.6154H104.713V13.9972C104.713 13.592 104.72 13.1507 104.735 12.6732C104.749 12.1957 104.767 11.7327 104.789 11.2842C104.818 10.8356 104.843 10.4486 104.865 10.123C104.887 9.79019 104.901 9.56953 104.908 9.46101H104.822L97.4722 21.6154H93.429V5.7496Z" fill="#EF4C7D"/>
<path d="M123.878 21.6154H120.518V15.4839C119.585 15.8023 118.733 16.0446 117.959 16.211C117.186 16.3774 116.406 16.4606 115.618 16.4606C114.129 16.4606 112.969 16.1025 112.138 15.3863C111.307 14.6628 110.892 13.6355 110.892 12.3043V5.7496H114.241V11.3493C114.241 12.1162 114.418 12.6949 114.772 13.0856C115.127 13.4691 115.726 13.6608 116.572 13.6608C117.193 13.6608 117.815 13.5957 118.436 13.4654C119.058 13.328 119.752 13.1254 120.518 12.8577V5.7496H123.878V21.6154Z" fill="#EF4C7D"/>
<path d="M127.878 21.6154V5.7496H131.238V21.6154H127.878Z" fill="#EF4C7D"/>
<path d="M43.6938 36.4321V30.2621H48.2845V36.4321H47.5763V30.8951H44.4105V36.4321H43.6938Z" fill="#EF4C7D"/>
<path d="M52.0489 31.7223C52.625 31.7223 53.0845 31.9206 53.4273 32.3173C53.7702 32.714 53.9416 33.3105 53.9416 34.1067C53.9416 34.6328 53.8629 35.0746 53.7056 35.4319C53.5482 35.7892 53.3262 36.0593 53.0395 36.2422C52.7557 36.425 52.4198 36.5165 52.032 36.5165C51.7875 36.5165 51.5725 36.4841 51.3871 36.4194C51.2016 36.3547 51.0428 36.2675 50.9107 36.1578C50.7786 36.048 50.669 35.9285 50.5819 35.799H50.5313C50.5397 35.9088 50.5496 36.041 50.5608 36.1957C50.5749 36.3505 50.5819 36.4855 50.5819 36.6009V38.5H49.8779V31.8067H50.4554L50.5482 32.4904H50.5819C50.6718 32.3497 50.7814 32.2217 50.9107 32.1063C51.04 31.9881 51.1974 31.8953 51.3828 31.8278C51.5711 31.7574 51.7931 31.7223 52.0489 31.7223ZM51.9266 32.3131C51.6063 32.3131 51.3477 32.375 51.151 32.4988C50.9571 32.6226 50.8152 32.8083 50.7252 33.0559C50.6353 33.3006 50.5875 33.6087 50.5819 33.9801V34.1152C50.5819 34.5062 50.6241 34.8368 50.7084 35.1069C50.7955 35.377 50.9374 35.5824 51.1341 35.7231C51.3337 35.8637 51.6006 35.9341 51.9351 35.9341C52.2217 35.9341 52.4606 35.8567 52.6517 35.702C52.8428 35.5472 52.9847 35.332 53.0775 35.0563C53.173 34.7777 53.2208 34.4584 53.2208 34.0983C53.2208 33.5525 53.114 33.1192 52.9004 32.7984C52.6896 32.4749 52.365 32.3131 51.9266 32.3131Z" fill="#EF4C7D"/>
<path d="M55.8301 31.8067V34.7144C55.8301 34.7707 55.8287 34.8439 55.8259 34.9339C55.8231 35.0211 55.8189 35.1154 55.8133 35.2166C55.8077 35.3151 55.802 35.4108 55.7964 35.5036C55.7936 35.5936 55.7894 35.6682 55.7838 35.7273L58.3046 31.8067H59.1646V36.4321H58.5112V33.5961C58.5112 33.506 58.5126 33.3907 58.5154 33.25C58.5182 33.1093 58.5224 32.9715 58.528 32.8364C58.5337 32.6986 58.5379 32.5916 58.5407 32.5157L56.0283 36.4321H55.1641V31.8067H55.8301Z" fill="#EF4C7D"/>
<path d="M64.3243 32.9672C64.3243 33.257 64.24 33.4835 64.0714 33.6467C63.9027 33.8071 63.6849 33.9154 63.418 33.9717V34.0054C63.7074 34.0448 63.9561 34.1489 64.1641 34.3177C64.3749 34.4837 64.4803 34.7383 64.4803 35.0816C64.4803 35.3461 64.417 35.5796 64.2906 35.7822C64.1641 35.9847 63.966 36.1437 63.6962 36.259C63.4264 36.3744 63.0751 36.4321 62.6423 36.4321H60.6526V31.8067H62.6255C62.9571 31.8067 63.2493 31.8447 63.5023 31.9206C63.758 31.9938 63.959 32.1147 64.1051 32.2836C64.2512 32.4524 64.3243 32.6803 64.3243 32.9672ZM63.751 35.0816C63.751 34.8087 63.647 34.6117 63.439 34.4908C63.2339 34.3698 62.9346 34.3093 62.5412 34.3093H61.3566V35.8623H62.558C62.9458 35.8623 63.2409 35.8033 63.4433 35.6851C63.6484 35.5641 63.751 35.3629 63.751 35.0816ZM63.6119 33.0474C63.6119 32.828 63.5318 32.6648 63.3716 32.5579C63.2114 32.4482 62.9487 32.3933 62.5833 32.3933H61.3566V33.7227H62.4611C62.8405 33.7227 63.1271 33.6678 63.321 33.5581C63.5149 33.4484 63.6119 33.2781 63.6119 33.0474Z" fill="#EF4C7D"/>
<path d="M67.3383 31.7307C67.8892 31.7307 68.2981 31.8545 68.565 32.1021C68.832 32.3497 68.9655 32.745 68.9655 33.288V36.4321H68.4554L68.3205 35.7484H68.2868C68.1575 35.9172 68.0227 36.0593 67.8821 36.1746C67.7416 36.2872 67.5786 36.373 67.3931 36.4321C67.2105 36.4883 66.9856 36.5165 66.7187 36.5165C66.4376 36.5165 66.1875 36.4672 65.9683 36.3688C65.7519 36.2703 65.5805 36.1212 65.454 35.9214C65.3304 35.7217 65.2686 35.4684 65.2686 35.1618C65.2686 34.7004 65.4512 34.3459 65.8166 34.0983C66.1819 33.8507 66.7383 33.7156 67.4859 33.6931L68.2826 33.6594V33.3766C68.2826 32.9771 68.1969 32.6971 68.0255 32.5368C67.854 32.3764 67.6124 32.2962 67.3004 32.2962C67.0587 32.2962 66.8283 32.3314 66.6091 32.4017C66.3899 32.4721 66.1819 32.5551 65.9852 32.6507L65.7702 32.119C65.9782 32.0121 66.217 31.9206 66.4868 31.8447C66.7566 31.7687 67.0405 31.7307 67.3383 31.7307ZM68.2742 34.1531L67.5702 34.1827C66.9941 34.2052 66.588 34.2994 66.3519 34.4654C66.1159 34.6314 65.9978 34.8664 65.9978 35.1702C65.9978 35.4347 66.0779 35.6302 66.2381 35.7568C66.3983 35.8834 66.6105 35.9467 66.8746 35.9467C67.2849 35.9467 67.6208 35.8328 67.8821 35.6049C68.1435 35.377 68.2742 35.0352 68.2742 34.5794V34.1531Z" fill="#EF4C7D"/>
<path d="M73.5561 32.4017H72.0344V36.4321H71.343V32.4017H69.8423V31.8067H73.5561V32.4017Z" fill="#EF4C7D"/>
<path d="M75.1749 31.8067V33.748H77.7505V31.8067H78.4503V36.4321H77.7505V34.343H75.1749V36.4321H74.4709V31.8067H75.1749Z" fill="#EF4C7D"/>
<path d="M80.6002 31.8067V34.7144C80.6002 34.7707 80.5988 34.8439 80.596 34.9339C80.5931 35.0211 80.5889 35.1154 80.5833 35.2166C80.5777 35.3151 80.5721 35.4108 80.5664 35.5036C80.5636 35.5936 80.5594 35.6682 80.5538 35.7273L83.0746 31.8067H83.9346V36.4321H83.2812V33.5961C83.2812 33.506 83.2826 33.3907 83.2854 33.25C83.2882 33.1093 83.2924 32.9715 83.2981 32.8364C83.3037 32.6986 83.3079 32.5916 83.3107 32.5157L80.7983 36.4321H79.9341V31.8067H80.6002Z" fill="#EF4C7D"/>
<path d="M86.0887 31.8067V34.7144C86.0887 34.7707 86.0873 34.8439 86.0845 34.9339C86.0817 35.0211 86.0775 35.1154 86.0718 35.2166C86.0662 35.3151 86.0606 35.4108 86.055 35.5036C86.0522 35.5936 86.048 35.6682 86.0423 35.7273L88.5632 31.8067H89.4231V36.4321H88.7697V33.5961C88.7697 33.506 88.7711 33.3907 88.7739 33.25C88.7767 33.1093 88.781 32.9715 88.7866 32.8364C88.7922 32.6986 88.7964 32.5916 88.7992 32.5157L86.2868 36.4321H85.4227V31.8067H86.0887ZM89.0775 29.9033C89.0522 30.1875 88.9805 30.4252 88.8625 30.6166C88.7472 30.8079 88.5772 30.9528 88.3524 31.0512C88.1276 31.1469 87.8395 31.1947 87.4882 31.1947C87.1257 31.1947 86.8334 31.1483 86.6114 31.0555C86.3922 30.9598 86.2292 30.8163 86.1224 30.625C86.0184 30.4337 85.9566 30.1931 85.9369 29.9033H86.5946C86.6255 30.2128 86.7084 30.4238 86.8433 30.5364C86.9782 30.6489 87.1974 30.7052 87.5009 30.7052C87.7707 30.7052 87.9828 30.6461 88.1374 30.5279C88.292 30.4098 88.3847 30.2016 88.4156 29.9033H89.0775Z" fill="#EF4C7D"/>
<path d="M97.0236 31.8067V36.4321H96.3196V32.4102H93.8578V36.4321H93.1538V31.8067H97.0236Z" fill="#EF4C7D"/>
<path d="M100.236 31.7307C100.787 31.7307 101.195 31.8545 101.462 32.1021C101.729 32.3497 101.863 32.745 101.863 33.288V36.4321H101.353L101.218 35.7484H101.184C101.055 35.9172 100.92 36.0593 100.78 36.1746C100.639 36.2872 100.476 36.373 100.291 36.4321C100.108 36.4883 99.8831 36.5165 99.6161 36.5165C99.3351 36.5165 99.0849 36.4672 98.8657 36.3688C98.6494 36.2703 98.4779 36.1212 98.3515 35.9214C98.2278 35.7217 98.166 35.4684 98.166 35.1618C98.166 34.7004 98.3486 34.3459 98.714 34.0983C99.0793 33.8507 99.6358 33.7156 100.383 33.6931L101.18 33.6594V33.3766C101.18 32.9771 101.094 32.6971 100.923 32.5368C100.751 32.3764 100.51 32.2962 100.198 32.2962C99.9561 32.2962 99.7257 32.3314 99.5065 32.4017C99.2873 32.4721 99.0793 32.5551 98.8826 32.6507L98.6676 32.119C98.8756 32.0121 99.1145 31.9206 99.3842 31.8447C99.654 31.7687 99.9379 31.7307 100.236 31.7307ZM101.172 34.1531L100.468 34.1827C99.8915 34.2052 99.4854 34.2994 99.2494 34.4654C99.0133 34.6314 98.8952 34.8664 98.8952 35.1702C98.8952 35.4347 98.9753 35.6302 99.1355 35.7568C99.2957 35.8834 99.5079 35.9467 99.7721 35.9467C100.182 35.9467 100.518 35.8328 100.78 35.6049C101.041 35.377 101.172 35.0352 101.172 34.5794V34.1531Z" fill="#EF4C7D"/>
<path d="M104.009 31.8067V33.748H106.584V31.8067H107.284V36.4321H106.584V34.343H104.009V36.4321H103.305V31.8067H104.009Z" fill="#EF4C7D"/>
<path d="M110.618 36.5165C110.203 36.5165 109.836 36.4307 109.518 36.259C109.201 36.0874 108.953 35.8258 108.776 35.4741C108.599 35.1224 108.511 34.6793 108.511 34.1447C108.511 33.5848 108.603 33.1276 108.789 32.7731C108.977 32.4158 109.236 32.1513 109.565 31.9797C109.893 31.8081 110.267 31.7223 110.686 31.7223C110.916 31.7223 111.138 31.7462 111.352 31.794C111.568 31.839 111.745 31.8967 111.883 31.967L111.672 32.5537C111.532 32.4974 111.369 32.4467 111.183 32.4017C111.001 32.3567 110.829 32.3342 110.669 32.3342C110.349 32.3342 110.082 32.4031 109.868 32.541C109.657 32.6789 109.499 32.8814 109.392 33.1487C109.288 33.416 109.236 33.7452 109.236 34.1363C109.236 34.5104 109.286 34.8298 109.388 35.0943C109.492 35.3587 109.645 35.5613 109.847 35.702C110.052 35.8398 110.308 35.9088 110.614 35.9088C110.859 35.9088 111.079 35.8834 111.276 35.8328C111.473 35.7793 111.651 35.7174 111.811 35.6471V36.2717C111.657 36.3505 111.484 36.411 111.293 36.4532C111.105 36.4954 110.88 36.5165 110.618 36.5165Z" fill="#EF4C7D"/>
<path d="M113.607 31.8067V36.4321H112.907V31.8067H113.607ZM113.266 30.0764C113.381 30.0764 113.479 30.1143 113.561 30.1903C113.645 30.2635 113.687 30.3788 113.687 30.5364C113.687 30.6911 113.645 30.8065 113.561 30.8824C113.479 30.9584 113.381 30.9964 113.266 30.9964C113.145 30.9964 113.044 30.9584 112.962 30.8824C112.884 30.8065 112.844 30.6911 112.844 30.5364C112.844 30.3788 112.884 30.2635 112.962 30.1903C113.044 30.1143 113.145 30.0764 113.266 30.0764Z" fill="#EF4C7D"/>
<path d="M119.075 34.1109C119.075 34.4908 119.025 34.8298 118.927 35.128C118.829 35.4262 118.687 35.6781 118.501 35.8834C118.316 36.0888 118.091 36.2464 117.827 36.3561C117.566 36.463 117.269 36.5165 116.937 36.5165C116.628 36.5165 116.344 36.463 116.086 36.3561C115.83 36.2464 115.608 36.0888 115.42 35.8834C115.234 35.6781 115.09 35.4262 114.986 35.128C114.884 34.8298 114.834 34.4908 114.834 34.1109C114.834 33.6045 114.92 33.174 115.091 32.8195C115.262 32.4622 115.507 32.1907 115.825 32.005C116.145 31.8165 116.526 31.7223 116.967 31.7223C117.388 31.7223 117.757 31.8165 118.071 32.005C118.389 32.1935 118.635 32.4664 118.809 32.8238C118.986 33.1783 119.075 33.6073 119.075 34.1109ZM115.559 34.1109C115.559 34.4823 115.608 34.8045 115.706 35.0774C115.805 35.3503 115.957 35.5613 116.162 35.7104C116.367 35.8595 116.631 35.9341 116.954 35.9341C117.275 35.9341 117.537 35.8595 117.743 35.7104C117.951 35.5613 118.104 35.3503 118.202 35.0774C118.3 34.8045 118.35 34.4823 118.35 34.1109C118.35 33.7424 118.3 33.4244 118.202 33.1572C118.104 32.8871 117.952 32.6789 117.747 32.5326C117.542 32.3863 117.276 32.3131 116.95 32.3131C116.469 32.3131 116.117 32.4721 115.892 32.79C115.67 33.1079 115.559 33.5482 115.559 34.1109Z" fill="#EF4C7D"/>
<path d="M120.988 31.8067V33.748H123.564V31.8067H124.264V36.4321H123.564V34.343H120.988V36.4321H120.284V31.8067H120.988Z" fill="#EF4C7D"/>
<path d="M127.476 31.7307C128.027 31.7307 128.436 31.8545 128.703 32.1021C128.97 32.3497 129.103 32.745 129.103 33.288V36.4321H128.593L128.458 35.7484H128.425C128.295 35.9172 128.16 36.0593 128.02 36.1746C127.879 36.2872 127.716 36.373 127.531 36.4321C127.348 36.4883 127.123 36.5165 126.856 36.5165C126.575 36.5165 126.325 36.4672 126.106 36.3688C125.89 36.2703 125.718 36.1212 125.592 35.9214C125.468 35.7217 125.406 35.4684 125.406 35.1618C125.406 34.7004 125.589 34.3459 125.954 34.0983C126.32 33.8507 126.876 33.7156 127.624 33.6931L128.42 33.6594V33.3766C128.42 32.9771 128.335 32.6971 128.163 32.5368C127.992 32.3764 127.75 32.2962 127.438 32.2962C127.196 32.2962 126.966 32.3314 126.747 32.4017C126.528 32.4721 126.32 32.5551 126.123 32.6507L125.908 32.119C126.116 32.0121 126.355 31.9206 126.625 31.8447C126.894 31.7687 127.178 31.7307 127.476 31.7307ZM128.412 34.1531L127.708 34.1827C127.132 34.2052 126.726 34.2994 126.49 34.4654C126.254 34.6314 126.136 34.8664 126.136 35.1702C126.136 35.4347 126.216 35.6302 126.376 35.7568C126.536 35.8834 126.748 35.9467 127.012 35.9467C127.423 35.9467 127.758 35.8328 128.02 35.6049C128.281 35.377 128.412 35.0352 128.412 34.5794V34.1531Z" fill="#EF4C7D"/>
<path d="M133.694 32.4017H132.172V36.4321H131.481V32.4017H129.98V31.8067H133.694V32.4017Z" fill="#EF4C7D"/>
</svg>
